<?xml version="1.0" encoding="utf-8"?>
<!-- Generator: Adobe Illustrator 27.5.0, SVG Export Plug-In . SVG Version: 6.00 Build 0)  -->
<svg version="1.1" xmlns="http://www.w3.org/2000/svg" xmlns:xlink="http://www.w3.org/1999/xlink" x="0px" y="0px"
	 viewBox="0 0 500 500" style="enable-background:new 0 0 500 500;" xml:space="preserve">
<g id="Background_Complete">
	<g>
		<rect x="416.779" y="398.494" style="fill:#EBEBEB;" width="33.122" height="0.25"/>
		<rect x="322.527" y="401.208" style="fill:#EBEBEB;" width="8.693" height="0.25"/>
		<rect x="396.586" y="389.208" style="fill:#EBEBEB;" width="19.192" height="0.25"/>
		<rect x="52.459" y="390.888" style="fill:#EBEBEB;" width="43.193" height="0.25"/>
		<rect x="104.556" y="390.888" style="fill:#EBEBEB;" width="6.333" height="0.25"/>
		<rect x="131.471" y="395.111" style="fill:#EBEBEB;" width="93.676" height="0.25"/>
		<path style="fill:#EBEBEB;" d="M237.014,337.8H43.915c-3.147,0-5.708-2.561-5.708-5.708V60.66c0-3.147,2.561-5.708,5.708-5.708
			h193.099c3.146,0,5.707,2.561,5.707,5.708v271.432C242.721,335.239,240.16,337.8,237.014,337.8z M43.915,55.203
			c-3.01,0-5.458,2.448-5.458,5.458v271.432c0,3.01,2.448,5.458,5.458,5.458h193.099c3.009,0,5.457-2.448,5.457-5.458V60.66
			c0-3.009-2.448-5.458-5.457-5.458H43.915z"/>
		<path style="fill:#EBEBEB;" d="M453.31,337.8H260.212c-3.147,0-5.707-2.561-5.707-5.708V60.66c0-3.147,2.561-5.708,5.707-5.708
			H453.31c3.148,0,5.708,2.561,5.708,5.708v271.432C459.019,335.239,456.458,337.8,453.31,337.8z M260.212,55.203
			c-3.009,0-5.457,2.448-5.457,5.458v271.432c0,3.01,2.448,5.458,5.457,5.458H453.31c3.01,0,5.458-2.448,5.458-5.458V60.66
			c0-3.009-2.448-5.458-5.458-5.458H260.212z"/>
		<rect y="382.398" style="fill:#EBEBEB;" width="500" height="0.25"/>
	</g>
	<g>
		<path style="fill:#F0F0F0;" d="M108.089,382.648h-66.38l-0.709-4.014c-0.673-3.808,2.256-7.301,6.124-7.301h55.552
			c3.867,0,6.797,3.493,6.124,7.301L108.089,382.648z"/>
		<path style="fill:#EBEBEB;" d="M243.522,382.648h-66.381l-0.809-4.579c-0.621-3.514,2.082-6.736,5.65-6.736h56.7
			c3.568,0,6.271,3.222,5.65,6.736L243.522,382.648z"/>
		<path style="fill:#F5F5F5;" d="M297.379,382.648h-56.603l-0.742-4.197c-0.503-2.844,1.685-5.452,4.573-5.452h48.941
			c2.888,0,5.076,2.608,4.573,5.452L297.379,382.648z"/>
		<path style="fill:#E6E6E6;" d="M360.549,382.648h-66.381l-0.809-4.579c-0.621-3.514,2.082-6.736,5.65-6.736h56.7
			c3.568,0,6.271,3.222,5.65,6.736L360.549,382.648z"/>
		<path style="fill:#F5F5F5;" d="M414.406,382.648h-56.603l-0.742-4.197c-0.503-2.844,1.685-5.452,4.573-5.452h48.941
			c2.888,0,5.076,2.608,4.573,5.452L414.406,382.648z"/>
		<path style="fill:#EBEBEB;" d="M458.284,382.648h-56.603l-0.742-4.197c-0.503-2.844,1.685-5.452,4.573-5.452h48.941
			c2.888,0,5.076,2.608,4.573,5.452L458.284,382.648z"/>
		<path style="fill:#F5F5F5;" d="M177.206,382.648h-72.004l-1.017-5.754c-0.601-3.401,2.015-6.52,5.468-6.52h63.102
			c3.453,0,6.069,3.119,5.468,6.52L177.206,382.648z"/>
	</g>
	<g>
		<g>
			<g>
				<rect x="71.451" y="329.063" style="fill:#F0F0F0;" width="199.767" height="46.167"/>
				<path style="fill:#E0E0E0;" d="M271.976,373.363H70.693c-1.738,0-3.147,1.409-3.147,3.147l0,0c0,1.738,1.409,3.147,3.147,3.147
					h201.283c1.738,0,3.147-1.409,3.147-3.147l0,0C275.123,374.772,273.714,373.363,271.976,373.363z"/>
				<g>
					<g>
						<path style="fill:#FAFAFA;" d="M90.579,345.628h10.826c-0.315-6.011-4.924-10.877-10.826-11.577V345.628z"/>
						<rect x="90.579" y="348.556" style="fill:#FAFAFA;" width="10.858" height="10.208"/>
						<rect x="76.793" y="348.556" style="fill:#FAFAFA;" width="10.858" height="10.208"/>
						<rect x="90.579" y="361.692" style="fill:#FAFAFA;" width="10.858" height="11.672"/>
						<path style="fill:#FAFAFA;" d="M87.651,345.628v-11.577c-5.901,0.7-10.511,5.566-10.825,11.577H87.651z"/>
						<rect x="76.793" y="361.692" style="fill:#FAFAFA;" width="10.858" height="11.672"/>
					</g>
					<g>
						<path style="fill:#FAFAFA;" d="M145.392,345.628h10.825c-0.314-6.011-4.924-10.877-10.825-11.577V345.628z"/>
						<rect x="145.392" y="348.556" style="fill:#FAFAFA;" width="10.858" height="10.208"/>
						<rect x="131.606" y="348.556" style="fill:#FAFAFA;" width="10.858" height="10.208"/>
						<rect x="145.392" y="361.692" style="fill:#FAFAFA;" width="10.858" height="11.672"/>
						<path style="fill:#FAFAFA;" d="M142.464,345.628v-11.577c-5.901,0.7-10.511,5.566-10.825,11.577H142.464z"/>
						<rect x="131.606" y="361.692" style="fill:#FAFAFA;" width="10.858" height="11.672"/>
					</g>
					<g>
						<path style="fill:#FAFAFA;" d="M200.205,345.628h10.826c-0.315-6.011-4.924-10.877-10.826-11.577V345.628z"/>
						<rect x="200.205" y="348.556" style="fill:#FAFAFA;" width="10.858" height="10.208"/>
						<rect x="186.419" y="348.556" style="fill:#FAFAFA;" width="10.858" height="10.208"/>
						<rect x="200.205" y="361.692" style="fill:#FAFAFA;" width="10.858" height="11.672"/>
						<path style="fill:#FAFAFA;" d="M197.277,345.628v-11.577c-5.901,0.7-10.511,5.566-10.825,11.577H197.277z"/>
						<rect x="186.419" y="361.692" style="fill:#FAFAFA;" width="10.858" height="11.672"/>
					</g>
					<g>
						<path style="fill:#FAFAFA;" d="M255.018,345.628h10.826c-0.315-6.011-4.924-10.877-10.826-11.577V345.628z"/>
						<rect x="255.018" y="348.556" style="fill:#FAFAFA;" width="10.858" height="10.208"/>
						<rect x="241.232" y="348.556" style="fill:#FAFAFA;" width="10.858" height="10.208"/>
						<rect x="255.018" y="361.692" style="fill:#FAFAFA;" width="10.858" height="11.672"/>
						<path style="fill:#FAFAFA;" d="M252.09,345.628v-11.577c-5.901,0.7-10.511,5.566-10.826,11.577H252.09z"/>
						<rect x="241.232" y="361.692" style="fill:#FAFAFA;" width="10.858" height="11.672"/>
					</g>
				</g>
				<g>
					<rect x="109.409" y="329.063" style="fill:#EBEBEB;" width="15.373" height="7.299"/>
					<rect x="109.409" y="338.314" style="fill:#EBEBEB;" width="15.373" height="7.299"/>
					<rect x="109.409" y="347.564" style="fill:#EBEBEB;" width="15.373" height="7.299"/>
					<rect x="109.409" y="356.814" style="fill:#EBEBEB;" width="15.373" height="7.299"/>
					<rect x="109.409" y="366.065" style="fill:#EBEBEB;" width="15.373" height="7.299"/>
				</g>
				<g>
					<rect x="163.649" y="329.063" style="fill:#EBEBEB;" width="15.373" height="7.299"/>
					<rect x="163.649" y="338.314" style="fill:#EBEBEB;" width="15.373" height="7.299"/>
					<rect x="163.649" y="347.564" style="fill:#EBEBEB;" width="15.373" height="7.299"/>
					<rect x="163.649" y="356.814" style="fill:#EBEBEB;" width="15.373" height="7.299"/>
					<rect x="163.649" y="366.065" style="fill:#EBEBEB;" width="15.373" height="7.299"/>
				</g>
				<g>
					<rect x="218.795" y="329.063" style="fill:#EBEBEB;" width="15.373" height="7.299"/>
					<rect x="218.795" y="338.314" style="fill:#EBEBEB;" width="15.373" height="7.299"/>
					<rect x="218.795" y="347.564" style="fill:#EBEBEB;" width="15.373" height="7.299"/>
					<rect x="218.795" y="356.814" style="fill:#EBEBEB;" width="15.373" height="7.299"/>
					<rect x="218.795" y="366.065" style="fill:#EBEBEB;" width="15.373" height="7.299"/>
				</g>
				<rect x="71.451" y="280.651" style="fill:#F0F0F0;" width="199.767" height="46.167"/>
				<path style="fill:#E0E0E0;" d="M271.976,324.951H70.693c-1.738,0-3.147,1.409-3.147,3.147l0,0c0,1.738,1.409,3.147,3.147,3.147
					h201.283c1.738,0,3.147-1.409,3.147-3.147l0,0C275.123,326.359,273.714,324.951,271.976,324.951z"/>
				<g>
					<g>
						<path style="fill:#FAFAFA;" d="M90.579,297.215h10.826c-0.315-6.011-4.924-10.877-10.826-11.577V297.215z"/>
						<rect x="90.579" y="300.143" style="fill:#FAFAFA;" width="10.858" height="10.208"/>
						<rect x="76.793" y="300.143" style="fill:#FAFAFA;" width="10.858" height="10.208"/>
						<rect x="90.579" y="313.279" style="fill:#FAFAFA;" width="10.858" height="11.671"/>
						<path style="fill:#FAFAFA;" d="M87.651,297.215v-11.577c-5.901,0.7-10.511,5.566-10.825,11.577H87.651z"/>
						<rect x="76.793" y="313.279" style="fill:#FAFAFA;" width="10.858" height="11.671"/>
					</g>
					<g>
						<path style="fill:#FAFAFA;" d="M145.392,297.215h10.825c-0.314-6.011-4.924-10.877-10.825-11.577V297.215z"/>
						<rect x="145.392" y="300.143" style="fill:#FAFAFA;" width="10.858" height="10.208"/>
						<rect x="131.606" y="300.143" style="fill:#FAFAFA;" width="10.858" height="10.208"/>
						<rect x="145.392" y="313.279" style="fill:#FAFAFA;" width="10.858" height="11.671"/>
						<path style="fill:#FAFAFA;" d="M142.464,297.215v-11.577c-5.901,0.7-10.511,5.566-10.825,11.577H142.464z"/>
						<rect x="131.606" y="313.279" style="fill:#FAFAFA;" width="10.858" height="11.671"/>
					</g>
					<g>
						<path style="fill:#FAFAFA;" d="M200.205,297.215h10.826c-0.315-6.011-4.924-10.877-10.826-11.577V297.215z"/>
						<rect x="200.205" y="300.143" style="fill:#FAFAFA;" width="10.858" height="10.208"/>
						<rect x="186.419" y="300.143" style="fill:#FAFAFA;" width="10.858" height="10.208"/>
						<rect x="200.205" y="313.279" style="fill:#FAFAFA;" width="10.858" height="11.671"/>
						<path style="fill:#FAFAFA;" d="M197.277,297.215v-11.577c-5.901,0.7-10.511,5.566-10.825,11.577H197.277z"/>
						<rect x="186.419" y="313.279" style="fill:#FAFAFA;" width="10.858" height="11.671"/>
					</g>
					<g>
						<path style="fill:#FAFAFA;" d="M255.018,297.215h10.826c-0.315-6.011-4.924-10.877-10.826-11.577V297.215z"/>
						<rect x="255.018" y="300.143" style="fill:#FAFAFA;" width="10.858" height="10.208"/>
						<rect x="241.232" y="300.143" style="fill:#FAFAFA;" width="10.858" height="10.208"/>
						<rect x="255.018" y="313.279" style="fill:#FAFAFA;" width="10.858" height="11.671"/>
						<path style="fill:#FAFAFA;" d="M252.09,297.215v-11.577c-5.901,0.7-10.511,5.566-10.826,11.577H252.09z"/>
						<rect x="241.232" y="313.279" style="fill:#FAFAFA;" width="10.858" height="11.671"/>
					</g>
				</g>
				<g>
					<rect x="109.409" y="280.651" style="fill:#EBEBEB;" width="15.373" height="7.299"/>
					<rect x="109.409" y="289.901" style="fill:#EBEBEB;" width="15.373" height="7.299"/>
					<rect x="109.409" y="299.151" style="fill:#EBEBEB;" width="15.373" height="7.299"/>
					<rect x="109.409" y="308.402" style="fill:#EBEBEB;" width="15.373" height="7.299"/>
					<rect x="109.409" y="317.652" style="fill:#EBEBEB;" width="15.373" height="7.299"/>
				</g>
				<g>
					<rect x="163.649" y="280.651" style="fill:#EBEBEB;" width="15.373" height="7.299"/>
					<rect x="163.649" y="289.901" style="fill:#EBEBEB;" width="15.373" height="7.299"/>
					<rect x="163.649" y="299.151" style="fill:#EBEBEB;" width="15.373" height="7.299"/>
					<rect x="163.649" y="308.402" style="fill:#EBEBEB;" width="15.373" height="7.299"/>
					<rect x="163.649" y="317.652" style="fill:#EBEBEB;" width="15.373" height="7.299"/>
				</g>
				<g>
					<rect x="218.795" y="280.651" style="fill:#EBEBEB;" width="15.373" height="7.299"/>
					<rect x="218.795" y="289.901" style="fill:#EBEBEB;" width="15.373" height="7.299"/>
					<rect x="218.795" y="299.151" style="fill:#EBEBEB;" width="15.373" height="7.299"/>
					<rect x="218.795" y="308.402" style="fill:#EBEBEB;" width="15.373" height="7.299"/>
					<rect x="218.795" y="317.652" style="fill:#EBEBEB;" width="15.373" height="7.299"/>
				</g>
				<rect x="71.451" y="232.238" style="fill:#F0F0F0;" width="199.767" height="46.167"/>
				<path style="fill:#E0E0E0;" d="M271.976,276.538H70.693c-1.738,0-3.147,1.409-3.147,3.147l0,0c0,1.738,1.409,3.147,3.147,3.147
					h201.283c1.738,0,3.147-1.409,3.147-3.147l0,0C275.123,277.947,273.714,276.538,271.976,276.538z"/>
				<g>
					<g>
						<path style="fill:#FAFAFA;" d="M90.579,248.803h10.826c-0.315-6.011-4.924-10.877-10.826-11.577V248.803z"/>
						<rect x="90.579" y="251.731" style="fill:#FAFAFA;" width="10.858" height="10.208"/>
						<rect x="76.793" y="251.731" style="fill:#FAFAFA;" width="10.858" height="10.208"/>
						<rect x="90.579" y="264.867" style="fill:#FAFAFA;" width="10.858" height="11.671"/>
						<path style="fill:#FAFAFA;" d="M87.651,248.803v-11.577c-5.901,0.7-10.511,5.566-10.825,11.577H87.651z"/>
						<rect x="76.793" y="264.867" style="fill:#FAFAFA;" width="10.858" height="11.671"/>
					</g>
					<g>
						<path style="fill:#FAFAFA;" d="M145.392,248.803h10.825c-0.314-6.011-4.924-10.877-10.825-11.577V248.803z"/>
						<rect x="145.392" y="251.731" style="fill:#FAFAFA;" width="10.858" height="10.208"/>
						<rect x="131.606" y="251.731" style="fill:#FAFAFA;" width="10.858" height="10.208"/>
						<rect x="145.392" y="264.867" style="fill:#FAFAFA;" width="10.858" height="11.671"/>
						<path style="fill:#FAFAFA;" d="M142.464,248.803v-11.577c-5.901,0.7-10.511,5.566-10.825,11.577H142.464z"/>
						<rect x="131.606" y="264.867" style="fill:#FAFAFA;" width="10.858" height="11.671"/>
					</g>
					<g>
						<path style="fill:#FAFAFA;" d="M200.205,248.803h10.826c-0.315-6.011-4.924-10.877-10.826-11.577V248.803z"/>
						<rect x="200.205" y="251.731" style="fill:#FAFAFA;" width="10.858" height="10.208"/>
						<rect x="186.419" y="251.731" style="fill:#FAFAFA;" width="10.858" height="10.208"/>
						<rect x="200.205" y="264.867" style="fill:#FAFAFA;" width="10.858" height="11.671"/>
						<path style="fill:#FAFAFA;" d="M197.277,248.803v-11.577c-5.901,0.7-10.511,5.566-10.825,11.577H197.277z"/>
						<rect x="186.419" y="264.867" style="fill:#FAFAFA;" width="10.858" height="11.671"/>
					</g>
					<g>
						<path style="fill:#FAFAFA;" d="M255.018,248.803h10.826c-0.315-6.011-4.924-10.877-10.826-11.577V248.803z"/>
						<rect x="255.018" y="251.731" style="fill:#FAFAFA;" width="10.858" height="10.208"/>
						<rect x="241.232" y="251.731" style="fill:#FAFAFA;" width="10.858" height="10.208"/>
						<rect x="255.018" y="264.867" style="fill:#FAFAFA;" width="10.858" height="11.671"/>
						<path style="fill:#FAFAFA;" d="M252.09,248.803v-11.577c-5.901,0.7-10.511,5.566-10.826,11.577H252.09z"/>
						<rect x="241.232" y="264.867" style="fill:#FAFAFA;" width="10.858" height="11.671"/>
					</g>
				</g>
				<g>
					<rect x="109.409" y="232.238" style="fill:#EBEBEB;" width="15.373" height="7.299"/>
					<rect x="109.409" y="241.488" style="fill:#EBEBEB;" width="15.373" height="7.299"/>
					<rect x="109.409" y="250.739" style="fill:#EBEBEB;" width="15.373" height="7.299"/>
					<rect x="109.409" y="259.989" style="fill:#EBEBEB;" width="15.373" height="7.299"/>
					<rect x="109.409" y="269.239" style="fill:#EBEBEB;" width="15.373" height="7.299"/>
				</g>
				<g>
					<rect x="163.649" y="232.238" style="fill:#EBEBEB;" width="15.373" height="7.299"/>
					<rect x="163.649" y="241.488" style="fill:#EBEBEB;" width="15.373" height="7.299"/>
					<rect x="163.649" y="250.739" style="fill:#EBEBEB;" width="15.373" height="7.299"/>
					<rect x="163.649" y="259.989" style="fill:#EBEBEB;" width="15.373" height="7.299"/>
					<rect x="163.649" y="269.239" style="fill:#EBEBEB;" width="15.373" height="7.299"/>
				</g>
				<g>
					<rect x="218.795" y="232.238" style="fill:#EBEBEB;" width="15.373" height="7.299"/>
					<rect x="218.795" y="241.488" style="fill:#EBEBEB;" width="15.373" height="7.299"/>
					<rect x="218.795" y="250.739" style="fill:#EBEBEB;" width="15.373" height="7.299"/>
					<rect x="218.795" y="259.989" style="fill:#EBEBEB;" width="15.373" height="7.299"/>
					<rect x="218.795" y="269.239" style="fill:#EBEBEB;" width="15.373" height="7.299"/>
				</g>
				<rect x="71.451" y="183.825" style="fill:#F0F0F0;" width="199.767" height="46.167"/>
				<path style="fill:#E0E0E0;" d="M271.976,228.126H70.693c-1.738,0-3.147,1.409-3.147,3.147l0,0c0,1.738,1.409,3.147,3.147,3.147
					h201.283c1.738,0,3.147-1.409,3.147-3.147l0,0C275.123,229.534,273.714,228.126,271.976,228.126z"/>
				<g>
					<g>
						<path style="fill:#FAFAFA;" d="M90.579,200.39h10.826c-0.315-6.011-4.924-10.877-10.826-11.577V200.39z"/>
						<rect x="90.579" y="203.318" style="fill:#FAFAFA;" width="10.858" height="10.208"/>
						<rect x="76.793" y="203.318" style="fill:#FAFAFA;" width="10.858" height="10.208"/>
						<rect x="90.579" y="216.454" style="fill:#FAFAFA;" width="10.858" height="11.672"/>
						<path style="fill:#FAFAFA;" d="M87.651,200.39v-11.577c-5.901,0.7-10.511,5.566-10.825,11.577H87.651z"/>
						<rect x="76.793" y="216.454" style="fill:#FAFAFA;" width="10.858" height="11.672"/>
					</g>
					<g>
						<path style="fill:#FAFAFA;" d="M145.392,200.39h10.825c-0.314-6.011-4.924-10.877-10.825-11.577V200.39z"/>
						<rect x="145.392" y="203.318" style="fill:#FAFAFA;" width="10.858" height="10.208"/>
						<rect x="131.606" y="203.318" style="fill:#FAFAFA;" width="10.858" height="10.208"/>
						<rect x="145.392" y="216.454" style="fill:#FAFAFA;" width="10.858" height="11.672"/>
						<path style="fill:#FAFAFA;" d="M142.464,200.39v-11.577c-5.901,0.7-10.511,5.566-10.825,11.577H142.464z"/>
						<rect x="131.606" y="216.454" style="fill:#FAFAFA;" width="10.858" height="11.672"/>
					</g>
					<g>
						<path style="fill:#FAFAFA;" d="M200.205,200.39h10.826c-0.315-6.011-4.924-10.877-10.826-11.577V200.39z"/>
						<rect x="200.205" y="203.318" style="fill:#FAFAFA;" width="10.858" height="10.208"/>
						<rect x="186.419" y="203.318" style="fill:#FAFAFA;" width="10.858" height="10.208"/>
						<rect x="200.205" y="216.454" style="fill:#FAFAFA;" width="10.858" height="11.672"/>
						<path style="fill:#FAFAFA;" d="M197.277,200.39v-11.577c-5.901,0.7-10.511,5.566-10.825,11.577H197.277z"/>
						<rect x="186.419" y="216.454" style="fill:#FAFAFA;" width="10.858" height="11.672"/>
					</g>
					<g>
						<path style="fill:#FAFAFA;" d="M255.018,200.39h10.826c-0.315-6.011-4.924-10.877-10.826-11.577V200.39z"/>
						<rect x="255.018" y="203.318" style="fill:#FAFAFA;" width="10.858" height="10.208"/>
						<rect x="241.232" y="203.318" style="fill:#FAFAFA;" width="10.858" height="10.208"/>
						<rect x="255.018" y="216.454" style="fill:#FAFAFA;" width="10.858" height="11.672"/>
						<path style="fill:#FAFAFA;" d="M252.09,200.39v-11.577c-5.901,0.7-10.511,5.566-10.826,11.577H252.09z"/>
						<rect x="241.232" y="216.454" style="fill:#FAFAFA;" width="10.858" height="11.672"/>
					</g>
				</g>
				<g>
					<rect x="109.409" y="183.825" style="fill:#EBEBEB;" width="15.373" height="7.299"/>
					<rect x="109.409" y="193.076" style="fill:#EBEBEB;" width="15.373" height="7.299"/>
					<rect x="109.409" y="202.326" style="fill:#EBEBEB;" width="15.373" height="7.299"/>
					<rect x="109.409" y="211.576" style="fill:#EBEBEB;" width="15.373" height="7.299"/>
					<rect x="109.409" y="220.827" style="fill:#EBEBEB;" width="15.373" height="7.299"/>
				</g>
				<g>
					<rect x="163.649" y="183.825" style="fill:#EBEBEB;" width="15.373" height="7.299"/>
					<rect x="163.649" y="193.076" style="fill:#EBEBEB;" width="15.373" height="7.299"/>
					<rect x="163.649" y="202.326" style="fill:#EBEBEB;" width="15.373" height="7.299"/>
					<rect x="163.649" y="211.576" style="fill:#EBEBEB;" width="15.373" height="7.299"/>
					<rect x="163.649" y="220.827" style="fill:#EBEBEB;" width="15.373" height="7.299"/>
				</g>
				<g>
					<rect x="218.795" y="183.825" style="fill:#EBEBEB;" width="15.373" height="7.299"/>
					<rect x="218.795" y="193.076" style="fill:#EBEBEB;" width="15.373" height="7.299"/>
					<rect x="218.795" y="202.326" style="fill:#EBEBEB;" width="15.373" height="7.299"/>
					<rect x="218.795" y="211.576" style="fill:#EBEBEB;" width="15.373" height="7.299"/>
					<rect x="218.795" y="220.827" style="fill:#EBEBEB;" width="15.373" height="7.299"/>
				</g>
				<rect x="71.451" y="135.413" style="fill:#F0F0F0;" width="199.767" height="46.167"/>
				<path style="fill:#E0E0E0;" d="M271.976,179.713H70.693c-1.738,0-3.147,1.409-3.147,3.147l0,0c0,1.738,1.409,3.147,3.147,3.147
					h201.283c1.738,0,3.147-1.409,3.147-3.147l0,0C275.123,181.122,273.714,179.713,271.976,179.713z"/>
				<g>
					<g>
						<path style="fill:#FAFAFA;" d="M90.579,151.977h10.826c-0.315-6.011-4.924-10.877-10.826-11.577V151.977z"/>
						<rect x="90.579" y="154.906" style="fill:#FAFAFA;" width="10.858" height="10.208"/>
						<rect x="76.793" y="154.906" style="fill:#FAFAFA;" width="10.858" height="10.208"/>
						<rect x="90.579" y="168.041" style="fill:#FAFAFA;" width="10.858" height="11.672"/>
						<path style="fill:#FAFAFA;" d="M87.651,151.977V140.4c-5.901,0.7-10.511,5.566-10.825,11.577H87.651z"/>
						<rect x="76.793" y="168.041" style="fill:#FAFAFA;" width="10.858" height="11.672"/>
					</g>
					<g>
						<path style="fill:#FAFAFA;" d="M145.392,151.977h10.825c-0.314-6.011-4.924-10.877-10.825-11.577V151.977z"/>
						<rect x="145.392" y="154.906" style="fill:#FAFAFA;" width="10.858" height="10.208"/>
						<rect x="131.606" y="154.906" style="fill:#FAFAFA;" width="10.858" height="10.208"/>
						<rect x="145.392" y="168.041" style="fill:#FAFAFA;" width="10.858" height="11.672"/>
						<path style="fill:#FAFAFA;" d="M142.464,151.977V140.4c-5.901,0.7-10.511,5.566-10.825,11.577H142.464z"/>
						<rect x="131.606" y="168.041" style="fill:#FAFAFA;" width="10.858" height="11.672"/>
					</g>
					<g>
						<path style="fill:#FAFAFA;" d="M200.205,151.977h10.826c-0.315-6.011-4.924-10.877-10.826-11.577V151.977z"/>
						<rect x="200.205" y="154.906" style="fill:#FAFAFA;" width="10.858" height="10.208"/>
						<rect x="186.419" y="154.906" style="fill:#FAFAFA;" width="10.858" height="10.208"/>
						<rect x="200.205" y="168.041" style="fill:#FAFAFA;" width="10.858" height="11.672"/>
						<path style="fill:#FAFAFA;" d="M197.277,151.977V140.4c-5.901,0.7-10.511,5.566-10.825,11.577H197.277z"/>
						<rect x="186.419" y="168.041" style="fill:#FAFAFA;" width="10.858" height="11.672"/>
					</g>
					<g>
						<path style="fill:#FAFAFA;" d="M255.018,151.977h10.826c-0.315-6.011-4.924-10.877-10.826-11.577V151.977z"/>
						<rect x="255.018" y="154.906" style="fill:#FAFAFA;" width="10.858" height="10.208"/>
						<rect x="241.232" y="154.906" style="fill:#FAFAFA;" width="10.858" height="10.208"/>
						<rect x="255.018" y="168.041" style="fill:#FAFAFA;" width="10.858" height="11.672"/>
						<path style="fill:#FAFAFA;" d="M252.09,151.977V140.4c-5.901,0.7-10.511,5.566-10.826,11.577H252.09z"/>
						<rect x="241.232" y="168.041" style="fill:#FAFAFA;" width="10.858" height="11.672"/>
					</g>
				</g>
				<g>
					<rect x="109.409" y="135.413" style="fill:#EBEBEB;" width="15.373" height="7.299"/>
					<rect x="109.409" y="144.663" style="fill:#EBEBEB;" width="15.373" height="7.299"/>
					<rect x="109.409" y="153.913" style="fill:#EBEBEB;" width="15.373" height="7.299"/>
					<rect x="109.409" y="163.164" style="fill:#EBEBEB;" width="15.373" height="7.299"/>
					<rect x="109.409" y="172.414" style="fill:#EBEBEB;" width="15.373" height="7.299"/>
				</g>
				<g>
					<rect x="163.649" y="135.413" style="fill:#EBEBEB;" width="15.373" height="7.299"/>
					<rect x="163.649" y="144.663" style="fill:#EBEBEB;" width="15.373" height="7.299"/>
					<rect x="163.649" y="153.913" style="fill:#EBEBEB;" width="15.373" height="7.299"/>
					<rect x="163.649" y="163.164" style="fill:#EBEBEB;" width="15.373" height="7.299"/>
					<rect x="163.649" y="172.414" style="fill:#EBEBEB;" width="15.373" height="7.299"/>
				</g>
				<g>
					<rect x="218.795" y="135.413" style="fill:#EBEBEB;" width="15.373" height="7.299"/>
					<rect x="218.795" y="144.663" style="fill:#EBEBEB;" width="15.373" height="7.299"/>
					<rect x="218.795" y="153.913" style="fill:#EBEBEB;" width="15.373" height="7.299"/>
					<rect x="218.795" y="163.164" style="fill:#EBEBEB;" width="15.373" height="7.299"/>
					<rect x="218.795" y="172.414" style="fill:#EBEBEB;" width="15.373" height="7.299"/>
				</g>
				<polygon style="fill:#E0E0E0;" points="275.123,138.681 67.547,138.681 70.475,118.208 272.195,118.208 				"/>
			</g>
			<polygon style="fill:#E0E0E0;" points="272.195,118.208 69.881,118.208 74.158,89.099 267.917,89.099 			"/>
			<g>
				<g>
					
						<rect x="167.217" y="98.268" transform="matrix(6.123234e-17 -1 1 6.123234e-17 59.6323 286.3448)" style="fill:#FFFFFF;" width="11.542" height="30.177"/>
				</g>
				<g>
					
						<rect x="167.217" y="98.268" transform="matrix(-1 -1.224647e-16 1.224647e-16 -1 345.9771 226.7125)" style="fill:#FFFFFF;" width="11.542" height="30.177"/>
				</g>
			</g>
		</g>
		<g>
			<path style="fill:#F5F5F5;" d="M363.906,209.276c-20.052-0.325-41.451-3.232-39.477-4.563c5.71-3.84,9.41-0.11,14.99-4.38
				c1.421-1.085,2.802-1.398,4.129-1.33c3.406,0.174,6.822-0.843,9.158-3.327c0.474-0.504,1.023-0.984,1.653-1.433
				c7.3-5.196,17.085-1.869,19.08,0c0.126,0.118,0.249,0.235,0.37,0.352c2.947,2.859,6.901,4.253,11.004,4.403
				c0.038,0.001,0.077,0.003,0.115,0.005c1.888,0.104,3.005,2.182,2.144,3.865C387.071,202.869,385.044,209.619,363.906,209.276z"/>
		</g>
		<g>
			<path style="fill:#F5F5F5;" d="M429.301,179.364c-20.052-0.325-41.451-3.232-39.477-4.563c5.71-3.84,9.41-0.11,14.99-4.38
				c1.421-1.085,2.802-1.398,4.128-1.33c3.406,0.174,6.822-0.843,9.158-3.327c0.474-0.504,1.023-0.984,1.653-1.433
				c7.3-5.196,17.085-1.869,19.08,0c0.126,0.118,0.249,0.235,0.37,0.352c2.947,2.859,6.901,4.253,11.004,4.403
				c0.038,0.001,0.077,0.003,0.115,0.005c1.888,0.104,3.005,2.182,2.144,3.866C452.467,172.957,450.44,179.707,429.301,179.364z"/>
		</g>
		<path style="fill:#F5F5F5;" d="M415.212,131.893c-16.454-10.455-9.64-24.257-32.779-24.308
			c-23.652-0.052-15.397,18.799-31.434,19.616c-16.037,0.817-13.078-7.356-26.992,4.904c-13.915,12.26-11.52,0.817-22.992,6.539
			C289.543,144.365,442.412,149.177,415.212,131.893z"/>
	</g>
</g>
<g id="Background_Simple" style="display:none;">
	<g style="display:inline;">
		<path style="fill:#407BFF;" d="M375.554,256.429c-9.537,30.074,1.521,71.33-38.352,92.171
			c-53.251,27.833-74.674-24.246-113.063-29.728c-29.324-4.187-92.026,58.607-124.047,27.19
			c-32.053-31.448,40.711-87.987,48.155-117.508c7.365-29.208-37.264-73.329,10.76-109.077
			c47.092-35.055,84.885,16.875,122.73,22.95c33.574,5.39,126.917-50,144.721-8.556C443.324,173.13,384.762,227.396,375.554,256.429
			z"/>
		<path style="opacity:0.9;fill:#FFFFFF;" d="M375.554,256.429c-9.537,30.074,1.521,71.33-38.352,92.171
			c-53.251,27.833-74.674-24.246-113.063-29.728c-29.324-4.187-92.026,58.607-124.047,27.19
			c-32.053-31.448,40.711-87.987,48.155-117.508c7.365-29.208-37.264-73.329,10.76-109.077
			c47.092-35.055,84.885,16.875,122.73,22.95c33.574,5.39,126.917-50,144.721-8.556C443.324,173.13,384.762,227.396,375.554,256.429
			z"/>
	</g>
</g>
<g id="Shadow">
	<ellipse id="_x3C_Path_x3E__1_" style="fill:#F5F5F5;" cx="253.006" cy="411.104" rx="196.895" ry="12.61"/>
</g>
<g id="Ambulance">
	<g>
		<g>
			<g>
				<ellipse style="opacity:0.1;fill:#407BFF;enable-background:new    ;" cx="160.291" cy="255.321" rx="56.772" ry="37.996"/>
				<ellipse style="opacity:0.1;fill:#407BFF;enable-background:new    ;" cx="160.291" cy="255.321" rx="38.621" ry="25.848"/>
			</g>
		</g>
		<g>
			<g>
				<ellipse style="opacity:0.1;fill:#407BFF;enable-background:new    ;" cx="393.309" cy="237.225" rx="56.772" ry="37.996"/>
				<ellipse style="opacity:0.1;fill:#407BFF;enable-background:new    ;" cx="393.309" cy="237.225" rx="38.621" ry="25.848"/>
			</g>
		</g>
	</g>
	<g>
		<g>
			<rect x="149.472" y="268.957" style="fill:#263238;" width="10.82" height="1.453"/>
		</g>
		<g>
			<path style="fill:#407BFF;" d="M149.604,254.228c0.309,0,0.607,0.032,0.894,0.085h0.011c0.117-0.053,0.234-0.074,0.362-0.074
				h84.887c2.746,0,4.971,2.225,4.971,4.971v3.832c0,2.746-2.225,4.981-4.971,4.981h-84.887c-0.138,0-0.266-0.032-0.383-0.085
				c-0.287,0.053-0.586,0.085-0.884,0.085h-8.441c-2.682,0-4.843-2.171-4.843-4.854v-4.098c0-2.672,2.161-4.843,4.843-4.843H149.604
				 M149.604,253.164h-8.441c-3.257,0-5.907,2.65-5.907,5.908v4.098c0,3.263,2.65,5.918,5.907,5.918h8.441
				c0.258,0,0.525-0.019,0.796-0.057c0.154,0.038,0.311,0.057,0.47,0.057h84.887c3.328,0,6.035-2.712,6.035-6.046v-3.832
				c0-3.328-2.707-6.035-6.035-6.035h-84.887c-0.155,0-0.302,0.016-0.445,0.049C150.148,253.184,149.876,253.164,149.604,253.164
				L149.604,253.164z"/>
			<g>
				<path style="opacity:0.4;fill:#407BFF;" d="M240.638,259.204v3.832c0,2.746-2.224,4.981-4.971,4.981h-84.887
					c-0.521,0-0.947-0.426-0.947-0.947v-11.9c0-0.521,0.426-0.937,0.947-0.937h84.887
					C238.414,254.234,240.638,256.458,240.638,259.204z"/>
				<path style="opacity:0.6;fill:#FFFFFF;" d="M240.857,259.074v4.099c0,2.676-2.169,4.845-4.844,4.845h-8.44
					c-2.675,0-4.844-2.169-4.844-4.845v-4.099c0-2.676,2.169-4.845,4.844-4.845h8.44
					C238.689,254.229,240.857,256.398,240.857,259.074z"/>
				<g>
					<g style="opacity:0.6;">
						<g>
							<path style="fill:#407BFF;" d="M240.852,259.077v4.098c0,2.565-2.001,4.673-4.524,4.832c-2.533-0.16-4.534-2.267-4.534-4.832
								v-4.098c0-2.576,2.001-4.673,4.534-4.832C238.851,254.404,240.852,256.501,240.852,259.077z"/>
						</g>
					</g>
				</g>
				<g style="opacity:0.4;">
					<g style="opacity:0.6;">
						<g>
							<path style="fill:#407BFF;" d="M240.852,259.077v4.098c0,2.565-2.001,4.673-4.524,4.832c-2.533-0.16-4.534-2.267-4.534-4.832
								v-4.098c0-2.576,2.001-4.673,4.534-4.832C238.851,254.404,240.852,256.501,240.852,259.077z"/>
						</g>
					</g>
				</g>
				<g>
					<g>
						<g style="opacity:0.6;">
							<path style="fill:#FFFFFF;" d="M163.411,259.077v4.098c0,2.672-2.161,4.843-4.843,4.843h-8.43c-0.107,0-0.202,0-0.309-0.011
								c2.522-0.16,4.524-2.267,4.524-4.832v-4.098c0-2.576-2.001-4.673-4.524-4.832c0.106-0.011,0.202-0.011,0.309-0.011h8.43
								C161.25,254.234,163.411,256.395,163.411,259.077z"/>
						</g>
						<g>
							<g>
								<path style="fill:#407BFF;" d="M154.353,259.077v4.098c0,2.565-2.001,4.673-4.524,4.832
									c-2.534-0.16-4.534-2.267-4.534-4.832v-4.098c0-2.576,2.001-4.673,4.534-4.832
									C152.351,254.404,154.353,256.501,154.353,259.077z"/>
							</g>
							<g style="opacity:0.3;">
								<path style="fill:#FFFFFF;" d="M154.353,259.077v4.098c0,2.565-2.001,4.673-4.524,4.832
									c-2.534-0.16-4.534-2.267-4.534-4.832v-4.098c0-2.576,2.001-4.673,4.534-4.832
									C152.351,254.404,154.353,256.501,154.353,259.077z"/>
							</g>
						</g>
					</g>
					<path style="fill:#407BFF;" d="M154.353,259.074v4.099c0,2.676-2.169,4.845-4.844,4.845h-8.44
						c-2.675,0-4.844-2.169-4.844-4.845v-4.099c0-2.676,2.169-4.845,4.844-4.845h8.44
						C152.184,254.229,154.353,256.398,154.353,259.074z"/>
					<g style="opacity:0.4;">
						<path style="fill:#FFFFFF;" d="M154.353,259.074v4.099c0,2.676-2.169,4.845-4.844,4.845h-8.44
							c-2.675,0-4.844-2.169-4.844-4.845v-4.099c0-2.676,2.169-4.845,4.844-4.845h8.44
							C152.184,254.229,154.353,256.398,154.353,259.074z"/>
					</g>
				</g>
				<g>
					<g>
						<path style="fill:#407BFF;" d="M186.173,259.077v4.098c0,2.672-2.161,4.843-4.843,4.843h-8.43c-0.107,0-0.202,0-0.309-0.011
							c2.523-0.16,4.524-2.267,4.524-4.832v-4.098c0-2.576-2.001-4.673-4.524-4.832c0.107-0.011,0.202-0.011,0.309-0.011h8.43
							C184.012,254.234,186.173,256.395,186.173,259.077z"/>
					</g>
					<g style="opacity:0.5;">
						<path style="fill:#FFFFFF;" d="M200.327,259.077v4.098c0,2.672-2.161,4.843-4.843,4.843h-8.43c-0.107,0-0.202,0-0.309-0.011
							c2.523-0.16,4.524-2.267,4.524-4.832v-4.098c0-2.576-2.001-4.673-4.524-4.832c0.107-0.011,0.202-0.011,0.309-0.011h8.43
							C198.166,254.234,200.327,256.395,200.327,259.077z"/>
					</g>
					<g>
						<g>
							<path style="fill:#407BFF;" d="M177.114,259.077v4.098c0,2.565-2.001,4.673-4.524,4.832c-2.533-0.16-4.534-2.267-4.534-4.832
								v-4.098c0-2.576,2.001-4.673,4.534-4.832C175.113,254.404,177.114,256.501,177.114,259.077z"/>
						</g>
						<g style="opacity:0.3;">
							<path style="fill:#FFFFFF;" d="M177.114,259.077v4.098c0,2.565-2.001,4.673-4.524,4.832c-2.533-0.16-4.534-2.267-4.534-4.832
								v-4.098c0-2.576,2.001-4.673,4.534-4.832C175.113,254.404,177.114,256.501,177.114,259.077z"/>
						</g>
					</g>
				</g>
				<g>
					<g>
						<path style="fill:#407BFF;" d="M218.793,259.077v4.098c0,2.672-2.161,4.843-4.843,4.843h-8.43c-0.106,0-0.202,0-0.309-0.011
							c2.523-0.16,4.524-2.267,4.524-4.832v-4.098c0-2.576-2.001-4.673-4.524-4.832c0.107-0.011,0.202-0.011,0.309-0.011h8.43
							C216.633,254.234,218.793,256.395,218.793,259.077z"/>
					</g>
					<g>
						<g>
							<path style="fill:#407BFF;" d="M209.735,259.077v4.098c0,2.565-2.001,4.673-4.524,4.832c-2.533-0.16-4.534-2.267-4.534-4.832
								v-4.098c0-2.576,2.001-4.673,4.534-4.832C207.734,254.404,209.735,256.501,209.735,259.077z"/>
						</g>
						<g style="opacity:0.3;">
							<path style="fill:#FFFFFF;" d="M209.735,259.077v4.098c0,2.565-2.001,4.673-4.524,4.832c-2.533-0.16-4.534-2.267-4.534-4.832
								v-4.098c0-2.576,2.001-4.673,4.534-4.832C207.734,254.404,209.735,256.501,209.735,259.077z"/>
						</g>
					</g>
				</g>
			</g>
		</g>
		<g>
			<path style="fill:#407BFF;" d="M354.681,234.135c0.309,0,0.607,0.032,0.894,0.085h0.011c0.117-0.053,0.234-0.074,0.362-0.074
				h84.887c2.746,0,4.971,2.225,4.971,4.971v3.832c0,2.746-2.224,4.981-4.971,4.981h-84.887c-0.138,0-0.266-0.032-0.383-0.085
				c-0.287,0.053-0.585,0.085-0.884,0.085h-8.441c-2.682,0-4.843-2.171-4.843-4.854v-4.098c0-2.672,2.16-4.843,4.843-4.843H354.681
				 M354.681,233.071h-8.441c-3.257,0-5.907,2.65-5.907,5.908v4.098c0,3.263,2.65,5.918,5.907,5.918h8.441
				c0.258,0,0.524-0.019,0.797-0.057c0.154,0.038,0.311,0.057,0.47,0.057h84.887c3.328,0,6.035-2.712,6.035-6.046v-3.832
				c0-3.328-2.707-6.035-6.035-6.035h-84.887c-0.155,0-0.302,0.016-0.445,0.049C355.224,233.09,354.953,233.071,354.681,233.071
				L354.681,233.071z"/>
			<g>
				<path style="opacity:0.4;fill:#407BFF;" d="M445.715,239.111v3.832c0,2.746-2.224,4.981-4.971,4.981h-84.887
					c-0.522,0-0.948-0.426-0.948-0.947v-11.9c0-0.521,0.426-0.937,0.948-0.937h84.887
					C443.491,234.141,445.715,236.365,445.715,239.111z"/>
				<path style="opacity:0.6;fill:#FFFFFF;" d="M445.934,238.981v4.099c0,2.676-2.168,4.845-4.843,4.845h-8.44
					c-2.675,0-4.843-2.169-4.843-4.845v-4.099c0-2.676,2.168-4.845,4.843-4.845h8.44
					C443.766,234.136,445.934,236.305,445.934,238.981z"/>
				<g>
					<g style="opacity:0.6;">
						<g>
							<path style="fill:#407BFF;" d="M445.929,238.984v4.098c0,2.565-2.001,4.673-4.524,4.832c-2.533-0.16-4.534-2.267-4.534-4.832
								v-4.098c0-2.576,2.001-4.673,4.534-4.832C443.928,234.311,445.929,236.408,445.929,238.984z"/>
						</g>
					</g>
				</g>
				<g style="opacity:0.4;">
					<g style="opacity:0.6;">
						<g>
							<path style="fill:#407BFF;" d="M445.929,238.984v4.098c0,2.565-2.001,4.673-4.524,4.832c-2.533-0.16-4.534-2.267-4.534-4.832
								v-4.098c0-2.576,2.001-4.673,4.534-4.832C443.928,234.311,445.929,236.408,445.929,238.984z"/>
						</g>
					</g>
				</g>
				<g>
					<g>
						<g style="opacity:0.6;">
							<path style="fill:#FFFFFF;" d="M368.488,238.984v4.098c0,2.672-2.161,4.843-4.843,4.843h-8.43c-0.107,0-0.202,0-0.309-0.011
								c2.523-0.16,4.524-2.267,4.524-4.832v-4.098c0-2.576-2.001-4.673-4.524-4.832c0.107-0.011,0.202-0.011,0.309-0.011h8.43
								C366.327,234.141,368.488,236.301,368.488,238.984z"/>
						</g>
						<g>
							<g>
								<path style="fill:#407BFF;" d="M359.43,238.984v4.098c0,2.565-2.001,4.673-4.524,4.832c-2.533-0.16-4.534-2.267-4.534-4.832
									v-4.098c0-2.576,2.001-4.673,4.534-4.832C357.428,234.311,359.43,236.408,359.43,238.984z"/>
							</g>
							<g style="opacity:0.3;">
								<path style="fill:#FFFFFF;" d="M359.43,238.984v4.098c0,2.565-2.001,4.673-4.524,4.832c-2.533-0.16-4.534-2.267-4.534-4.832
									v-4.098c0-2.576,2.001-4.673,4.534-4.832C357.428,234.311,359.43,236.408,359.43,238.984z"/>
							</g>
						</g>
					</g>
					<path style="fill:#407BFF;" d="M359.43,238.981v4.099c0,2.676-2.168,4.845-4.844,4.845h-8.44c-2.675,0-4.844-2.169-4.844-4.845
						v-4.099c0-2.676,2.169-4.845,4.844-4.845h8.44C357.261,234.136,359.43,236.305,359.43,238.981z"/>
					<g style="opacity:0.4;">
						<path style="fill:#FFFFFF;" d="M359.43,238.981v4.099c0,2.676-2.168,4.845-4.844,4.845h-8.44
							c-2.675,0-4.844-2.169-4.844-4.845v-4.099c0-2.676,2.169-4.845,4.844-4.845h8.44
							C357.261,234.136,359.43,236.305,359.43,238.981z"/>
					</g>
				</g>
				<g>
					<g>
						<path style="fill:#407BFF;" d="M391.25,238.984v4.098c0,2.672-2.161,4.843-4.843,4.843h-8.43c-0.106,0-0.202,0-0.309-0.011
							c2.522-0.16,4.524-2.267,4.524-4.832v-4.098c0-2.576-2.001-4.673-4.524-4.832c0.107-0.011,0.202-0.011,0.309-0.011h8.43
							C389.089,234.141,391.25,236.301,391.25,238.984z"/>
					</g>
					<g style="opacity:0.5;">
						<path style="fill:#FFFFFF;" d="M405.404,238.984v4.098c0,2.672-2.161,4.843-4.843,4.843h-8.43c-0.107,0-0.202,0-0.309-0.011
							c2.522-0.16,4.524-2.267,4.524-4.832v-4.098c0-2.576-2.001-4.673-4.524-4.832c0.107-0.011,0.202-0.011,0.309-0.011h8.43
							C403.243,234.141,405.404,236.301,405.404,238.984z"/>
					</g>
					<g>
						<g>
							<path style="fill:#407BFF;" d="M382.191,238.984v4.098c0,2.565-2.001,4.673-4.524,4.832c-2.533-0.16-4.534-2.267-4.534-4.832
								v-4.098c0-2.576,2.001-4.673,4.534-4.832C380.19,234.311,382.191,236.408,382.191,238.984z"/>
						</g>
						<g style="opacity:0.3;">
							<path style="fill:#FFFFFF;" d="M382.191,238.984v4.098c0,2.565-2.001,4.673-4.524,4.832c-2.533-0.16-4.534-2.267-4.534-4.832
								v-4.098c0-2.576,2.001-4.673,4.534-4.832C380.19,234.311,382.191,236.408,382.191,238.984z"/>
						</g>
					</g>
				</g>
				<g>
					<g>
						<path style="fill:#407BFF;" d="M423.87,238.984v4.098c0,2.672-2.161,4.843-4.843,4.843h-8.43c-0.106,0-0.202,0-0.309-0.011
							c2.522-0.16,4.524-2.267,4.524-4.832v-4.098c0-2.576-2.001-4.673-4.524-4.832c0.107-0.011,0.202-0.011,0.309-0.011h8.43
							C421.709,234.141,423.87,236.301,423.87,238.984z"/>
					</g>
					<g>
						<g>
							<path style="fill:#407BFF;" d="M414.812,238.984v4.098c0,2.565-2.001,4.673-4.524,4.832c-2.533-0.16-4.534-2.267-4.534-4.832
								v-4.098c0-2.576,2.001-4.673,4.534-4.832C412.811,234.311,414.812,236.408,414.812,238.984z"/>
						</g>
						<g style="opacity:0.3;">
							<path style="fill:#FFFFFF;" d="M414.812,238.984v4.098c0,2.565-2.001,4.673-4.524,4.832c-2.533-0.16-4.534-2.267-4.534-4.832
								v-4.098c0-2.576,2.001-4.673,4.534-4.832C412.811,234.311,414.812,236.408,414.812,238.984z"/>
						</g>
					</g>
				</g>
			</g>
		</g>
		<g>
			<g>
				<g>
					<g>
						<g>
							<ellipse style="fill:#263238;" cx="346.797" cy="384.586" rx="18.316" ry="20.323"/>
							<ellipse style="opacity:0.2;" cx="346.797" cy="384.586" rx="18.316" ry="20.323"/>
							<ellipse style="fill:#263238;" cx="340.054" cy="384.586" rx="18.316" ry="20.323"/>
						</g>
						<path style="fill:#FFFFFF;" d="M352.468,384.587c0,6.603-4.188,12.123-9.781,13.461c-0.848,0.207-1.73,0.313-2.635,0.313
							c-6.855,0-12.413-6.167-12.413-13.773c0-7.609,5.558-13.776,12.413-13.776c0.904,0,1.787,0.106,2.635,0.313
							C348.28,372.462,352.468,377.982,352.468,384.587z"/>
						<path style="opacity:0.2;" d="M352.468,384.587c0,6.603-4.188,12.123-9.781,13.461c-5.593-1.338-9.783-6.855-9.783-13.461
							c0-6.605,4.191-12.125,9.783-13.463C348.28,372.462,352.468,377.982,352.468,384.587z"/>
					</g>
					<path style="opacity:0.5;" d="M346.806,364.263c-1.153,0-2.277,0.133-3.371,0.359c-1.094-0.226-2.218-0.359-3.372-0.359
						c-10.115,0-18.316,9.099-18.316,20.323c0,11.224,8.2,20.323,18.316,20.323c1.153,0,2.277-0.133,3.372-0.359
						c1.094,0.226,2.218,0.359,3.371,0.359c10.116,0,18.316-9.099,18.316-20.323C365.122,373.362,356.922,364.263,346.806,364.263z"
						/>
				</g>
				<g>
					<g>
						<ellipse style="fill:#263238;" cx="175.215" cy="384.586" rx="18.316" ry="20.323"/>
						<ellipse style="opacity:0.2;" cx="175.215" cy="384.586" rx="18.316" ry="20.323"/>
						<ellipse style="fill:#263238;" cx="168.472" cy="384.586" rx="18.316" ry="20.323"/>
					</g>
					<path style="fill:#FFFFFF;" d="M180.886,384.587c0,6.603-4.188,12.123-9.781,13.461c-0.848,0.207-1.73,0.313-2.635,0.313
						c-6.855,0-12.413-6.167-12.413-13.773c0-7.609,5.558-13.776,12.413-13.776c0.904,0,1.787,0.106,2.635,0.313
						C176.698,372.462,180.886,377.982,180.886,384.587z"/>
					<path style="opacity:0.2;" d="M180.886,384.587c0,6.603-4.188,12.123-9.781,13.461c-5.593-1.338-9.783-6.855-9.783-13.461
						c0-6.605,4.191-12.125,9.783-13.463C176.698,372.462,180.886,377.982,180.886,384.587z"/>
					<path style="opacity:0.5;" d="M175.214,364.263c-1.153,0-2.277,0.133-3.371,0.359c-1.094-0.226-2.218-0.359-3.372-0.359
						c-10.115,0-18.316,9.099-18.316,20.323c0,11.224,8.2,20.323,18.316,20.323c1.153,0,2.277-0.133,3.372-0.359
						c1.094,0.226,2.218,0.359,3.371,0.359c10.116,0,18.316-9.099,18.316-20.323C193.53,373.362,185.33,364.263,175.214,364.263z"/>
				</g>
			</g>
			<g>
				<polygon points="240.651,390.023 249.434,384.587 286.8,384.587 286.8,355.542 243.533,355.542 				"/>
				<polygon points="69.122,390.023 77.906,384.587 115.271,384.587 115.271,355.542 72.004,355.542 				"/>
			</g>
			<g>
				<g>
					<ellipse style="fill:#263238;" cx="267.097" cy="384.586" rx="18.316" ry="20.323"/>
					<ellipse style="opacity:0.2;" cx="267.097" cy="384.586" rx="18.316" ry="20.323"/>
					<ellipse style="fill:#263238;" cx="260.354" cy="384.586" rx="18.316" ry="20.323"/>
				</g>
				<path style="fill:#FFFFFF;" d="M272.764,384.585c0,5.109-2.501,9.569-6.227,11.943c-1.086,0.703-2.289,1.213-3.555,1.522
					c-0.202,0.053-0.415,0.096-0.628,0.138c-0.011,0-0.011,0-0.011,0c-0.649,0.106-1.31,0.17-1.991,0.17
					c-6.855,0-12.411-6.163-12.411-13.773s5.556-13.773,12.411-13.773c0.639,0,1.277,0.053,1.884,0.16
					c0.255,0.043,0.5,0.085,0.745,0.149c1.224,0.287,2.374,0.788,3.428,1.448h0.01C270.21,374.93,272.764,379.433,272.764,384.585z"
					/>
				<g>
					<g>
						<path style="opacity:0.3;" d="M272.764,384.585c0,5.109-2.501,9.569-6.227,11.943c-1.086,0.703-2.289,1.213-3.555,1.522
							c-0.202,0.053-0.415,0.096-0.628,0.138c-0.011,0-0.011,0-0.011,0c-6.259-0.703-11.134-6.536-11.134-13.614
							c0-7.046,4.822-12.858,11.027-13.603c0.255,0.043,0.5,0.085,0.745,0.149c1.224,0.287,2.374,0.788,3.428,1.448h0.01
							C270.21,374.93,272.764,379.433,272.764,384.585z"/>
						<path style="opacity:0.2;" d="M272.764,384.585c0,5.109-2.501,9.569-6.227,11.943c-0.405,0.117-0.809,0.213-1.224,0.287
							c-0.575,0.106-1.149,0.149-1.745,0.149c-0.511,0-1.011-0.032-1.511-0.107c-1.895-0.277-3.641-1.086-5.109-2.278
							c-0.905-0.713-1.703-1.586-2.363-2.565c-1.107-1.618-1.863-3.534-2.129-5.62c-0.085-0.596-0.128-1.213-0.128-1.831
							c0-0.628,0.043-1.245,0.128-1.852c0.277-2.086,1.032-4.002,2.139-5.62c0.66-0.979,1.458-1.841,2.352-2.565
							c1.48-1.181,3.225-1.98,5.12-2.257c0.49-0.074,0.99-0.117,1.501-0.117c0.585,0,1.16,0.053,1.735,0.149
							c0.372,0.064,0.745,0.149,1.107,0.266h0.01C270.21,374.93,272.764,379.433,272.764,384.585z"/>
						<ellipse style="opacity:0.2;" cx="263.55" cy="384.674" rx="8.8" ry="9.71"/>
						<g>
							<path style="opacity:0.2;" d="M269.179,384.778c0,3.43-2.52,6.211-5.629,6.211s-5.629-2.781-5.629-6.211
								c0-3.43,2.52-6.211,5.629-6.211S269.179,381.348,269.179,384.778z"/>
						</g>
						<path d="M266.233,384.694c0,1.675-1.231,3.033-2.749,3.033c-1.518,0-2.749-1.358-2.749-3.033c0-1.675,1.231-3.033,2.749-3.033
							C265.002,381.661,266.233,383.019,266.233,384.694z"/>
					</g>
					<g>
						<g>
							<path style="fill:#263238;" d="M265.301,372.301c-0.274,0.678-0.888,1.144-1.606,1.144c-0.725,0-1.355-0.482-1.628-1.176
								c0.488-0.074,0.992-0.114,1.503-0.114C264.154,372.154,264.731,372.203,265.301,372.301z"/>
							<path style="fill:#263238;" d="M265.309,396.813c-0.57,0.106-1.148,0.155-1.74,0.155c-0.511,0-1.014-0.041-1.51-0.114
								c0.267-0.702,0.903-1.193,1.636-1.193C264.413,395.661,265.035,396.135,265.309,396.813z"/>
						</g>
						<g>
							<path style="fill:#263238;" d="M256.574,376.695c-0.533,0.596-1.325,0.727-1.984,0.4c0.666-0.98,1.466-1.846,2.361-2.565
								C257.233,375.249,257.107,376.115,256.574,376.695z"/>
						</g>
						<g>
							<path style="fill:#263238;" d="M253.628,384.553c0,0.841-0.488,1.568-1.177,1.838c-0.081-0.596-0.126-1.209-0.126-1.83
								c0-0.629,0.044-1.241,0.126-1.846C253.139,382.984,253.628,383.711,253.628,384.553z"/>
						</g>
						<g>
							<path style="fill:#263238;" d="M256.944,394.583c-0.903-0.719-1.702-1.593-2.361-2.573c0.659-0.327,1.458-0.196,1.991,0.4
								C257.107,392.99,257.233,393.864,256.944,394.583z"/>
						</g>
					</g>
				</g>
			</g>
			<g>
				<g>
					<rect x="354.911" y="247.923" style="fill:#407BFF;" width="90.81" height="142.098"/>
					<rect x="354.911" y="247.923" style="opacity:0.3;fill:#FFFFFF;" width="90.81" height="142.098"/>
				</g>
				<path style="fill:#407BFF;" d="M354.912,247.923v142.1h-70.434l-1.748-16.977c-0.754-7.328-7.593-12.88-15.332-12.88h-9.66
					c-7.735,0-14.578,5.552-15.332,12.88l-1.748,16.977h-82.496v-142.1H354.912z"/>
				<path style="opacity:0.5;fill:#FFFFFF;" d="M354.912,247.923v142.1h-70.434l-1.748-16.977
					c-0.754-7.328-7.593-12.88-15.332-12.88h-9.66c-7.735,0-14.578,5.552-15.332,12.88l-1.748,16.977h-82.496v-142.1H354.912z"/>
			</g>
			<g>
				<g>
					<ellipse style="fill:#263238;" cx="95.669" cy="384.586" rx="18.316" ry="20.323"/>
					<ellipse style="opacity:0.2;" cx="95.669" cy="384.586" rx="18.316" ry="20.323"/>
					<ellipse style="fill:#263238;" cx="88.926" cy="384.586" rx="18.316" ry="20.323"/>
				</g>
				<path style="fill:#FFFFFF;" d="M101.336,384.585c0,5.109-2.501,9.569-6.227,11.943c-1.086,0.703-2.289,1.213-3.555,1.522
					c-0.202,0.053-0.415,0.096-0.628,0.138c-0.011,0-0.011,0-0.011,0c-0.649,0.106-1.31,0.17-1.991,0.17
					c-6.855,0-12.411-6.163-12.411-13.773s5.556-13.773,12.411-13.773c0.639,0,1.277,0.053,1.884,0.16
					c0.256,0.043,0.5,0.085,0.745,0.149c1.224,0.287,2.374,0.788,3.428,1.448h0.01C98.782,374.93,101.336,379.433,101.336,384.585z"
					/>
				<g>
					<g>
						<path style="opacity:0.3;" d="M101.336,384.585c0,5.109-2.501,9.569-6.227,11.943c-1.086,0.703-2.289,1.213-3.555,1.522
							c-0.202,0.053-0.415,0.096-0.628,0.138c-0.011,0-0.011,0-0.011,0c-6.259-0.703-11.134-6.536-11.134-13.614
							c0-7.046,4.822-12.858,11.027-13.603c0.256,0.043,0.5,0.085,0.745,0.149c1.224,0.287,2.374,0.788,3.428,1.448h0.01
							C98.782,374.93,101.336,379.433,101.336,384.585z"/>
						<path style="opacity:0.2;" d="M101.336,384.585c0,5.109-2.501,9.569-6.227,11.943c-0.405,0.117-0.809,0.213-1.224,0.287
							c-0.575,0.106-1.149,0.149-1.746,0.149c-0.511,0-1.011-0.032-1.511-0.107c-1.895-0.277-3.64-1.086-5.109-2.278
							c-0.905-0.713-1.703-1.586-2.363-2.565c-1.107-1.618-1.863-3.534-2.129-5.62c-0.085-0.596-0.128-1.213-0.128-1.831
							c0-0.628,0.043-1.245,0.128-1.852c0.277-2.086,1.032-4.002,2.139-5.62c0.66-0.979,1.458-1.841,2.352-2.565
							c1.48-1.181,3.225-1.98,5.12-2.257c0.49-0.074,0.99-0.117,1.501-0.117c0.585,0,1.16,0.053,1.735,0.149
							c0.372,0.064,0.745,0.149,1.107,0.266h0.01C98.782,374.93,101.336,379.433,101.336,384.585z"/>
						<ellipse style="opacity:0.2;" cx="92.122" cy="384.674" rx="8.8" ry="9.71"/>
						<g>
							<path style="opacity:0.2;" d="M97.751,384.778c0,3.43-2.52,6.211-5.629,6.211c-3.109,0-5.629-2.781-5.629-6.211
								c0-3.43,2.52-6.211,5.629-6.211C95.231,378.568,97.751,381.348,97.751,384.778z"/>
						</g>
						<path d="M94.805,384.694c0,1.675-1.231,3.033-2.749,3.033s-2.749-1.358-2.749-3.033c0-1.675,1.231-3.033,2.749-3.033
							S94.805,383.019,94.805,384.694z"/>
					</g>
					<g>
						<g>
							<path style="fill:#263238;" d="M93.873,372.301c-0.274,0.678-0.888,1.144-1.606,1.144c-0.725,0-1.354-0.482-1.628-1.176
								c0.489-0.074,0.992-0.114,1.503-0.114C92.726,372.154,93.303,372.203,93.873,372.301z"/>
							<path style="fill:#263238;" d="M93.881,396.813c-0.57,0.106-1.147,0.155-1.74,0.155c-0.511,0-1.014-0.041-1.51-0.114
								c0.267-0.702,0.903-1.193,1.636-1.193C92.985,395.661,93.607,396.135,93.881,396.813z"/>
						</g>
						<g>
							<path style="fill:#263238;" d="M85.146,376.695c-0.533,0.596-1.325,0.727-1.984,0.4c0.666-0.98,1.466-1.846,2.361-2.565
								C85.804,375.249,85.678,376.115,85.146,376.695z"/>
						</g>
						<g>
							<path style="fill:#263238;" d="M82.199,384.553c0,0.841-0.489,1.568-1.177,1.838c-0.081-0.596-0.126-1.209-0.126-1.83
								c0-0.629,0.044-1.241,0.126-1.846C81.711,382.984,82.199,383.711,82.199,384.553z"/>
						</g>
						<g>
							<path style="fill:#263238;" d="M85.516,394.583c-0.903-0.719-1.703-1.593-2.361-2.573c0.659-0.327,1.458-0.196,1.991,0.4
								C85.678,392.99,85.804,393.864,85.516,394.583z"/>
						</g>
					</g>
				</g>
			</g>
			<g>
				<path style="fill:#407BFF;" d="M158.165,270.405v119.618h-45.408l-0.564-5.439l-1.128-11.006l-0.075-0.671
					c-0.745-7.334-7.589-12.879-15.327-12.879h-9.665c-7.728,0-14.572,5.546-15.327,12.879l-0.607,5.886l-1.16,11.229h-5.312
					c-8.377,0-15.157-6.78-15.157-15.157v-24.279c0-11.868,23.566-15.306,33.976-20.256c0.606-0.287,1.745-1.235,3.246-2.65
					c0,0,0,0,0-0.011c0.415-0.383,0.862-0.82,1.341-1.277c1.778-1.746,3.917-3.96,6.248-6.44c0.309-0.33,0.628-0.66,0.947-1.001
					c11.943-12.741,28.313-31.57,28.313-31.57h10.133l8.877-16.935L158.165,270.405z"/>
				<polygon style="opacity:0.2;fill:#FFFFFF;" points="132.64,287.384 158.162,287.384 158.162,270.41 141.514,270.447 				"/>
			</g>
			<g style="opacity:0.3;">
				<path style="fill:#FFFFFF;" d="M158.165,270.405v119.618h-45.408l-0.564-5.439l-1.128-11.006l-0.075-0.671
					c-0.745-7.334-7.589-12.879-15.327-12.879h-9.665c-7.728,0-14.572,5.546-15.327,12.879l-0.607,5.886l-1.16,11.229h-5.312
					c-8.377,0-15.157-6.78-15.157-15.157v-24.279c0-11.868,23.566-15.306,33.976-20.256c0.606-0.287,1.745-1.235,3.246-2.65
					c0,0,0,0,0-0.011c0.415-0.383,0.862-0.82,1.341-1.277c1.778-1.746,3.917-3.96,6.248-6.44c0.309-0.33,0.628-0.66,0.947-1.001
					c11.943-12.741,28.313-31.57,28.313-31.57h10.133l8.877-16.935L158.165,270.405z"/>
				<g>
					<path style="fill:#407BFF;" d="M158.165,330.012v20.096H48.456c0.617-11.485,23.683-14.891,33.955-19.777
						c0.138-0.064,0.319-0.17,0.521-0.319H158.165z"/>
					<path style="opacity:0.1;" d="M158.165,330.012v20.096H48.456c0.617-11.485,23.683-14.891,33.955-19.777
						c0.138-0.064,0.319-0.17,0.521-0.319H158.165z"/>
				</g>
				<polygon style="opacity:0.2;fill:#FFFFFF;" points="132.64,287.384 158.162,287.384 158.162,270.41 141.514,270.447 				"/>
			</g>
			<path style="fill:#263238;" d="M51.831,351.725v12.517c0,0.905-1.128,1.629-2.512,1.629c-0.128,0-0.245,0-0.362-0.011
				c-0.181-0.021-0.351-0.053-0.521-0.096v-15.562c0.171-0.043,0.341-0.074,0.521-0.096c0.117-0.011,0.234-0.021,0.362-0.021
				C50.702,350.086,51.831,350.821,51.831,351.725z"/>
			<path style="opacity:0.5;fill:#FFFFFF;" d="M51.106,351.725v12.517c0,0.82-0.937,1.501-2.15,1.618
				c-0.181-0.021-0.351-0.053-0.521-0.096v-15.562c0.171-0.043,0.341-0.074,0.521-0.096
				C50.17,350.225,51.106,350.906,51.106,351.725z"/>
			<g>
				<path style="fill:#263238;" d="M155.493,385.086h-38.39l-2.322-11.408c-1.339-10.604-8.416-17.704-17.615-17.704h-6.866v-29.768
					l32.775-37.029h32.419V385.086z M117.92,384.086h36.573v-93.909h-30.968l-32.225,36.408v28.389h5.866
					c9.727,0,17.202,7.451,18.601,18.542L117.92,384.086z"/>
			</g>
			<g>
				<path style="fill:#263238;" d="M92.78,329.206l31.985-36.603l26.334-0.426v28.994l-57.919,8.765
					C92.771,329.997,92.508,329.516,92.78,329.206z"/>
				<g>
					<path style="fill:#263238;" d="M89.288,328.524l2.696,0.928c0,0,1.988,1.043,3.066-0.464c1.079-1.507-1.382-1.464-1.382-1.464
						S91.121,328.524,89.288,328.524z"/>
					<g>
						<path style="fill:#263238;" d="M92.005,328.524h-4.691c-1.208,0-2.187-0.979-2.187-2.187v-15.205
							c0-1.208,0.979-2.187,2.187-2.187h4.691c1.208,0,2.187,0.979,2.187,2.187v15.205
							C94.192,327.545,93.213,328.524,92.005,328.524z"/>
					</g>
					<path style="fill:#FFFFFF;" d="M91.972,326.653h-4.2c-0.702,0-1.271-0.569-1.271-1.271v-13.691
						c0-0.702,0.569-1.271,1.271-1.271h4.2c0.702,0,1.271,0.569,1.271,1.271v13.691C93.243,326.084,92.674,326.653,91.972,326.653z"
						/>
				</g>
				<g>
					<path style="opacity:0.2;" d="M147.343,333.196c0,2.109-1.71,3.818-3.818,3.818c-2.109,0-3.818-1.71-3.818-3.818
						c0-2.109,1.709-3.818,3.818-3.818C145.633,329.378,147.343,331.088,147.343,333.196z"/>
					<path style="fill:#263238;" d="M147.691,331.64h-8.381c-0.689,0-1.247,0.559-1.247,1.247v0.161
						c0,0.689,0.559,1.247,1.247,1.247h8.381c0.689,0,1.247-0.558,1.247-1.247v-0.161C148.938,332.199,148.38,331.64,147.691,331.64
						z"/>
				</g>
			</g>
			<rect x="354.91" y="330.012" style="fill:#407BFF;" width="90.805" height="20.096"/>
			<rect x="354.91" y="330.012" style="opacity:0.2;" width="90.805" height="20.096"/>
			<rect x="158.165" y="330.012" style="fill:#407BFF;" width="196.745" height="20.096"/>
		</g>
		<path style="fill:#263238;" d="M324.794,305.293h-56.94c-4.095,0-7.415-3.32-7.415-7.415v-14.7c0-4.095,3.32-7.415,7.415-7.415
			h56.94c4.095,0,7.415,3.32,7.415,7.415v14.7C332.209,301.973,328.889,305.293,324.794,305.293z"/>
		<path style="fill:#263238;" d="M234.051,283.226v32.629c0,4.095-3.32,7.415-7.415,7.415h-14.7c-4.095,0-7.415-3.32-7.415-7.415
			v-32.629c0-4.095,3.32-7.415,7.415-7.415h14.7C230.731,275.812,234.051,279.131,234.051,283.226z"/>
		<path style="fill:#263238;" d="M398.4,278.078v32.629c0,4.095-3.32,7.415-7.415,7.415h-14.7c-4.095,0-7.415-3.32-7.415-7.415
			v-32.629c0-4.095,3.32-7.415,7.415-7.415h14.7C395.081,270.664,398.4,273.983,398.4,278.078z"/>
		<g>
			<path style="fill:#263238;" d="M239.268,385.086h-77.595V256.281h77.595V385.086z M162.673,384.086h75.595V257.281h-75.595
				V384.086z"/>
		</g>
		<g>
			<path style="fill:#263238;" d="M405.402,385.086h-43.884V256.281h43.884V385.086z M362.519,384.086h41.884V257.281h-41.884
				V384.086z"/>
		</g>
		<g>
			<rect x="199.803" y="256.445" style="fill:#263238;" width="1" height="128.141"/>
		</g>
		<rect x="223.046" y="331.716" style="fill:#263238;" width="9.302" height="6.289"/>
		<rect x="388.658" y="331.716" style="fill:#263238;" width="9.302" height="6.289"/>
		<rect x="184.229" y="331.716" style="fill:#263238;" width="9.302" height="6.289"/>
		<g>
			<path style="fill:#263238;" d="M239.268,385.086h-77.595v-15.268h77.595V385.086z M162.673,384.086h75.595v-13.268h-75.595
				V384.086z"/>
		</g>
		<g>
			<g>
				<path style="fill:#407BFF;" d="M453.762,316.19v30.839c0,1.702-1.756,3.079-3.928,3.079h-33.688
					c-0.341,0-0.617-0.217-0.617-0.484v-36.02c0-0.267,0.277-0.484,0.617-0.484h33.688
					C452.006,313.12,453.762,314.497,453.762,316.19z"/>
			</g>
			<g style="opacity:0.4;">
				<path style="fill:#FFFFFF;" d="M453.762,316.19v30.839c0,1.702-1.756,3.079-3.928,3.079h-33.688
					c-0.341,0-0.617-0.217-0.617-0.484v-36.02c0-0.267,0.277-0.484,0.617-0.484h33.688
					C452.006,313.12,453.762,314.497,453.762,316.19z"/>
			</g>
		</g>
		<g>
			<path style="fill:#407BFF;" d="M453.762,316.19v30.839c0,1.702-1.756,3.079-3.928,3.079H428.11c-2.161,0-3.917-1.377-3.917-3.079
				V316.19c0-1.694,1.756-3.07,3.917-3.07h21.725C452.006,313.12,453.762,314.497,453.762,316.19z"/>
			<path style="opacity:0.5;fill:#FFFFFF;" d="M453.762,316.19v30.839c0,1.702-1.756,3.079-3.928,3.079H428.11
				c-2.161,0-3.917-1.377-3.917-3.079V316.19c0-1.694,1.756-3.07,3.917-3.07h21.725C452.006,313.12,453.762,314.497,453.762,316.19z
				"/>
		</g>
		<g>
			<g>
				<path style="opacity:0.4;fill:#FFFFFF;" d="M362.021,366.064v20.678c0,1.353-1.554,2.476-3.555,2.667
					c-0.191,0.019-0.394,0.029-0.596,0.029c-2.289,0-4.151-1.21-4.151-2.695v-20.678c0-1.486,1.863-2.695,4.151-2.695
					c0.202,0,0.404,0.009,0.596,0.029C360.467,363.588,362.021,364.712,362.021,366.064z"/>
				<path style="opacity:0.1;" d="M362.021,366.064v20.678c0,1.353-1.554,2.476-3.555,2.667c-2.001-0.191-3.555-1.314-3.555-2.667
					v-20.678c0-1.353,1.554-2.476,3.555-2.667C360.467,363.588,362.021,364.712,362.021,366.064z"/>
			</g>
			<rect x="353.095" y="370.318" style="fill:#407BFF;" width="8.926" height="12.397"/>
			<g>
				<path style="opacity:0.5;fill:#FFFFFF;" d="M445.72,366.064v20.678c0,1.353-1.554,2.476-3.555,2.667
					c-0.191,0.019-0.394,0.029-0.596,0.029c-2.289,0-4.151-1.21-4.151-2.695v-20.678c0-1.486,1.863-2.695,4.151-2.695
					c0.202,0,0.404,0.009,0.596,0.029C444.167,363.588,445.72,364.712,445.72,366.064z"/>
				<path style="opacity:0.1;" d="M445.72,366.064v20.678c0,1.353-1.554,2.476-3.555,2.667c-2.001-0.191-3.555-1.314-3.555-2.667
					v-20.678c0-1.353,1.554-2.476,3.555-2.667C444.167,363.588,445.72,364.712,445.72,366.064z"/>
			</g>
			<rect x="437.106" y="370.318" style="fill:#407BFF;" width="8.926" height="12.397"/>
		</g>
		<path style="fill:#263238;" d="M70.702,371.124H44.099v4.959c0,3.58,1.378,7.024,3.848,9.616l0,0
			c2.631,2.761,6.278,4.324,10.092,4.324h10.868L70.702,371.124z"/>
		<g>
			<path style="fill:#407BFF;" d="M257.694,267.946h-3.78l-0.703,1.737h-2.579l3.946-8.94h2.491l3.959,8.94h-2.631L257.694,267.946z
				 M256.953,266.082l-1.149-2.861l-1.149,2.861H256.953z"/>
			<path style="fill:#407BFF;" d="M270.326,269.684l-0.026-4.738l-2.299,3.857h-1.124l-2.286-3.729v4.61h-2.337v-8.94h2.082
				l3.142,5.16l3.065-5.16h2.082l0.025,8.94H270.326z"/>
			<path style="fill:#407BFF;" d="M283.456,267.231c0,1.545-1.277,2.452-3.678,2.452h-4.828v-8.94h4.572
				c2.35,0,3.499,0.958,3.499,2.338c0,0.855-0.435,1.545-1.201,1.94C282.83,265.38,283.456,266.146,283.456,267.231z
				 M277.454,262.569v1.725h1.737c0.843,0,1.277-0.294,1.277-0.868c0-0.563-0.434-0.857-1.277-0.857H277.454z M280.902,266.95
				c0-0.612-0.46-0.906-1.328-0.906h-2.12v1.813h2.12C280.442,267.857,280.902,267.564,280.902,266.95z"/>
			<path style="fill:#407BFF;" d="M285.207,265.699v-4.956h2.529v4.879c0,1.533,0.639,2.146,1.699,2.146
				c1.047,0,1.686-0.612,1.686-2.146v-4.879h2.491v4.956c0,2.669-1.558,4.163-4.202,4.163
				C286.765,269.862,285.207,268.368,285.207,265.699z"/>
			<path style="fill:#407BFF;" d="M295.834,260.743h2.529v6.936h4.266v2.005h-6.794V260.743z"/>
			<path style="fill:#407BFF;" d="M310.228,267.946h-3.78l-0.703,1.737h-2.58l3.946-8.94h2.491l3.959,8.94h-2.631L310.228,267.946z
				 M309.487,266.082l-1.149-2.861l-1.149,2.861H309.487z"/>
			<path style="fill:#407BFF;" d="M323.295,260.743v8.94h-2.081l-3.947-4.764v4.764h-2.478v-8.94h2.082l3.947,4.764v-4.764H323.295z
				"/>
			<path style="fill:#407BFF;" d="M325.134,265.214c0-2.721,2.082-4.649,4.917-4.649c1.648,0,2.976,0.6,3.845,1.686l-1.609,1.455
				c-0.562-0.677-1.252-1.047-2.107-1.047c-1.469,0-2.49,1.021-2.49,2.555c0,1.532,1.021,2.554,2.49,2.554
				c0.855,0,1.545-0.37,2.107-1.047l1.609,1.456c-0.869,1.085-2.197,1.686-3.845,1.686
				C327.216,269.862,325.134,267.934,325.134,265.214z"/>
			<path style="fill:#407BFF;" d="M342.71,267.729v1.954h-7.178v-8.94h7.012v1.954h-4.508v1.507h3.972v1.891h-3.972v1.635H342.71z"
				/>
		</g>
		<g>
			<path style="fill:#407BFF;" d="M368.095,361.388h-2.957l-0.549,1.359h-2.018l3.087-6.992h1.948l3.096,6.992h-2.058
				L368.095,361.388z M367.516,359.93l-0.899-2.237l-0.899,2.237H367.516z"/>
			<path style="fill:#407BFF;" d="M378.28,362.747l-0.02-3.706l-1.798,3.016h-0.879l-1.788-2.917v3.606h-1.828v-6.992h1.628
				l2.457,4.036l2.397-4.036h1.628l0.02,6.992H378.28z"/>
			<path style="fill:#407BFF;" d="M388.855,360.829c0,1.209-0.999,1.918-2.877,1.918h-3.776v-6.992h3.576
				c1.838,0,2.737,0.75,2.737,1.828c0,0.669-0.34,1.209-0.939,1.519C388.365,359.381,388.855,359.98,388.855,360.829z
				 M384.16,357.184v1.348h1.359c0.659,0,0.999-0.23,0.999-0.68c0-0.439-0.34-0.668-0.999-0.668H384.16z M386.857,360.61
				c0-0.48-0.36-0.71-1.038-0.71h-1.659v1.419h1.659C386.497,361.319,386.857,361.089,386.857,360.61z"/>
			<path style="fill:#407BFF;" d="M390.528,359.63v-3.876h1.978v3.816c0,1.199,0.499,1.679,1.328,1.679
				c0.819,0,1.319-0.48,1.319-1.679v-3.816h1.948v3.876c0,2.087-1.219,3.257-3.286,3.257S390.528,361.718,390.528,359.63z"/>
			<path style="fill:#407BFF;" d="M399.144,355.754h1.978v5.424h3.336v1.569h-5.314V355.754z"/>
			<path style="fill:#407BFF;" d="M410.706,361.388h-2.957l-0.549,1.359h-2.018l3.087-6.992h1.948l3.096,6.992h-2.058
				L410.706,361.388z M410.126,359.93l-0.899-2.237l-0.899,2.237H410.126z"/>
			<path style="fill:#407BFF;" d="M421.229,355.754v6.992h-1.628l-3.086-3.725v3.725h-1.938v-6.992h1.628l3.087,3.727v-3.727
				H421.229z"/>
			<path style="fill:#407BFF;" d="M422.973,359.251c0-2.128,1.628-3.636,3.846-3.636c1.288,0,2.327,0.47,3.006,1.318l-1.258,1.139
				c-0.44-0.529-0.979-0.819-1.648-0.819c-1.149,0-1.948,0.799-1.948,1.998s0.799,1.998,1.948,1.998c0.669,0,1.208-0.29,1.648-0.819
				l1.258,1.138c-0.679,0.849-1.718,1.319-3.006,1.319C424.601,362.887,422.973,361.379,422.973,359.251z"/>
			<path style="fill:#407BFF;" d="M437.023,361.219v1.528h-5.614v-6.992h5.484v1.529h-3.526v1.179h3.106v1.478h-3.106v1.279H437.023
				z"/>
		</g>
		<g>
			<g>
				
					<rect x="176.581" y="287.712" transform="matrix(6.123234e-17 -1 1 6.123234e-17 -118.0816 479.8535)" style="fill:#FFFFFF;" width="8.61" height="22.511"/>
			</g>
			<g>
				
					<rect x="176.581" y="287.712" transform="matrix(-1 -1.224647e-16 1.224647e-16 -1 361.7718 597.9351)" style="fill:#FFFFFF;" width="8.61" height="22.511"/>
			</g>
		</g>
		<g>
			<g>
				
					<rect x="422.902" y="279.069" transform="matrix(6.123234e-17 -1 1 6.123234e-17 136.8827 717.532)" style="fill:#FFFFFF;" width="8.61" height="22.511"/>
			</g>
			<g>
				
					<rect x="422.902" y="279.069" transform="matrix(-1 -1.224647e-16 1.224647e-16 -1 854.4147 580.6493)" style="fill:#FFFFFF;" width="8.61" height="22.511"/>
			</g>
		</g>
	</g>
</g>
<g id="Character_2">
	<g>
		<g id="freepik--character-1--inject-22">
			<polygon style="fill:#B55B52;" points="344.72,414.103 341.061,414.308 340.924,410.347 344.583,410.142 			"/>
			<path style="fill:#263238;" d="M340.82,413.554l4.138-0.071c0.15-0.004,0.283,0.097,0.318,0.243l0.773,3.27
				c0.066,0.294-0.119,0.587-0.414,0.652c-0.038,0.009-0.078,0.013-0.117,0.013c-1.448,0-2.15-0.073-3.973-0.042
				c-1.121,0.019-4.026,0.187-5.575,0.213c-1.549,0.027-1.771-1.503-1.141-1.652c2.843-0.672,4.488-1.557,5.387-2.392
				C340.381,413.638,340.597,413.554,340.82,413.554z"/>
			<polygon style="opacity:0.2;" points="340.924,409.762 340.988,411.604 344.647,411.383 344.583,409.557 			"/>
			<path style="fill:#407BFF;" d="M334.232,334.451c-0.74,4.408,0.563,25.872,1.969,35.337c1.87,12.568,4.081,40.797,4.081,40.797
				l4.887-0.377c0,0,0.698-29.832-0.473-39.929c0.345-13.026,1.36-35.785,1.36-35.785L334.232,334.451z"/>
			<path style="opacity:0.3;" d="M334.232,334.451c-0.74,4.408,0.563,25.872,1.969,35.337c1.87,12.568,4.081,40.797,4.081,40.797
				l4.887-0.377c0,0,0.698-29.832-0.473-39.929c0.345-13.026,1.36-35.785,1.36-35.785L334.232,334.451z"/>
			<path style="opacity:0.2;" d="M345.484,348.674c0.115-3.301-2.271-6.192-3.106,0.053c-0.528,3.969,0.822,10.886,2.52,15.758
				C345.059,359.382,345.28,353.698,345.484,348.674z"/>
			<polygon style="fill:#B55B52;" points="371.608,405.404 368.83,407.173 366.338,403.155 369.111,401.389 			"/>
			<path style="fill:#263238;" d="M368.407,407.108l3.051-2.812c0.105-0.103,0.271-0.106,0.38-0.008l2.473,2.202
				c0.246,0.244,0.248,0.642,0.003,0.888c-0.005,0.005-0.011,0.011-0.016,0.016c-1.076,0.963-1.643,1.37-2.982,2.61
				c-0.824,0.76-1.814,1.835-2.95,2.89c-1.136,1.055-2.181-0.07-1.799-0.614c1.73-2.438,1.369-3.283,1.558-4.571
				C368.15,407.483,368.249,407.271,368.407,407.108z"/>
			<polygon style="opacity:0.2;" points="366.337,403.159 367.458,404.96 370.268,403.106 369.115,401.389 			"/>
			<path style="fill:#407BFF;" d="M341.523,339.518c0,0,4.617,27.854,7.293,38.37c1.928,7.578,17.542,26.414,17.542,26.414
				l3.787-2.257c0,0-5.885-15.026-13.982-24.935c-0.515-11.768,0.492-31.171-4.167-37.555L341.523,339.518z"/>
			<path style="opacity:0.3;" d="M341.523,339.518c0,0,4.617,27.854,7.293,38.37c1.928,7.578,17.542,26.414,17.542,26.414
				l3.787-2.257c0,0-5.885-15.026-13.982-24.935c-0.515-11.768,0.492-31.171-4.167-37.555L341.523,339.518z"/>
			<g>
				<path style="fill:#B55B52;" d="M335.081,315.534c-0.231,2.37-0.57,4.684-0.97,7.017c-0.344,2.009-0.819,3.569-1.715,6.419
					l-0.112,0.435l-0.142,0.49c-0.102,0.32-0.21,0.634-0.325,0.939c-0.239,0.603-0.524,1.178-0.783,1.734
					c-0.554,1.087-0.566,1.543-1.232,2.564c-1.311,1.997-2.768,3.894-4.358,5.675c-0.376,0.413-1.015,0.444-1.428,0.068
					c-0.351-0.319-0.433-0.839-0.198-1.251l0.002-0.024c1.154-1.969,2.285-3.993,3.297-6.008c0.508-1.008,0.372-1.431,0.782-2.44
					c0.197-0.505,0.377-1.008,0.527-1.501c0.077-0.246,0.138-0.49,0.198-0.73l0.076-0.357l0.08-0.402c0,0,1.016-3.952,1.352-6.225
					c0.336-2.274,0.613-4.573,0.899-6.831l0.002-0.02c0.127-1.119,1.137-1.923,2.256-1.796c1.119,0.127,1.923,1.137,1.796,2.256
					L335.081,315.534z"/>
				<path style="fill:#B55B52;" d="M323.996,339.155l-2.702,1.879l3.359,1.769c0,0,1.244-1.546,0.894-3.161L323.996,339.155z"/>
				<g>
					<path style="fill:#B55B52;" d="M321.42,344.315l1.576,0.354c0.36,0.081,0.729-0.09,0.901-0.416l0.756-1.45l-3.359-1.769
						l-0.492,2.316C320.708,343.787,320.984,344.217,321.42,344.315z"/>
				</g>
			</g>
			<path style="fill:#407BFF;" d="M332.763,310.901c-0.712-0.191-2.631,6.54-2.631,6.54l5.244,4.876c0,0,1.619-6.959,2.305-9.255
				C338.398,310.679,334.66,309.327,332.763,310.901z"/>
			<path style="opacity:0.1;" d="M332.763,310.901c-0.712-0.191-2.631,6.54-2.631,6.54l5.244,4.876c0,0,1.619-6.959,2.305-9.255
				C338.398,310.679,334.66,309.327,332.763,310.901z"/>
			<path style="fill:#407BFF;" d="M331.965,312.735c-0.055,7.355,1.368,13.085,1.991,18.145c0.079,0.64,0.206,2.764-0.421,7.191
				c-0.573,4.044-0.738,10.401-0.727,10.954l23.106-1.461c-0.761-9.908-5.631-15.901-5.626-17.27
				c0.014-4.111,0.45-8.31,2.238-16.356c0.411-1.855-0.759-3.693-2.615-4.104c-0.103-0.023-0.206-0.041-0.31-0.054
				c-0.969-0.126-2.043-0.242-3.133-0.297c-2.443-0.184-4.896-0.194-7.341-0.03c-1.718,0.152-3.565,0.436-4.882,0.658
				C332.954,310.326,331.997,311.427,331.965,312.735z"/>
			<path style="opacity:0.1;" d="M331.965,312.735c-0.055,7.355,1.368,13.085,1.991,18.145c0.079,0.64,0.206,2.764-0.421,7.191
				c-0.573,4.044-0.738,10.401-0.727,10.954l23.106-1.461c-0.761-9.908-5.631-15.901-5.626-17.27
				c0.014-4.111,0.45-8.31,2.238-16.356c0.411-1.855-0.759-3.693-2.615-4.104c-0.103-0.023-0.206-0.041-0.31-0.054
				c-0.969-0.126-2.043-0.242-3.133-0.297c-2.443-0.184-4.896-0.194-7.341-0.03c-1.718,0.152-3.565,0.436-4.882,0.658
				C332.954,310.326,331.997,311.427,331.965,312.735z"/>
			<path style="opacity:0.4;fill:#FFFFFF;enable-background:new    ;" d="M339.152,309.456c0,0-2.602,1.888,0.261,6.463
				c2.248-2.263,4.608-4.411,7.071-6.437L339.152,309.456z"/>
			<g>
				<path style="fill:#B55B52;" d="M351.974,314.151c-0.01,2.381-1.914,13.434-2.303,15.797l-0.071,0.444l-0.096,0.501
					c-0.072,0.329-0.151,0.65-0.237,0.965c-0.182,0.623-0.413,1.221-0.619,1.799c-0.451,1.133-0.962,2.242-1.531,3.321
					c-1.12,2.109-2.395,4.133-3.813,6.055c-0.336,0.446-0.969,0.536-1.416,0.201c-0.379-0.285-0.509-0.795-0.313-1.227l0-0.024
					c0.967-2.067,1.905-4.187,2.726-6.288c0.412-1.05,0.779-2.113,1.094-3.155c0.149-0.521,0.282-1.038,0.386-1.544
					c0.054-0.253,0.092-0.501,0.13-0.746l0.042-0.363l0.042-0.408c0.217-2.258,1.831-13.104,1.905-15.378l0-0.02
					c0.023-1.126,0.954-2.02,2.08-1.997s2.02,0.954,1.997,2.08L351.974,314.151z"/>
				<path style="fill:#B55B52;" d="M342.508,340.283l-2.516,2.122l3.508,1.45c0,0,1.096-1.655,0.597-3.231L342.508,340.283z"/>
				<g>
					<path style="fill:#B55B52;" d="M340.422,345.66l1.602,0.207c0.366,0.047,0.718-0.157,0.858-0.498l0.618-1.514l-3.508-1.45
						l-0.275,2.351C339.665,345.2,339.979,345.603,340.422,345.66z"/>
				</g>
			</g>
			<path style="fill:#407BFF;" d="M348.986,310.226c-3.424,2.088-3.498,8.866-3.498,8.866l7.243-1.043c0,0,0.614-2.13,0.284-4.891
				C352.399,310.66,350.497,309.307,348.986,310.226z"/>
			<path style="opacity:0.1;" d="M348.986,310.226c-3.424,2.088-3.498,8.866-3.498,8.866l7.243-1.043c0,0,0.614-2.13,0.284-4.891
				C352.399,310.66,350.497,309.307,348.986,310.226z"/>
			<g>
				<path style="fill:#B55B52;" d="M345.789,301.224c-0.47,2.357-0.951,6.679,0.695,8.258c-2.528,1.046-4.849,2.532-6.857,4.39
					c-1.846-3.255-0.483-4.42-0.483-4.42c2.632-0.616,2.574-2.568,2.123-4.404L345.789,301.224z"/>
				<path style="opacity:0.2;" d="M345.298,301.641c-0.04,1.404-0.379,2.784-0.995,4.046c-0.43,0.868-1.61,1.251-2.803,1.34
					c0.028-0.667-0.048-1.334-0.225-1.978L345.298,301.641z"/>
				<path style="fill:#B55B52;" d="M349.559,298.285c-1.159,3.779-1.539,5.401-3.96,6.91c-3.611,2.268-8,0.038-8.012-4.002
					c-0.005-3.637,1.882-9.203,5.978-9.84c2.934-0.476,5.698,1.517,6.174,4.451C349.874,296.634,349.812,297.484,349.559,298.285z"
					/>
				<path style="fill:#263238;" d="M347.078,290.575c-2.528-2.326-5.318-1.391-6.784-0.626c-1.466,0.764-2.577,2.18-2.972,3.785
					c-0.156,0.634,0.017,2.096,1.229,2.504c0,0,0.612-1.325,1.41-1.955c0.918-0.726,2.626-0.802,3.308-0.599
					c0.646,1.479,1.575,3.113,2.659,4.309c1.084,1.196,2.681,2.047,4.279,1.824c1.467-1.876,1.956-4.484,0.966-6.651
					C350.182,291,347.078,290.575,347.078,290.575z"/>
				<g>
					<path style="fill:#407BFF;" d="M348.827,294.249c0.525-0.486,1.218-0.938,1.742-1.424c-0.089-2.766-1.95-5.396-4.529-6.4
						c-2.579-1.005-5.607-0.152-7.544,1.825c0.26,0.755,0.52,1.511,0.78,2.266C342.845,289.792,346.834,291.202,348.827,294.249z"/>
					<path style="opacity:0.7;fill:#FFFFFF;" d="M348.827,294.249c0.525-0.486,1.218-0.938,1.742-1.424
						c-0.089-2.766-1.95-5.396-4.529-6.4c-2.579-1.005-5.607-0.152-7.544,1.825c0.26,0.755,0.52,1.511,0.78,2.266
						C342.845,289.792,346.834,291.202,348.827,294.249z"/>
				</g>
				<path style="fill:#B55B52;" d="M350.417,300.417c-0.22,0.737-0.727,1.354-1.408,1.712c-0.897,0.458-1.552-0.289-1.474-1.245
					c0.071-0.857,0.624-2.134,1.609-2.205c0.715-0.03,1.32,0.526,1.35,1.241C350.5,300.089,350.474,300.258,350.417,300.417z"/>
				<path style="fill:#263238;" d="M343.688,298.071c-0.076,0.311-0.301,0.527-0.506,0.478c-0.205-0.049-0.308-0.341-0.236-0.652
					c0.072-0.311,0.301-0.527,0.506-0.478C343.657,297.469,343.76,297.76,343.688,298.071z"/>
				<path style="fill:#263238;" d="M340.158,297.234c-0.072,0.315-0.297,0.527-0.502,0.478c-0.205-0.049-0.312-0.337-0.235-0.652
					c0.076-0.315,0.297-0.523,0.502-0.478C340.128,296.627,340.235,296.923,340.158,297.234z"/>
				<path style="fill:#263238;" d="M340.009,296.621l-0.7-0.396C339.309,296.225,339.557,296.906,340.009,296.621z"/>
				<path style="fill:#A02724;" d="M340.95,297.992c-0.445,0.647-0.977,1.229-1.581,1.732c0.267,0.305,0.655,0.478,1.06,0.471
					L340.95,297.992z"/>
				<path style="fill:#263238;" d="M341.204,301.401c-0.03-0.025-0.043-0.064-0.034-0.101c0.015-0.05,0.067-0.078,0.117-0.063
					c0,0,0,0,0.001,0c0.776,0.229,1.615,0.075,2.26-0.414c0.039-0.034,0.098-0.031,0.133,0.008c0.035,0.039,0.031,0.098-0.008,0.133
					c-0.691,0.54-1.602,0.708-2.439,0.449L341.204,301.401z"/>
				<path style="fill:#263238;" d="M344.76,297.065c-0.025-0.022-0.046-0.048-0.063-0.076c-0.178-0.445-0.561-0.777-1.026-0.892
					c-0.103-0.016-0.173-0.113-0.157-0.216c0.016-0.103,0.113-0.173,0.216-0.157l0,0c0.592,0.136,1.083,0.55,1.316,1.111
					c0.039,0.098-0.009,0.21-0.108,0.249C344.879,297.107,344.813,297.1,344.76,297.065z"/>
				<path style="fill:#263238;" d="M339.151,295.713l-0.025-0.024c-0.074-0.072-0.076-0.191-0.004-0.265
					c0.43-0.417,1.032-0.604,1.622-0.505c0.101,0.024,0.163,0.125,0.14,0.225c0,0.002-0.001,0.003-0.001,0.005
					c-0.024,0.101-0.125,0.163-0.226,0.138c-0.473-0.081-0.957,0.072-1.298,0.41C339.299,295.743,339.217,295.75,339.151,295.713z"
					/>
				<path style="fill:#263238;" d="M343.539,297.458l-0.7-0.396C342.839,297.062,343.083,297.743,343.539,297.458z"/>
			</g>
		</g>
	</g>
</g>
<g id="Character_1">
	<g>
		<g>
			<g>
				<g>
					<path style="fill:#263238;" d="M279.566,394.533c0-12.428,8.896-22.538,19.832-22.538c10.935,0,19.831,10.11,19.831,22.538
						c0,12.427-8.896,22.538-19.831,22.538C288.462,417.071,279.566,406.96,279.566,394.533z M282.282,394.533
						c0,10.929,7.678,19.821,17.115,19.821c9.438,0,17.115-8.892,17.115-19.821c0-10.93-7.678-19.822-17.115-19.822
						C289.96,374.711,282.282,383.603,282.282,394.533z"/>
				</g>
				<g style="opacity:0.3;">
					<path style="fill:#FFFFFF;" d="M279.566,394.533c0-12.428,8.896-22.538,19.832-22.538c10.935,0,19.831,10.11,19.831,22.538
						c0,12.427-8.896,22.538-19.831,22.538C288.462,417.071,279.566,406.96,279.566,394.533z M282.282,394.533
						c0,10.929,7.678,19.821,17.115,19.821c9.438,0,17.115-8.892,17.115-19.821c0-10.93-7.678-19.822-17.115-19.822
						C289.96,374.711,282.282,383.603,282.282,394.533z"/>
				</g>
				<g>
					<g>
						<path style="fill:#263238;" d="M283.082,394.533c0-10.266,7.319-18.617,16.316-18.617s16.315,8.352,16.315,18.617
							c0,10.265-7.319,18.617-16.315,18.617S283.082,404.798,283.082,394.533z M284.289,394.533c0,9.6,6.778,17.41,15.108,17.41
							c8.331,0,15.108-7.81,15.108-17.41c0-9.6-6.777-17.41-15.108-17.41C291.067,377.123,284.289,384.933,284.289,394.533z"/>
					</g>
					<g style="opacity:0.7;">
						<path style="fill:#FFFFFF;" d="M283.082,394.533c0-10.266,7.319-18.617,16.316-18.617s16.315,8.352,16.315,18.617
							c0,10.265-7.319,18.617-16.315,18.617S283.082,404.798,283.082,394.533z M284.289,394.533c0,9.6,6.778,17.41,15.108,17.41
							c8.331,0,15.108-7.81,15.108-17.41c0-9.6-6.777-17.41-15.108-17.41C291.067,377.123,284.289,384.933,284.289,394.533z"/>
					</g>
				</g>
			</g>
			<g>
				<g>
					<path style="fill:#263238;" d="M273.864,384.313h52.535c1.078,0,1.952-0.874,1.952-1.952v-0.02
						c0-1.078-0.874-1.952-1.952-1.952h-52.535c-1.078,0-1.952,0.874-1.952,1.952v0.02
						C271.912,383.439,272.786,384.313,273.864,384.313z"/>
				</g>
				<polygon style="fill:#263238;" points="328.634,364.257 308.754,364.257 310.077,351.234 329.956,351.234 				"/>
				<polygon style="opacity:0.4;" points="328.634,364.257 308.754,364.257 310.077,351.234 329.956,351.234 				"/>
			</g>
			<g>
				<g>
					<path style="fill:#263238;" d="M323.236,344.738c-0.674,0-1.348,0-2.022,0c-1.923,0-3.856-0.056-5.778,0
						c-3.272,0.095-6.147,2.336-6.756,5.614c-0.422,2.275-0.508,4.654-0.749,6.951c-0.993,9.481-1.986,18.962-2.978,28.443
						c-0.238,2.271,0.105,6.906-2.592,7.828c-0.99,0.338-2.275,0.167-3.299,0.167c-2.066,0-4.133,0-6.199,0
						c-4.891,0-9.781,0-14.672,0c-1.161,0-2.324-0.022-3.484,0c-0.964,0.018-1.891,0.169-2.767,0.441v1.667
						c0.414-0.171,0.842-0.31,1.295-0.395c1.161-0.218,2.414-0.129,3.591-0.129c2.002,0,4.003,0,6.005,0c4.839,0,9.678,0,14.518,0
						c3.394,0,7.9,0.493,8.601-4.028c0.335-2.157,0.463-4.364,0.69-6.534c0.978-9.338,1.956-18.676,2.933-28.014
						c0.155-1.478,0.31-2.955,0.464-4.433c0.112-1.07,0.174-2.106,0.679-3.093c1.432-2.8,4.162-2.901,6.877-2.901
						c1.881,0,3.761,0,5.642,0C324.257,346.323,324.255,344.738,323.236,344.738z"/>
					<path style="opacity:0.7;fill:#FFFFFF;" d="M323.236,344.738c-0.674,0-1.348,0-2.022,0c-1.923,0-3.856-0.056-5.778,0
						c-3.272,0.095-6.147,2.336-6.756,5.614c-0.422,2.275-0.508,4.654-0.749,6.951c-0.993,9.481-1.986,18.962-2.978,28.443
						c-0.238,2.271,0.105,6.906-2.592,7.828c-0.99,0.338-2.275,0.167-3.299,0.167c-2.066,0-4.133,0-6.199,0
						c-4.891,0-9.781,0-14.672,0c-1.161,0-2.324-0.022-3.484,0c-0.964,0.018-1.891,0.169-2.767,0.441v1.667
						c0.414-0.171,0.842-0.31,1.295-0.395c1.161-0.218,2.414-0.129,3.591-0.129c2.002,0,4.003,0,6.005,0c4.839,0,9.678,0,14.518,0
						c3.394,0,7.9,0.493,8.601-4.028c0.335-2.157,0.463-4.364,0.69-6.534c0.978-9.338,1.956-18.676,2.933-28.014
						c0.155-1.478,0.31-2.955,0.464-4.433c0.112-1.07,0.174-2.106,0.679-3.093c1.432-2.8,4.162-2.901,6.877-2.901
						c1.881,0,3.761,0,5.642,0C324.257,346.323,324.255,344.738,323.236,344.738z"/>
				</g>
				<g>
					<path style="fill:#263238;" d="M324.182,346.663c-2.6,0-5.2,0-7.8,0c-1.457,0-1.459-2.264,0-2.264c2.6,0,5.2,0,7.8,0
						C325.639,344.399,325.641,346.663,324.182,346.663L324.182,346.663z"/>
				</g>
				<g>
					<g>
						<g>
							<path style="fill:#263238;" d="M270.099,410.617c0-3.559,2.603-6.454,5.803-6.454c3.2,0,5.803,2.895,5.803,6.454
								c0,3.559-2.603,6.454-5.803,6.454C272.702,417.071,270.099,414.176,270.099,410.617z M272.815,410.617
								c0,2.061,1.385,3.738,3.087,3.738c1.702,0,3.086-1.677,3.086-3.738c0-2.061-1.385-3.738-3.086-3.738
								C274.2,406.879,272.815,408.556,272.815,410.617z"/>
						</g>
					</g>
					<g>
						<g>
							<path style="fill:#263238;" d="M307.677,366.846c-9.751,0-19.503-0.055-29.254,0c-3.103,0.017-5.477,2.073-5.568,5.26
								c-0.043,1.504,0,3.015,0,4.519c0,6.352,0,12.704,0,19.056c0,3.01,0,6.021,0,9.031c0,2.478-0.199,5.646,3.262,5.82
								c1.015,0.051,1.021,1.636,0,1.585c-3.179-0.16-4.847-2.599-4.847-5.572c0-2.19,0-4.38,0-6.571c0-6.939,0-13.879,0-20.818
								c0-4.555-1.144-11.056,4.015-13.321c1.766-0.776,3.796-0.574,5.681-0.574c3.108,0,6.215,0,9.323,0c5.796,0,11.591,0,17.387,0
								C308.697,365.262,308.698,366.846,307.677,366.846L307.677,366.846z"/>
						</g>
						<g style="opacity:0.7;">
							<path style="fill:#FFFFFF;" d="M307.677,366.846c-9.751,0-19.503-0.055-29.254,0c-3.103,0.017-5.477,2.073-5.568,5.26
								c-0.043,1.504,0,3.015,0,4.519c0,6.352,0,12.704,0,19.056c0,3.01,0,6.021,0,9.031c0,2.478-0.199,5.646,3.262,5.82
								c1.015,0.051,1.021,1.636,0,1.585c-3.179-0.16-4.847-2.599-4.847-5.572c0-2.19,0-4.38,0-6.571c0-6.939,0-13.879,0-20.818
								c0-4.555-1.144-11.056,4.015-13.321c1.766-0.776,3.796-0.574,5.681-0.574c3.108,0,6.215,0,9.323,0c5.796,0,11.591,0,17.387,0
								C308.697,365.262,308.698,366.846,307.677,366.846L307.677,366.846z"/>
						</g>
					</g>
					<g>
						<path style="fill:#263238;" d="M282.31,367.356h18.249c1.078,0,1.952-0.874,1.952-1.952v-0.02
							c0-1.078-0.874-1.952-1.952-1.952H282.31c-1.078,0-1.952,0.874-1.952,1.952v0.02
							C280.358,366.482,281.232,367.356,282.31,367.356z"/>
					</g>
				</g>
			</g>
			<g>
				<g>
					<g>
						<path style="fill:#263238;" d="M265.239,408.597l4.161,0.172c0.141,0.007,0.258,0.11,0.283,0.249l0.549,3.083
							c0.047,0.274-0.137,0.535-0.411,0.582c0,0-0.001,0-0.001,0l-0.112-0.005c-1.35-0.077-2.328-0.2-4.023-0.27
							c-1.041-0.043-4.196-0.066-5.637-0.125s-1.568-1.492-0.973-1.596c2.67-0.467,4.691-1.185,5.571-1.925
							C264.815,408.633,265.028,408.573,265.239,408.597z"/>
						<g>
							<path style="fill:#407BFF;" d="M262.731,408.783l8.134,0.303l8.207-30.466c0,0,15.335,2.949,27.879,0.426
								c1.739-0.323,6.413-0.588,8.025-1.301c8.302-3.033,5.418-17.617,5.418-17.617l-20.354-0.513l0.558,2.964
								c0,0-23.731,2.436-30.057,5.943c-2.206,1.216-3.682,6.806-4.687,13.593C263.932,394.932,262.731,408.783,262.731,408.783z"/>
							<path style="opacity:0.1;" d="M262.731,408.783l8.134,0.303l8.207-30.466c0,0,15.335,2.949,27.879,0.426
								c1.739-0.323,6.413-0.588,8.025-1.301c8.302-3.033,5.418-17.617,5.418-17.617l-20.354-0.513l0.558,2.964
								c0,0-23.731,2.436-30.057,5.943c-2.206,1.216-3.682,6.806-4.687,13.593C263.932,394.932,262.731,408.783,262.731,408.783z"/>
							<path style="opacity:0.3;" d="M288.584,367.625c-6.665,1.825-8.447,6.021-9.512,10.995c0,0,12.81,2.461,24.591,0.958
								l2.35-5.07l-3.704-8.736C302.31,365.772,295.249,365.799,288.584,367.625z"/>
						</g>
					</g>
					<path style="fill:#263238;" d="M271.853,408.281l4.834,0.2c0.163,0.005,0.299,0.123,0.328,0.283l0.642,3.58
						c0.052,0.319-0.164,0.62-0.483,0.675c-0.043,0.003-0.087,0.001-0.13-0.005c-1.565-0.095-2.699-0.237-4.66-0.318
						c-1.212-0.05-4.87-0.071-6.536-0.14c-1.666-0.069-1.823-1.73-1.133-1.856c3.096-0.542,5.444-1.369,6.464-2.231
						C271.373,408.324,271.613,408.257,271.853,408.281z"/>
					<path style="fill:#407BFF;" d="M320.395,360.128c0,0,2.254,14.186-5.418,17.617c-7.672,3.431-20.334,2.437-20.334,2.437
						l-16.334,30.105l-7.336-1.055c0,0,7.455-35.846,13.754-40.258c1.704-1.19,20.036-4.214,20.036-4.214L320.395,360.128z"/>
				</g>
				<g>
					<path style="fill:#7F3E3B;" d="M286.395,363.214c1.318-0.368,2.588-0.827,3.848-1.306c1.256-0.486,2.489-1.014,3.713-1.558
						l1.836-0.864c0.801-0.399,1.525-0.954,2.137-1.613c1.233-1.311,2.013-3.073,2.116-4.899l0.004-0.065l-0.003-0.137
						c-0.063-2.431-0.152-4.861-0.282-7.289c-0.131-2.428-0.309-4.854-0.545-7.277l-3.996,0.183
						c-0.013,2.435,0.032,4.867,0.124,7.297c0.093,2.43,0.227,4.858,0.387,7.285l0-0.201c-0.03,0.842-0.299,1.703-0.862,2.378
						c-0.268,0.347-0.616,0.622-0.982,0.874l-1.698,1.029c-1.133,0.715-2.257,1.446-3.359,2.219c-1.098,0.78-2.186,1.58-3.225,2.471
						L286.395,363.214z"/>
					<g>
						<g>
							<path style="fill:#407BFF;" d="M297.982,331.799c-3.594,2.612-4.962,10.354-4.962,10.354l8.012,3.695
								c0,0,1.536-1.948,2.269-6.087C303.523,338.507,301.633,329.146,297.982,331.799z"/>
						</g>
					</g>
					<g style="opacity:0.5;">
						<g>
							<path style="fill:#FFFFFF;" d="M297.982,331.799c-3.594,2.612-4.962,10.354-4.962,10.354l8.012,3.695
								c0,0,1.536-1.948,2.269-6.087C303.523,338.507,301.633,329.146,297.982,331.799z"/>
						</g>
					</g>
					<path style="fill:#263238;" d="M300.233,330.856c4.082-0.867,8.407-1.023,12.906-0.672c2.398,0.187,4.404,1.881,4.953,4.223
						c1.273,5.431,2.827,8.704,2.075,25.8c-11.232,2.27-19.955,1.885-20.584,1.318c-1.551-2.958-3.2-20.25-3.66-24.72
						C295.635,334.01,297.483,331.44,300.233,330.856z"/>
					<path style="fill:#7F3E3B;" d="M307.278,323.151c0.385,2.868,0.968,6.193,2.994,7.819c-0.757,1.982-2.652,3.757-5.443,3.902
						c-3.068,0.16-2.595-2.29-2.087-3.587c1.303-1.462,0.676-3.09,0.348-4.247L307.278,323.151z"/>
					<path style="opacity:0.2;" d="M306.429,324.552c-0.019-0.182-0.048-0.365-0.077-0.543l-3.261,3.03
						c0.197,0.692,0.499,1.556,0.432,2.449C305.142,328.404,306.625,326.29,306.429,324.552z"/>
					<path style="fill:#7F3E3B;" d="M308.351,318.984c-0.483,3.79-0.573,6.035-2.625,7.847c-3.087,2.725-7.677,0.631-8.337-3.238
						c-0.595-3.482,0.295-9.096,4.124-10.334C305.285,312.039,308.834,315.193,308.351,318.984z"/>
					<path style="opacity:0.2;" d="M303.241,319.48c0,0,0.854-0.441,1.588-0.12C303.98,319.597,303.241,319.48,303.241,319.48z"/>
					<path style="opacity:0.2;" d="M303.295,319.856c0,0,0.846-0.232,1.421,0.254C303.919,320.144,303.295,319.856,303.295,319.856z
						"/>
					<path style="opacity:0.2;" d="M302.45,323.41c0,0,1.245,0.577,1.44,1.739C302.905,324.384,302.45,323.41,302.45,323.41z"/>
					<path style="opacity:0.2;" d="M299.398,323.559c0,0-0.889,0.555-0.928,1.454C299.145,324.341,299.398,323.559,299.398,323.559z
						"/>
					<path style="fill:#263238;" d="M302.281,319.746c-0.02,0.31-0.201,0.549-0.404,0.534c-0.203-0.015-0.351-0.279-0.331-0.589
						c0.02-0.31,0.201-0.549,0.404-0.534C302.153,319.172,302.301,319.436,302.281,319.746z"/>
					<path style="fill:#263238;" d="M298.405,319.578c-0.02,0.31-0.201,0.549-0.404,0.534c-0.203-0.015-0.351-0.279-0.331-0.589
						c0.02-0.31,0.201-0.549,0.404-0.534C298.277,319.004,298.425,319.268,298.405,319.578z"/>
					<path style="fill:#630F0F;" d="M299.53,319.973c0,0-0.927,1.683-1.808,2.435c0.481,0.583,1.438,0.477,1.438,0.477
						L299.53,319.973z"/>
					<path style="fill:#263238;" d="M302.945,317.702c0.018,0.025,0.03,0.054,0.034,0.086c0.012,0.1-0.061,0.19-0.161,0.201
						c-1.008,0.113-1.556-0.528-1.579-0.555c-0.065-0.077-0.054-0.192,0.024-0.256c0.078-0.064,0.193-0.053,0.258,0.024l0,0
						c0.018,0.021,0.45,0.516,1.255,0.426C302.844,317.62,302.908,317.65,302.945,317.702z"/>
					<path style="opacity:0.6;fill:#FFFFFF;" d="M302.945,317.702c0.018,0.025,0.03,0.054,0.034,0.086
						c0.012,0.1-0.061,0.19-0.161,0.201c-1.008,0.113-1.556-0.528-1.579-0.555c-0.065-0.077-0.054-0.192,0.024-0.256
						c0.078-0.064,0.193-0.053,0.258,0.024l0,0c0.018,0.021,0.45,0.516,1.255,0.426C302.844,317.62,302.908,317.65,302.945,317.702z
						"/>
					<path style="fill:#263238;" d="M297.375,317.672c0.038-0.045,0.097-0.07,0.16-0.063c0.797,0.099,1.229-0.396,1.247-0.417
						c0.065-0.077,0.18-0.086,0.256-0.02c0.076,0.066,0.086,0.18,0.022,0.258c-0.024,0.027-0.571,0.669-1.569,0.544
						c-0.1-0.012-0.17-0.104-0.158-0.205C297.337,317.731,297.353,317.698,297.375,317.672z"/>
					<path style="opacity:0.6;fill:#FFFFFF;" d="M297.375,317.672c0.038-0.045,0.097-0.07,0.16-0.063
						c0.797,0.099,1.229-0.396,1.247-0.417c0.065-0.077,0.18-0.086,0.256-0.02c0.076,0.066,0.086,0.18,0.022,0.258
						c-0.024,0.027-0.571,0.669-1.569,0.544c-0.1-0.012-0.17-0.104-0.158-0.205C297.337,317.731,297.353,317.698,297.375,317.672z"
						/>
					<path style="fill:#7F3E3B;" d="M316.727,332.716c0.256,0.331,0.463,0.61,0.687,0.915c0.218,0.3,0.426,0.604,0.634,0.908
						c0.415,0.608,0.819,1.223,1.212,1.846c0.778,1.25,1.51,2.537,2.173,3.876c0.667,1.337,1.265,2.727,1.756,4.197
						c0.247,0.735,0.46,1.495,0.626,2.283c0.086,0.392,0.152,0.798,0.213,1.206l0.072,0.624c0.005,0.035,0.013,0.153,0.017,0.23
						c0.004,0.085,0.011,0.174,0.01,0.257c-0.004,0.163-0.005,0.335-0.024,0.487c-0.143,1.26-0.614,2.129-1.075,2.88
						c-0.474,0.745-0.988,1.376-1.518,1.958c-1.064,1.158-2.195,2.133-3.351,3.049c-2.323,1.822-4.744,3.355-7.312,4.741
						c-0.596,0.322-1.34,0.099-1.662-0.497c-0.284-0.526-0.144-1.167,0.303-1.532l0.034-0.028c1.057-0.865,2.148-1.754,3.179-2.671
						c1.043-0.908,2.062-1.834,3.026-2.786c0.963-0.948,1.882-1.929,2.645-2.926c0.383-0.495,0.719-0.998,0.964-1.469
						c0.246-0.463,0.371-0.917,0.352-1.072c0.004-0.024-0.008-0.028-0.006-0.042c0-0.006-0.005-0.005-0.006-0.008
						c-0.003-0.011,0.004,0.018-0.007-0.033l-0.079-0.424c-0.065-0.287-0.13-0.575-0.217-0.868c-0.17-0.583-0.369-1.176-0.602-1.769
						c-0.469-1.187-1.048-2.37-1.676-3.542c-0.638-1.168-1.323-2.328-2.049-3.467c-0.359-0.572-0.73-1.139-1.109-1.697l-0.575-0.831
						c-0.186-0.27-0.392-0.563-0.561-0.796l-0.022-0.03c-0.803-1.102-0.561-2.647,0.541-3.45
						C314.402,331.445,315.912,331.666,316.727,332.716z"/>
					<g>
						<path style="fill:#407BFF;" d="M314.48,330.425c4.352,0.895,7.969,8.396,7.969,8.396l-4.923,7.365
							c0,0-3.228-2.429-5.182-6.151C311.752,338.908,310.06,329.515,314.48,330.425z"/>
					</g>
					<g style="opacity:0.5;">
						<path style="fill:#FFFFFF;" d="M314.505,330.465c4.342,0.893,7.951,8.378,7.951,8.378l-4.912,7.349
							c0,0-3.221-2.424-5.171-6.137C311.783,338.93,310.095,329.558,314.505,330.465z"/>
					</g>
					<g>
						<path style="fill:#7F3E3B;" d="M310.29,359.786l-3.338,0.949l2.214,3.524c0,0,2.918-1.226,2.517-2.882L310.29,359.786z"/>
						<path style="fill:#7F3E3B;" d="M305.173,363.87l0.984,1.104c0.392,0.44,1.044,0.531,1.542,0.215l1.467-0.93l-2.214-3.524
							l-1.662,1.42C304.777,362.593,304.724,363.367,305.173,363.87z"/>
					</g>
					<g>
						<path style="fill:#7F3E3B;" d="M287.412,360.805l-3.431-0.516l0.56,4.124c0,0,3.164,0.09,3.483-1.583L287.412,360.805z"/>
						<path style="fill:#7F3E3B;" d="M281.064,362.409l0.44,1.412c0.175,0.562,0.732,0.915,1.315,0.833l1.721-0.241l-0.56-4.124
							l-2.101,0.606C281.232,361.082,280.864,361.765,281.064,362.409z"/>
					</g>
					<g>
						<path style="fill:#407BFF;" d="M309.196,329.55c0.092,0.88-0.96,3.997-4.642,5.33c1.421,0.012,2.041,1.813,2.041,1.813
							s4.882-2.601,4.302-5.743C310.516,329.489,309.196,329.55,309.196,329.55z"/>
						<path style="fill:#407BFF;" d="M303.413,329.79c0.09,0.86-0.907,2.668,1.141,5.09c-1.421,0.012-2.273,1.426-2.273,1.426
							s-1.889-2.695-0.403-5.808C302.639,329.837,303.413,329.79,303.413,329.79z"/>
					</g>
					<g style="opacity:0.5;">
						<path style="fill:#FFFFFF;" d="M309.198,329.56c0.092,0.878-0.958,3.988-4.632,5.319c1.418,0.012,2.037,1.81,2.037,1.81
							s4.872-2.596,4.293-5.73C310.516,329.499,309.198,329.56,309.198,329.56z"/>
						<path style="fill:#FFFFFF;" d="M303.428,329.799c0.09,0.858-0.905,2.662,1.138,5.079c-1.418,0.012-2.268,1.423-2.268,1.423
							s-1.885-2.689-0.402-5.796C302.656,329.846,303.428,329.799,303.428,329.799z"/>
					</g>
					<g>
						<path style="fill:#263238;" d="M307.125,324.522c0,0-1.562-1.786-1.214-4.803c0,0-1.142-1.129-1.142-4.011
							c0,0-8.148,1.689-8.72-2.037c-0.571-3.726,12.944-3.077,15.733,0.202C311.782,313.873,310.944,324.286,307.125,324.522z"/>
					</g>
					<g style="opacity:0.6;">
						<path style="fill:#FFFFFF;" d="M307.125,324.522c0,0-1.562-1.786-1.214-4.803c0,0-1.142-1.129-1.142-4.011
							c0,0-8.148,1.689-8.72-2.037c-0.571-3.726,12.944-3.077,15.733,0.202C311.782,313.873,310.944,324.286,307.125,324.522z"/>
					</g>
					<path style="fill:#263238;" d="M301.375,324.439c0.127,0.051,0.249,0.113,0.366,0.184c0.039,0.021,0.053,0.07,0.032,0.109
						c0,0.001-0.001,0.002-0.001,0.003c-0.026,0.037-0.076,0.048-0.114,0.024c-0.593-0.371-1.326-0.439-1.977-0.183
						c-0.04,0.02-0.089,0.003-0.109-0.038c-0.02-0.04-0.003-0.089,0.038-0.109C300.175,324.193,300.812,324.197,301.375,324.439z"/>
					<path style="fill:#7F3E3B;" d="M309.393,322.938c-0.542,0.872-1.44,1.409-2.268,1.583c-1.246,0.262-1.798-0.874-1.391-2.007
						c0.366-1.02,1.455-2.386,2.677-2.138C309.615,320.62,310.014,321.941,309.393,322.938z"/>
					<g>
						<path style="fill:#263238;" d="M298.899,322.806c-0.213,0.19-0.349,0.462-0.373,0.746c-0.022,0.261,0.061,0.545,0.271,0.702
							c0.21,0.157,0.554,0.133,0.694-0.089c0.408,0.175,0.915,0.103,1.297-0.123c0.21,0.125,0.55,0.236,0.795,0.245
							c0.244,0.009,0.513-0.146,0.541-0.389c0.031-0.264-0.218-0.472-0.45-0.601C300.752,322.786,298.899,322.806,298.899,322.806z"
							/>
					</g>
					<path style="opacity:0.6;fill:#FFFFFF;" d="M298.899,322.806c-0.213,0.19-0.349,0.462-0.373,0.746
						c-0.022,0.261,0.061,0.545,0.271,0.702c0.21,0.157,0.554,0.133,0.694-0.089c0.408,0.175,0.915,0.103,1.297-0.123
						c0.21,0.125,0.55,0.236,0.795,0.245c0.244,0.009,0.513-0.146,0.541-0.389c0.031-0.264-0.218-0.472-0.45-0.601
						C300.752,322.786,298.899,322.806,298.899,322.806z"/>
				</g>
			</g>
			<g>
				<path style="fill:#263238;" d="M344.003,344.738c-0.674,0-1.348,0-2.022,0c-1.923,0-3.855-0.056-5.778,0
					c-3.272,0.095-6.147,2.336-6.756,5.614c-0.422,2.275-0.508,4.654-0.749,6.951c-0.993,9.481-1.985,18.962-2.978,28.443
					c-0.238,2.271,0.105,6.906-2.592,7.828c-0.99,0.338-2.275,0.167-3.299,0.167c-2.066,0-4.133,0-6.199,0
					c-4.891,0-9.781,0-14.672,0c-1.161,0-2.324-0.022-3.484,0c-0.964,0.018-1.891,0.169-2.767,0.441v1.667
					c0.414-0.171,0.842-0.31,1.295-0.395c1.161-0.218,2.414-0.129,3.591-0.129c2.002,0,4.003,0,6.005,0c4.839,0,9.679,0,14.518,0
					c3.394,0,7.9,0.493,8.601-4.028c0.335-2.157,0.463-4.364,0.69-6.534c0.978-9.338,1.956-18.676,2.933-28.014
					c0.155-1.478,0.31-2.955,0.464-4.433c0.112-1.07,0.174-2.106,0.679-3.093c1.432-2.8,4.162-2.901,6.877-2.901
					c1.881,0,3.761,0,5.642,0C345.025,346.323,345.023,344.738,344.003,344.738z"/>
				<g>
					<g>
						<g>
							<path style="fill:#263238;" d="M290.867,411.217c0-3.559,2.603-6.454,5.803-6.454c3.2,0,5.803,2.895,5.803,6.454
								c0,3.559-2.603,6.454-5.803,6.454C293.47,417.671,290.867,414.776,290.867,411.217z M293.583,411.217
								c0,2.061,1.385,3.738,3.087,3.738c1.702,0,3.087-1.677,3.087-3.738c0-2.061-1.384-3.738-3.087-3.738
								C294.968,407.479,293.583,409.156,293.583,411.217z"/>
						</g>
					</g>
					<g>
						<path style="fill:#263238;" d="M328.444,366.846c-9.751,0-19.503-0.055-29.254,0c-3.103,0.017-5.477,2.073-5.568,5.26
							c-0.043,1.504,0,3.015,0,4.519c0,6.352,0,12.704,0,19.056c0,3.01,0,6.021,0,9.031c0,2.478-0.199,5.646,3.262,5.82
							c1.015,0.051,1.021,1.636,0,1.585c-3.179-0.16-4.847-2.599-4.847-5.572c0-2.19,0-4.38,0-6.571c0-6.939,0-13.879,0-20.818
							c0-4.555-1.144-11.056,4.015-13.321c1.766-0.776,3.796-0.574,5.681-0.574c3.108,0,6.215,0,9.323,0c5.795,0,11.591,0,17.386,0
							C329.464,365.262,329.466,366.846,328.444,366.846L328.444,366.846z"/>
					</g>
					<g>
						<path style="fill:#263238;" d="M303.078,367.356h18.249c1.078,0,1.952-0.874,1.952-1.952v-0.02
							c0-1.078-0.874-1.952-1.952-1.952h-18.249c-1.078,0-1.952,0.874-1.952,1.952v0.02
							C301.126,366.482,302,367.356,303.078,367.356z"/>
					</g>
				</g>
				<g>
					<g>
						<path style="fill:#263238;" d="M305.698,394.533c0-12.428,8.897-22.538,19.832-22.538c10.935,0,19.832,10.11,19.832,22.538
							c0,12.427-8.896,22.538-19.832,22.538C314.595,417.071,305.698,406.96,305.698,394.533z M308.415,394.533
							c0,10.929,7.678,19.821,17.115,19.821c9.437,0,17.115-8.892,17.115-19.821c0-10.93-7.678-19.822-17.115-19.822
							C316.093,374.711,308.415,383.603,308.415,394.533z"/>
					</g>
					<g>
						<g>
							<path style="fill:#263238;" d="M309.215,394.533c0-10.266,7.319-18.617,16.316-18.617c8.996,0,16.315,8.352,16.315,18.617
								c0,10.265-7.319,18.617-16.315,18.617C316.534,413.15,309.215,404.798,309.215,394.533z M310.422,394.533
								c0,9.6,6.778,17.41,15.108,17.41c8.331,0,15.108-7.81,15.108-17.41c0-9.6-6.777-17.41-15.108-17.41
								C317.199,377.123,310.422,384.933,310.422,394.533z"/>
						</g>
						<path style="opacity:0.7;fill:#FFFFFF;" d="M344.004,344.738c-0.674,0-1.348,0-2.022,0c-1.923,0-3.855-0.056-5.778,0
							c-3.272,0.095-6.147,2.336-6.756,5.614c-0.422,2.275-0.508,4.654-0.748,6.951c-0.278,2.653-0.556,5.305-0.833,7.958
							c-5.603,0-11.205,0-16.808,0c-3.108,0-6.215,0-9.323,0c-1.885,0-3.914-0.201-5.681,0.574
							c-5.159,2.266-4.015,8.767-4.015,13.321c0,6.939,0,13.879,0,20.818c0,2.19,0,4.38,0,6.571c0,2.973,1.668,5.411,4.847,5.572
							c1.021,0.051,1.015-1.533,0-1.585c-3.462-0.175-3.262-3.343-3.262-5.82c0-3.01,0-6.021,0-9.031c0-0.044,0-0.089,0-0.133
							c0.126-0.033,0.25-0.07,0.38-0.095c1.161-0.218,2.414-0.129,3.591-0.129c2.002,0,4.004,0,6.005,0c1.883,0,3.767,0,5.65,0
							c0.368,9.897,7.518,17.825,16.28,17.825c8.997,0,16.316-8.352,16.316-18.617c0-9.185-5.865-16.818-13.541-18.328
							c0.679-6.485,1.358-12.971,2.037-19.456c0.155-1.478,0.31-2.955,0.464-4.433c0.112-1.07,0.174-2.106,0.679-3.093
							c1.432-2.799,4.162-2.901,6.877-2.901c1.881,0,3.762,0,5.642,0C345.025,346.323,345.023,344.738,344.004,344.738z
							 M340.638,394.533c0,9.6-6.778,17.41-15.108,17.41c-8.099,0-14.71-7.387-15.074-16.618c2.553,0,5.107,0,7.661,0
							c3.393,0,7.9,0.493,8.601-4.028c0.335-2.157,0.463-4.364,0.69-6.534c0.257-2.452,0.513-4.904,0.77-7.355
							C335.248,378.857,340.638,385.976,340.638,394.533z M310.457,393.741c0.363-9.231,6.975-16.618,15.073-16.618
							c0.367,0,0.727,0.034,1.087,0.064c-0.299,2.853-0.597,5.707-0.896,8.56c-0.238,2.271,0.105,6.906-2.592,7.828
							c-0.99,0.338-2.275,0.167-3.299,0.167c-2.066,0-4.133,0-6.199,0C312.572,393.741,311.514,393.741,310.457,393.741z
							 M325.53,375.916c-8.762,0-15.913,7.928-16.28,17.825c-3.43,0-6.861,0-10.291,0c-1.161,0-2.324-0.022-3.484,0
							c-0.637,0.012-1.251,0.102-1.851,0.227c0-5.781,0-11.562,0-17.343c0-1.504-0.043-3.015,0-4.519
							c0.09-3.187,2.464-5.242,5.567-5.26c9.502-0.053,19.007-0.004,28.509-0.001c-0.319,3.047-0.638,6.094-0.957,9.141
							C326.341,375.952,325.939,375.916,325.53,375.916z"/>
					</g>
				</g>
				<g>
					<path style="fill:#263238;" d="M344.95,346.663c-2.6,0-5.2,0-7.8,0c-1.456,0-1.459-2.264,0-2.264c2.6,0,5.2,0,7.8,0
						C346.406,344.399,346.409,346.663,344.95,346.663L344.95,346.663z"/>
				</g>
			</g>
		</g>
	</g>
</g>
</svg>
