<?xml version="1.0" encoding="utf-8"?>
<!-- Generator: Adobe Illustrator 27.5.0, SVG Export Plug-In . SVG Version: 6.00 Build 0)  -->
<svg version="1.1" xmlns="http://www.w3.org/2000/svg" xmlns:xlink="http://www.w3.org/1999/xlink" x="0px" y="0px"
	 viewBox="0 0 1122 1122" style="enable-background:new 0 0 1122 1122;" xml:space="preserve">
<g id="BG">
	<rect x="-0.346" y="-0.116" style="fill:#FFFFFF;" width="1122" height="1122"/>
</g>
<g id="Shadow">
	<g style="opacity:0.31;">
		<polygon style="fill:#2F2F2F;" points="1004.002,680.131 721.982,508.699 110.305,857 375.041,1006.918 435.298,971.662 
			536.511,991.268 692.915,904.965 693.112,862.331 		"/>
	</g>
</g>
<g id="Object">
	<g>
		<g>
			<path style="fill:#873A3A;" d="M602.903,541.543l-189.141,105.87l-0.465-245.847l-160.414,92.615L188.958,691.18l-54.229,31.309
				l-13.898,110.19l482.353-273.979L602.903,541.543z M209.191,690.131l52.846-180.981l136.19-76.399l0.338,148.045L209.191,690.131
				z"/>
			<g>
				<polygon style="fill:#662D2D;" points="352.885,966.673 137.422,811.338 422.943,650.249 645.458,797.718 				"/>
			</g>
			<g>
				<g>
					<g style="enable-background:new    ;">
						<path style="fill:#292929;" d="M505.82,876.003c0.284-0.102,0.571-0.218,0.853-0.312c1.188-0.396,2.358-0.725,3.505-0.981
							c0.269-0.06,0.529-0.091,0.796-0.144c0.884-0.174,1.756-0.311,2.612-0.402c0.438-0.047,0.868-0.071,1.298-0.096
							c0.676-0.04,1.342-0.053,1.997-0.04c0.547,0.01,1.085,0.04,1.617,0.086c0.525,0.045,1.038,0.114,1.547,0.194
							c0.873,0.137,1.719,0.332,2.545,0.568c0.383,0.109,0.774,0.2,1.146,0.33c1.173,0.411,2.308,0.896,3.369,1.512
							c0.003,0.002,0.007,0.003,0.01,0.005l-0.002-0.001l0.002,0l-30.032-17.453c-1.065-0.618-2.203-1.105-3.38-1.517
							c-0.114-0.04-0.214-0.109-0.329-0.148c-0.259-0.086-0.549-0.106-0.813-0.182c-0.827-0.237-1.673-0.432-2.547-0.569
							c-0.227-0.036-0.431-0.119-0.661-0.147c-0.287-0.036-0.595-0.022-0.887-0.047c-0.532-0.046-1.07-0.075-1.617-0.086
							c-0.288-0.005-0.56-0.05-0.851-0.045c-0.374,0.006-0.766,0.063-1.146,0.085c-0.431,0.025-0.86,0.049-1.298,0.096
							c-0.223,0.024-0.437,0.02-0.662,0.049c-0.638,0.083-1.297,0.224-1.95,0.353c-0.267,0.053-0.527,0.084-0.796,0.144
							c-0.076,0.017-0.148,0.023-0.224,0.041c-0.956,0.22-1.927,0.488-2.911,0.805c-0.121,0.039-0.247,0.094-0.369,0.135
							c-0.283,0.094-0.571,0.211-0.857,0.313c-0.561,0.201-1.117,0.384-1.686,0.616c-0.387,0.158-0.783,0.357-1.174,0.53
							c-0.349,0.154-0.697,0.307-1.049,0.474c-0.249,0.118-0.492,0.212-0.742,0.335c-0.989,0.488-1.988,1.023-2.996,1.605
							l30.033,17.453c1.262-0.729,2.505-1.358,3.738-1.94c0.351-0.166,0.699-0.319,1.047-0.473
							C503.922,876.723,504.876,876.341,505.82,876.003z"/>
						<path style="fill:#2D2D2D;" d="M465.951,973.194c-0.551-0.516-1.101-1.035-1.603-1.621c-0.296-0.345-0.558-0.736-0.837-1.106
							c-0.429-0.569-0.856-1.139-1.242-1.764c-0.266-0.431-0.503-0.899-0.748-1.356c-0.342-0.637-0.676-1.282-0.976-1.969
							c-0.202-0.464-0.38-0.955-0.563-1.442c-0.332-0.884-0.63-1.805-0.894-2.762c-0.157-0.569-0.315-1.136-0.447-1.731
							c-0.131-0.592-0.243-1.202-0.35-1.819c-0.134-0.777-0.254-1.566-0.348-2.381c-0.058-0.508-0.112-1.02-0.154-1.543
							c-0.102-1.266-0.182-2.551-0.186-3.903c-0.004-1.536,0.066-3.095,0.187-4.666c0.024-0.312,0.066-0.628,0.095-0.941
							c0.111-1.191,0.255-2.388,0.434-3.592c0.066-0.443,0.133-0.886,0.208-1.33c0.211-1.253,0.458-2.511,0.738-3.771
							c0.062-0.278,0.11-0.554,0.175-0.832c0.361-1.541,0.776-3.086,1.235-4.63c0.154-0.516,0.335-1.03,0.499-1.546
							c0.338-1.06,0.684-2.12,1.065-3.176c0.326-0.905,0.69-1.804,1.047-2.704c0.306-0.77,0.603-1.542,0.931-2.308
							c0.852-1.99,1.77-3.965,2.762-5.91c0.214-0.418,0.452-0.825,0.671-1.24c0.755-1.427,1.536-2.841,2.36-4.231
							c0.365-0.615,0.746-1.219,1.124-1.826c0.745-1.197,1.513-2.378,2.306-3.539c0.41-0.6,0.821-1.2,1.243-1.789
							c0.876-1.222,1.784-2.412,2.71-3.583c0.359-0.454,0.705-0.922,1.071-1.368c1.299-1.582,2.638-3.115,4.02-4.579
							c0.217-0.23,0.447-0.438,0.666-0.665c1.217-1.261,2.462-2.471,3.734-3.628c0.602-0.547,1.214-1.073,1.827-1.596
							c0.648-0.552,1.298-1.103,1.958-1.625c0.783-0.62,1.576-1.211,2.374-1.788c0.446-0.322,0.888-0.656,1.338-0.964
							c1.248-0.853,2.508-1.668,3.787-2.406l-30.033-17.453c-0.029,0.017-0.059,0.034-0.088,0.051
							c-1.09,0.632-2.169,1.307-3.237,2.023c-0.155,0.104-0.305,0.225-0.46,0.331c-0.453,0.31-0.896,0.645-1.345,0.968
							c-0.555,0.401-1.117,0.777-1.664,1.199c-0.239,0.184-0.467,0.397-0.705,0.585c-0.66,0.523-1.307,1.072-1.956,1.624
							c-0.421,0.359-0.856,0.685-1.272,1.056c-0.191,0.17-0.367,0.369-0.557,0.541c-1.27,1.155-2.511,2.362-3.727,3.62
							c-0.184,0.191-0.383,0.356-0.566,0.549c-0.038,0.04-0.072,0.085-0.11,0.125c-1.382,1.464-2.719,2.996-4.018,4.577
							c-0.368,0.448-0.714,0.917-1.075,1.373c-0.924,1.169-1.829,2.355-2.704,3.576c-0.424,0.592-0.835,1.191-1.247,1.795
							c-0.793,1.161-1.559,2.339-2.305,3.536c-0.378,0.608-0.758,1.21-1.124,1.826c-0.824,1.391-1.605,2.803-2.36,4.231
							c-0.181,0.342-0.389,0.671-0.566,1.015c-0.038,0.074-0.067,0.151-0.105,0.225c-0.993,1.946-1.91,3.919-2.762,5.91
							c-0.066,0.154-0.149,0.303-0.214,0.457c-0.259,0.613-0.472,1.235-0.717,1.851c-0.358,0.901-0.72,1.798-1.047,2.703
							c-0.075,0.207-0.166,0.411-0.239,0.618c-0.302,0.856-0.558,1.716-0.832,2.574c-0.162,0.509-0.341,1.016-0.493,1.526
							c-0.033,0.112-0.075,0.223-0.108,0.334c-0.397,1.352-0.756,2.706-1.077,4.057c-0.019,0.08-0.032,0.159-0.051,0.239
							c-0.067,0.284-0.116,0.565-0.179,0.848c-0.203,0.91-0.409,1.82-0.575,2.727c-0.063,0.346-0.103,0.688-0.161,1.032
							c-0.075,0.445-0.142,0.887-0.208,1.33c-0.064,0.433-0.148,0.869-0.203,1.301c-0.099,0.768-0.16,1.529-0.23,2.292
							c-0.029,0.313-0.07,0.629-0.095,0.941c-0.009,0.119-0.027,0.24-0.036,0.359c-0.087,1.21-0.137,2.412-0.149,3.602
							c-0.002,0.236-0.003,0.471-0.002,0.706c0.003,1.004,0.033,1.984,0.09,2.941c0.02,0.333,0.07,0.639,0.096,0.966
							c0.042,0.52,0.095,1.029,0.153,1.534c0.045,0.394,0.065,0.813,0.119,1.198c0.059,0.414,0.159,0.786,0.229,1.19
							c0.107,0.616,0.218,1.225,0.35,1.817c0.062,0.28,0.098,0.587,0.166,0.861c0.076,0.308,0.198,0.568,0.281,0.869
							c0.264,0.957,0.562,1.876,0.893,2.76c0.106,0.282,0.173,0.607,0.285,0.881c0.082,0.201,0.194,0.367,0.28,0.564
							c0.299,0.686,0.632,1.328,0.973,1.964c0.246,0.459,0.483,0.928,0.75,1.36c0.387,0.625,0.813,1.196,1.243,1.765
							c0.278,0.368,0.539,0.758,0.835,1.103c0.505,0.589,1.055,1.109,1.609,1.627c0.271,0.253,0.519,0.539,0.802,0.776
							c0.858,0.719,1.762,1.368,2.72,1.924l30.033,17.453c-0.957-0.556-1.861-1.205-2.719-1.924
							C466.474,973.738,466.223,973.449,465.951,973.194z"/>
						<path style="fill:#4F4F4F;" d="M498.171,879.563c-22.472,12.974-40.641,44.412-40.568,70.235
							c0.073,25.822,18.36,36.244,40.833,23.269c22.472-12.974,40.614-44.428,40.54-70.25
							C538.903,876.995,520.643,866.589,498.171,879.563z"/>
					</g>
				</g>
				<path style="fill:#D1D1D1;" d="M500.613,903.587c-12.29,7.095-22.226,24.289-22.186,38.411
					c0.04,14.122,10.041,19.821,22.331,12.726c12.29-7.096,22.211-24.297,22.171-38.419
					C522.889,902.182,512.903,896.492,500.613,903.587z"/>
				<path style="fill:#D1D1D1;" d="M480.203,944.836c-0.04-14.122,9.896-31.315,22.186-38.41c7.911-4.567,14.849-3.813,18.812,1.054
					c-3.372-7.319-11.322-9.244-20.588-3.895c-12.29,7.096-22.226,24.289-22.186,38.411c0.014,5.03,1.31,8.967,3.505,11.662
					C480.831,951.268,480.212,948.31,480.203,944.836z"/>
			</g>
			<g>
				<g>
					<g style="enable-background:new    ;">
						<path style="fill:#292929;" d="M900.956,660.094c0.284-0.102,0.571-0.218,0.853-0.312c1.188-0.396,2.358-0.725,3.505-0.981
							c0.27-0.06,0.529-0.092,0.796-0.144c0.884-0.174,1.756-0.311,2.612-0.402c0.438-0.046,0.868-0.071,1.298-0.096
							c0.676-0.04,1.342-0.053,1.997-0.04c0.547,0.01,1.085,0.039,1.617,0.086c0.525,0.045,1.038,0.114,1.548,0.194
							c0.873,0.137,1.719,0.332,2.545,0.568c0.383,0.109,0.774,0.2,1.146,0.33c1.173,0.411,2.308,0.896,3.369,1.512
							c0.003,0.002,0.007,0.003,0.01,0.005l-0.002-0.001l0.002,0l-30.032-17.453c-1.065-0.618-2.203-1.105-3.38-1.517
							c-0.114-0.04-0.214-0.109-0.329-0.148c-0.259-0.086-0.549-0.106-0.813-0.182c-0.827-0.237-1.673-0.432-2.547-0.569
							c-0.227-0.036-0.431-0.119-0.661-0.148c-0.287-0.036-0.595-0.022-0.887-0.047c-0.532-0.046-1.07-0.075-1.617-0.086
							c-0.288-0.005-0.56-0.05-0.851-0.045c-0.374,0.006-0.766,0.063-1.146,0.085c-0.431,0.026-0.86,0.049-1.298,0.096
							c-0.223,0.024-0.437,0.02-0.662,0.049c-0.638,0.083-1.297,0.224-1.95,0.353c-0.267,0.052-0.527,0.084-0.796,0.144
							c-0.076,0.017-0.148,0.023-0.224,0.041c-0.956,0.22-1.927,0.488-2.911,0.805c-0.122,0.039-0.247,0.094-0.369,0.135
							c-0.283,0.094-0.571,0.211-0.857,0.313c-0.561,0.201-1.117,0.384-1.686,0.616c-0.387,0.158-0.783,0.357-1.174,0.53
							c-0.349,0.154-0.697,0.307-1.049,0.474c-0.249,0.118-0.492,0.212-0.742,0.335c-0.989,0.488-1.988,1.023-2.996,1.605
							l30.032,17.453c1.262-0.729,2.505-1.358,3.738-1.94c0.351-0.166,0.699-0.319,1.047-0.473
							C899.058,660.815,900.013,660.433,900.956,660.094z"/>
						<path style="fill:#2D2D2D;" d="M861.087,757.286c-0.551-0.516-1.101-1.035-1.603-1.621c-0.296-0.345-0.558-0.736-0.837-1.106
							c-0.429-0.569-0.856-1.139-1.242-1.764c-0.266-0.431-0.503-0.899-0.748-1.356c-0.342-0.637-0.676-1.282-0.976-1.969
							c-0.202-0.464-0.38-0.955-0.563-1.442c-0.332-0.884-0.63-1.805-0.894-2.762c-0.157-0.569-0.315-1.136-0.447-1.731
							c-0.131-0.592-0.243-1.202-0.35-1.819c-0.134-0.777-0.254-1.566-0.348-2.381c-0.058-0.508-0.112-1.02-0.154-1.543
							c-0.102-1.266-0.182-2.551-0.186-3.903c-0.004-1.536,0.066-3.095,0.187-4.666c0.024-0.312,0.066-0.628,0.095-0.941
							c0.11-1.191,0.255-2.388,0.434-3.593c0.066-0.443,0.133-0.886,0.208-1.33c0.211-1.253,0.458-2.51,0.738-3.771
							c0.062-0.278,0.11-0.554,0.175-0.832c0.361-1.541,0.776-3.086,1.235-4.63c0.154-0.516,0.335-1.03,0.499-1.546
							c0.338-1.06,0.684-2.12,1.065-3.176c0.326-0.905,0.69-1.804,1.047-2.704c0.306-0.77,0.603-1.542,0.931-2.308
							c0.852-1.99,1.77-3.965,2.762-5.91c0.214-0.418,0.452-0.825,0.672-1.24c0.754-1.427,1.536-2.841,2.36-4.231
							c0.365-0.615,0.746-1.219,1.123-1.826c0.745-1.197,1.513-2.378,2.306-3.539c0.41-0.6,0.821-1.2,1.243-1.789
							c0.876-1.222,1.784-2.412,2.709-3.583c0.359-0.454,0.705-0.922,1.071-1.368c1.299-1.582,2.638-3.115,4.02-4.58
							c0.217-0.23,0.447-0.438,0.666-0.665c1.217-1.261,2.462-2.471,3.734-3.628c0.602-0.547,1.214-1.073,1.827-1.596
							c0.648-0.552,1.298-1.103,1.958-1.625c0.783-0.62,1.576-1.211,2.374-1.788c0.446-0.322,0.888-0.656,1.338-0.964
							c1.248-0.853,2.508-1.668,3.787-2.406l-30.032-17.453c-0.029,0.017-0.059,0.034-0.088,0.051
							c-1.09,0.632-2.169,1.307-3.237,2.023c-0.155,0.104-0.305,0.226-0.46,0.331c-0.453,0.31-0.896,0.644-1.345,0.968
							c-0.554,0.401-1.117,0.777-1.664,1.199c-0.239,0.184-0.467,0.397-0.705,0.585c-0.66,0.523-1.308,1.072-1.956,1.624
							c-0.421,0.359-0.856,0.686-1.272,1.057c-0.191,0.17-0.367,0.369-0.557,0.541c-1.27,1.155-2.511,2.362-3.727,3.62
							c-0.184,0.191-0.383,0.356-0.566,0.549c-0.038,0.04-0.072,0.085-0.11,0.125c-1.382,1.464-2.719,2.996-4.018,4.577
							c-0.368,0.448-0.714,0.917-1.075,1.373c-0.924,1.169-1.829,2.356-2.704,3.576c-0.424,0.592-0.835,1.191-1.247,1.794
							c-0.793,1.161-1.559,2.339-2.305,3.536c-0.378,0.608-0.758,1.21-1.124,1.826c-0.824,1.391-1.606,2.803-2.36,4.231
							c-0.181,0.342-0.389,0.671-0.566,1.015c-0.038,0.074-0.067,0.151-0.105,0.226c-0.993,1.946-1.909,3.919-2.762,5.91
							c-0.066,0.154-0.149,0.303-0.214,0.457c-0.259,0.613-0.472,1.235-0.717,1.851c-0.358,0.901-0.72,1.798-1.047,2.704
							c-0.075,0.207-0.166,0.411-0.239,0.618c-0.302,0.856-0.558,1.715-0.831,2.574c-0.162,0.509-0.341,1.016-0.493,1.526
							c-0.033,0.112-0.075,0.223-0.108,0.334c-0.397,1.352-0.756,2.706-1.077,4.056c-0.019,0.08-0.032,0.159-0.051,0.239
							c-0.067,0.283-0.116,0.565-0.179,0.848c-0.203,0.91-0.408,1.821-0.575,2.727c-0.063,0.346-0.103,0.688-0.161,1.032
							c-0.075,0.445-0.142,0.887-0.208,1.33c-0.064,0.433-0.148,0.87-0.203,1.301c-0.099,0.768-0.16,1.529-0.23,2.292
							c-0.029,0.313-0.07,0.629-0.095,0.941c-0.009,0.119-0.028,0.24-0.036,0.359c-0.087,1.21-0.137,2.412-0.149,3.602
							c-0.002,0.236-0.003,0.471-0.002,0.706c0.003,1.004,0.033,1.984,0.09,2.941c0.02,0.333,0.07,0.639,0.096,0.966
							c0.042,0.521,0.095,1.029,0.153,1.534c0.045,0.395,0.065,0.813,0.119,1.198c0.059,0.414,0.159,0.786,0.229,1.19
							c0.107,0.616,0.218,1.226,0.35,1.817c0.062,0.28,0.098,0.587,0.166,0.861c0.076,0.308,0.198,0.568,0.281,0.869
							c0.264,0.957,0.562,1.876,0.893,2.76c0.106,0.282,0.173,0.607,0.285,0.881c0.082,0.201,0.194,0.367,0.28,0.564
							c0.299,0.686,0.632,1.328,0.973,1.964c0.246,0.459,0.483,0.927,0.75,1.36c0.387,0.625,0.813,1.196,1.243,1.766
							c0.278,0.368,0.539,0.758,0.835,1.103c0.505,0.589,1.055,1.109,1.609,1.627c0.271,0.253,0.519,0.539,0.802,0.776
							c0.859,0.719,1.762,1.368,2.72,1.924l30.032,17.453c-0.957-0.556-1.861-1.205-2.719-1.923
							C861.61,757.83,861.36,757.541,861.087,757.286z"/>
						<path style="fill:#4F4F4F;" d="M893.307,663.655c-22.472,12.974-40.641,44.412-40.568,70.235
							c0.073,25.822,18.36,36.243,40.833,23.269c22.472-12.974,40.614-44.428,40.54-70.25
							C934.039,661.086,915.779,650.681,893.307,663.655z"/>
					</g>
				</g>
				<path style="fill:#D1D1D1;" d="M895.749,687.679c-12.29,7.095-22.226,24.289-22.186,38.411
					c0.04,14.122,10.041,19.821,22.331,12.726c12.29-7.095,22.211-24.297,22.171-38.419
					C918.025,686.274,908.039,680.583,895.749,687.679z"/>
				<path style="fill:#D1D1D1;" d="M875.339,728.928c-0.04-14.122,9.896-31.315,22.186-38.411
					c7.911-4.567,14.849-3.813,18.812,1.054c-3.372-7.319-11.322-9.244-20.588-3.895c-12.29,7.096-22.226,24.289-22.186,38.411
					c0.014,5.03,1.31,8.967,3.505,11.662C875.967,735.36,875.349,732.402,875.339,728.928z"/>
			</g>
			<path style="opacity:0.27;fill:#2F2F2F;" d="M709.2,718.102l19.176,11.119l8.27-4.791l-19.171-11.116
				c-2.273-1.318-5.967-1.311-8.246,0.008C706.943,714.645,706.926,716.784,709.2,718.102z"/>
			<path style="opacity:0.27;fill:#2F2F2F;" d="M644.214,755.707c-2.273-1.318-5.96-1.315-8.246,0.008l-5.055,2.925
				c-2.286,1.323-2.296,3.458-0.022,4.776l19.219,11.143l13.316-7.714L644.214,755.707z"/>
			<polygon style="opacity:0.27;fill:#2F2F2F;" points="736.646,724.43 728.376,729.221 746.396,739.67 754.688,734.892 			"/>
			<path style="opacity:0.27;fill:#2F2F2F;" d="M854.283,638.365l16.349,8.449l13.049-7.559l-16.075-8.599
				c-2.273-1.318-5.96-1.314-8.246,0.008l-5.055,2.925C852.019,634.911,852.009,637.047,854.283,638.365z"/>
			<path style="opacity:0.27;fill:#2F2F2F;" d="M783.195,675.284l19.135,11.095l8.263-4.787L791.464,670.5
				c-2.273-1.318-5.96-1.315-8.246,0.008C780.932,671.831,780.922,673.966,783.195,675.284z"/>
			<path style="opacity:0.27;fill:#2F2F2F;" d="M673.023,524.772c-2.317-1.344-6.076-1.34-8.406,0.008l-5.153,2.982
				c-2.33,1.348-2.34,3.525-0.023,4.869l59.409,34.438l-65.127,37.684l-56.708-32.883c-2.318-1.344-6.076-1.34-8.406,0.008
				c-2.33,1.348-2.341,3.525-0.023,4.869l56.708,32.883l-66.998,38.767l-56.708-32.883c-2.318-1.344-6.083-1.336-8.406,0.008
				c-2.33,1.348-2.347,3.529-0.03,4.873l56.708,32.883l-37.715,21.823l10.338,5.955l37.918-21.94l36.05,21.459l-37.319,21.594
				l16.363,9.427l37.509-21.703l8.436-4.881l66.998-38.767l8.429-4.877l65.127-37.684l7.807-4.518
				c3.195-1.849,3.202-4.833,0.031-6.672l-10.566-6.127l-35.414-20.535l-11.419-6.622L673.023,524.772z M656.537,615.062
				l36.529,21.182l-66.998,38.767l-36.529-21.182L656.537,615.062z M729.154,573.044l36.529,21.182l-65.127,37.684l-36.529-21.182
				L729.154,573.044z"/>
			<g style="opacity:0.18;">
				<polygon style="fill:#9DB4C7;" points="262.037,507.973 398.226,431.574 398.565,560.764 209.191,670.099 				"/>
			</g>
			<path style="fill:#3D3D3D;" d="M408.77,416.263c-1.607,8.024-3.133,245.081-3.133,245.081l227.69,130.009l4.595-252.995
				L408.77,416.263z"/>
			<g>
				<polygon style="fill:#C6C6C6;" points="656.201,450.951 405.445,305.543 405.942,563.019 656.745,702.395 				"/>
				<polygon style="fill:#C6C6C6;" points="405.988,555.568 406.212,658.436 637.432,792.516 638.021,689.282 				"/>
				<polygon style="fill:#7F3434;" points="656.742,702.161 638.021,691.372 637.432,792.516 656.968,805.079 				"/>
			</g>
			<g style="opacity:0.37;">
				<polygon style="fill:#EFEFEF;" points="398.226,431.574 262.037,507.973 239.207,578.013 398.368,485.559 				"/>
			</g>
			<g>
				<polygon style="fill:#434551;" points="493.075,642.238 629.265,565.839 629.603,695.029 440.23,804.364 				"/>
			</g>
			<g>
				<polygon style="fill:#AF5454;" points="351.869,966.943 120.831,832.678 134.729,721.312 365.768,855.577 				"/>
			</g>
			<g>
				<polygon style="fill:#CF6A67;" points="365.768,855.577 134.729,721.312 188.958,690.003 419.996,824.268 				"/>
			</g>
			<g>
				<polygon style="fill:#EFEFEF;" points="483.922,627.269 252.883,493.004 413.297,400.39 644.335,534.655 				"/>
			</g>
			<polygon style="fill:#434551;" points="266.202,523.177 211.449,682.37 406.741,796.308 462.548,637.731 			"/>
			<g>
				<g style="enable-background:new    ;">
					<path style="fill:#EBEBEB;" d="M592.192,741.369c-0.125-0.073-0.244-0.156-0.356-0.248l-0.003-0.002
						c-0.113-0.093-0.218-0.195-0.317-0.307c-0.001-0.001-0.001-0.002-0.002-0.003c-0.099-0.112-0.191-0.233-0.275-0.364
						c-0.001-0.002-0.002-0.003-0.003-0.005c-0.084-0.131-0.161-0.271-0.231-0.419c0,0-0.002-0.004-0.003-0.006
						c-0.069-0.149-0.132-0.307-0.185-0.474l-0.001-0.005c-0.054-0.167-0.1-0.343-0.137-0.528l-0.001-0.004
						c-0.036-0.181-0.064-0.371-0.083-0.569c-0.001-0.011-0.002-0.021-0.003-0.032c-0.018-0.198-0.029-0.404-0.029-0.618
						l-6.175-3.589c0,0.056,0.001,0.111,0.002,0.166c0.003,0.119,0.009,0.236,0.018,0.35c0.003,0.034,0.007,0.068,0.01,0.102
						c0.001,0.011,0.002,0.021,0.003,0.032c0.002,0.022,0.004,0.045,0.006,0.068c0.007,0.066,0.015,0.131,0.025,0.195
						c0.008,0.055,0.016,0.109,0.026,0.162c0.008,0.046,0.016,0.091,0.025,0.135c0.001,0.003,0.001,0.006,0.002,0.009l0,0.004
						c0.008,0.04,0.017,0.08,0.026,0.119c0.009,0.042,0.02,0.084,0.03,0.125c0.009,0.034,0.018,0.069,0.027,0.102
						c0.009,0.034,0.019,0.067,0.029,0.101c0.008,0.027,0.016,0.054,0.025,0.081c0,0.001,0.001,0.003,0.001,0.003
						c0.002,0.006,0.003,0.01,0.005,0.015c0.01,0.032,0.021,0.065,0.032,0.096c0.01,0.027,0.02,0.055,0.03,0.081
						c0.01,0.027,0.021,0.053,0.031,0.08c0.011,0.026,0.021,0.052,0.033,0.078c0.011,0.026,0.022,0.052,0.034,0.077
						c0.007,0.016,0.014,0.032,0.022,0.048c0.001,0.002,0.002,0.004,0.003,0.006c0.003,0.007,0.007,0.014,0.01,0.02
						c0.01,0.022,0.021,0.045,0.032,0.067c0.011,0.022,0.022,0.044,0.034,0.065c0.012,0.022,0.023,0.043,0.035,0.064
						c0.012,0.021,0.023,0.042,0.035,0.063c0.012,0.021,0.024,0.041,0.037,0.062c0.012,0.019,0.024,0.038,0.035,0.057
						c0.005,0.007,0.009,0.014,0.014,0.021c0,0,0.002,0.003,0.003,0.004c0.007,0.01,0.013,0.02,0.019,0.03
						c0.012,0.018,0.025,0.036,0.037,0.054c0.012,0.018,0.025,0.036,0.038,0.053c0.013,0.017,0.026,0.035,0.039,0.052
						c0.012,0.017,0.026,0.034,0.039,0.051c0.013,0.016,0.026,0.032,0.038,0.047c0.013,0.016,0.026,0.031,0.04,0.046
						c0.008,0.01,0.017,0.02,0.026,0.03c0.001,0.001,0.002,0.002,0.002,0.002c0.004,0.005,0.008,0.009,0.011,0.013
						c0.013,0.015,0.027,0.03,0.04,0.044c0.014,0.015,0.027,0.029,0.041,0.043c0.014,0.014,0.028,0.028,0.042,0.042
						c0.014,0.014,0.028,0.027,0.042,0.041c0.014,0.013,0.028,0.026,0.043,0.039c0.014,0.013,0.028,0.026,0.043,0.038
						c0.014,0.013,0.029,0.025,0.044,0.037c0.004,0.003,0.007,0.006,0.011,0.009c0.001,0.001,0.002,0.002,0.004,0.003
						c0.01,0.008,0.02,0.016,0.03,0.025c0.015,0.012,0.03,0.024,0.045,0.035c0.015,0.012,0.03,0.023,0.046,0.034
						c0.015,0.011,0.031,0.022,0.047,0.033c0.015,0.011,0.031,0.022,0.047,0.032c0.016,0.011,0.032,0.021,0.048,0.031
						c0.016,0.01,0.032,0.02,0.048,0.03c0.014,0.009,0.029,0.018,0.044,0.026l0.001,0.001L592.192,741.369z"/>
					<g>
						<path style="fill:#CFCFCF;" d="M635.849,711.64c0.01,3.544-2.482,7.868-5.573,9.653l-34.1,19.688
							c-3.091,1.784-5.605,0.351-5.615-3.193L635.849,711.64z"/>
					</g>
					<g>
						<polygon style="fill:#C9C9C9;" points="590.56,737.787 584.385,734.198 629.674,708.051 635.849,711.64 						"/>
					</g>
				</g>
			</g>
			<path style="fill:#767884;" d="M439.226,704.002l23.323-66.271L266.202,523.177l-23.315,67.786
				C283.886,615.964,398.786,681.126,439.226,704.002z"/>
			<g>
				<polygon style="fill:#767884;" points="629.265,565.839 493.075,642.238 470.245,712.278 629.406,619.824 				"/>
			</g>
			<path style="fill:#DDDDDD;" d="M483.922,627.315l-63.484,195.638l224.205-127.822L644.335,534.7L483.922,627.315z
				 M440.23,804.409l53.118-161.998l135.918-76.247l0.338,128.91L440.23,804.409z"/>
			<path style="fill:#994141;" d="M353.103,966.858l106.928-61.752c5.906-14.728,21.194-31.889,33.298-39.873l-137.573,80.363
				L353.103,966.858z"/>
			<path style="fill:#994141;" d="M644.643,695.131L420.438,822.953l-0.441,1.36l-54.229,31.309l-13.962,111.822l102.828-74.308
				c0.868-0.573,34.471-25.132,35.355-25.643c0.837-0.483,1.592-1.079,2.415-1.49L644.8,798.119L644.643,695.131z"/>
			<path style="fill:#994141;" d="M644.8,777.516l-152.428,88.476c12.164-6.076,22.7-4.332,28.687,3.567l123.778-71.483v-20.539
				l-0.037,0.022L644.8,777.516z"/>
			<g>
				<g>
					<g style="enable-background:new    ;">
						<path style="fill:#AEAEAE;" d="M427.87,812.24l8.078-4.694c-0.043-0.025-0.085-0.048-0.127-0.07
							c-0.061-0.032-0.122-0.062-0.182-0.09c-0.069-0.032-0.138-0.061-0.206-0.087c-0.09-0.034-0.178-0.063-0.265-0.086
							c-0.096-0.026-0.178-0.013-0.27-0.027c-0.086-0.013-0.166-0.023-0.248-0.025c-0.317-0.009-0.616,0.032-0.861,0.175
							l-8.078,4.694c0.245-0.142,0.544-0.183,0.861-0.175c0.081,0.002,0.164,0.012,0.248,0.025
							C427.15,811.929,427.498,812.025,427.87,812.24z"/>
						<polygon style="fill:#B3B3B3;" points="435.948,807.546 427.87,812.24 433.992,815.775 442.07,811.08 						"/>
						<path style="fill:#9E9E9E;" d="M433.992,815.775l-6.122-3.535c-1.659-0.958-3.029-0.205-3.034,1.701
							c-0.006,1.934,1.356,4.264,3.015,5.222l6.122,3.535c1.683,0.972,3.029,0.205,3.034-1.729
							C437.013,819.063,435.676,816.746,433.992,815.775z"/>
						<path style="fill:#A7A7A7;" d="M445.082,816.093c-0.002-0.054-0.005-0.108-0.01-0.163c-0.004-0.051-0.009-0.101-0.014-0.152
							c-0.005-0.046-0.011-0.093-0.017-0.14c-0.006-0.041-0.012-0.082-0.019-0.123c-0.007-0.041-0.014-0.082-0.022-0.123
							c-0.006-0.032-0.012-0.064-0.019-0.096c-0.007-0.032-0.014-0.064-0.021-0.096c-0.007-0.032-0.015-0.064-0.023-0.096
							c-0.007-0.028-0.014-0.057-0.022-0.085c-0.007-0.028-0.015-0.056-0.023-0.084c-0.008-0.028-0.016-0.056-0.024-0.084
							c-0.005-0.018-0.011-0.036-0.016-0.054l0-0.001c-0.003-0.01-0.006-0.02-0.009-0.031c-0.009-0.03-0.019-0.06-0.028-0.089
							c-0.009-0.03-0.02-0.06-0.03-0.089c-0.01-0.03-0.021-0.059-0.031-0.089c-0.017-0.048-0.035-0.096-0.053-0.144
							c-0.018-0.048-0.037-0.096-0.057-0.144c-0.044-0.107-0.091-0.214-0.14-0.32c-0.021-0.044-0.042-0.089-0.064-0.133
							c-0.022-0.044-0.044-0.088-0.066-0.132c-0.014-0.027-0.028-0.054-0.042-0.081c-0.013-0.025-0.027-0.05-0.04-0.074
							c-0.014-0.024-0.027-0.049-0.041-0.074c-0.014-0.024-0.028-0.049-0.042-0.073c-0.012-0.021-0.025-0.042-0.037-0.063
							c-0.012-0.021-0.025-0.042-0.038-0.063c-0.013-0.021-0.026-0.042-0.038-0.062c-0.013-0.021-0.026-0.042-0.039-0.062
							c-0.013-0.021-0.027-0.042-0.041-0.064c-0.014-0.021-0.028-0.043-0.042-0.065c-0.014-0.021-0.029-0.043-0.043-0.064
							c-0.014-0.021-0.029-0.042-0.044-0.063c-0.016-0.023-0.032-0.045-0.048-0.068c-0.018-0.025-0.036-0.05-0.054-0.075
							c-0.018-0.025-0.037-0.05-0.055-0.074c-0.019-0.025-0.037-0.049-0.056-0.073c-0.023-0.03-0.046-0.06-0.07-0.089
							c-0.024-0.03-0.048-0.06-0.073-0.09c-0.025-0.03-0.051-0.06-0.076-0.09c-0.03-0.035-0.061-0.07-0.092-0.104
							c-0.031-0.034-0.062-0.068-0.093-0.102c-0.005-0.006-0.01-0.011-0.016-0.016c-0.001-0.001-0.002-0.002-0.003-0.003
							c-0.029-0.03-0.057-0.061-0.086-0.09c-0.036-0.037-0.073-0.073-0.11-0.109c-0.039-0.037-0.078-0.074-0.117-0.11
							c-0.04-0.037-0.08-0.073-0.121-0.108c-0.042-0.037-0.085-0.072-0.128-0.107c-0.043-0.035-0.087-0.069-0.131-0.103
							c-0.046-0.035-0.093-0.07-0.14-0.103c-0.048-0.034-0.097-0.067-0.146-0.099c-0.052-0.034-0.105-0.066-0.157-0.098
							c-0.014-0.008-0.028-0.017-0.042-0.025l-8.078,4.694c0.42,0.242,0.818,0.569,1.179,0.951c0.002,0.002,0.003,0.003,0.005,0.005
							c0.723,0.767,1.297,1.759,1.598,2.758l0,0.001c0.151,0.5,0.233,1.002,0.232,1.478c-0.001,0.48-0.085,0.888-0.237,1.216
							l0,0.001c-0.151,0.327-0.37,0.574-0.64,0.731l0,0l0,0l0,0l8.078-4.694c0.027-0.016,0.053-0.032,0.079-0.05
							c0.041-0.027,0.081-0.057,0.119-0.089c0.035-0.029,0.069-0.06,0.101-0.093c0.029-0.029,0.058-0.06,0.085-0.092
							c0.026-0.031,0.051-0.063,0.076-0.097c0.023-0.032,0.046-0.065,0.067-0.1c0.021-0.033,0.04-0.067,0.059-0.102
							c0.019-0.034,0.037-0.07,0.054-0.107l0.001-0.002l0.001-0.002c0.016-0.034,0.031-0.07,0.046-0.106
							c0.015-0.037,0.029-0.076,0.042-0.115c0.013-0.039,0.026-0.079,0.037-0.12c0.012-0.041,0.022-0.083,0.032-0.127
							c0.01-0.044,0.019-0.088,0.027-0.134c0.008-0.046,0.016-0.094,0.022-0.142c0.007-0.049,0.012-0.1,0.016-0.151
							c0.005-0.053,0.008-0.107,0.01-0.162c0.002-0.052,0.003-0.104,0.003-0.158c0,0,0-0.008,0-0.012
							C445.085,816.206,445.084,816.15,445.082,816.093z"/>
					</g>
				</g>
				<g>
					<path style="fill:#1F222D;" d="M478.753,815.117c-0.059-0.5-0.13-0.988-0.23-1.49l-0.229-1.048l-0.211-0.79l-0.046-0.145
						c-0.012-0.044-0.026-0.095-0.038-0.136l-0.122-0.371l-0.113-0.359c0.006,0.02,0.007,0.037,0.014,0.057l-0.109-0.33
						c-0.007-0.021-0.019-0.048-0.027-0.07c-0.094-0.253-0.185-0.501-0.288-0.752c-0.02-0.051-0.042-0.109-0.06-0.156l-0.26-0.594
						c-0.054-0.125-0.104-0.24-0.161-0.367c-0.128-0.274-0.307-0.623-0.438-0.89l-0.486-0.887c-0.152-0.263-0.367-0.605-0.525-0.865
						l-0.564-0.842c-0.004-0.005-0.008-0.011-0.012-0.016l-0.01-0.015c0.002,0.003,0.004,0.007,0.006,0.009
						c-0.178-0.252-0.419-0.569-0.6-0.813l-0.65-0.802c-0.213-0.25-0.51-0.571-0.729-0.815l-0.716-0.724
						c0.037,0.036,0.075,0.072,0.107,0.103c-0.043-0.041-0.099-0.096-0.141-0.138c-0.01-0.01-0.025-0.022-0.035-0.032
						c-0.045-0.043-0.09-0.087-0.129-0.124v0c-0.03-0.028-0.057-0.045-0.088-0.073c-0.02-0.018-0.038-0.035-0.058-0.053
						c-0.076-0.07-0.152-0.14-0.228-0.208c-0.119-0.107-0.239-0.217-0.341-0.31l-0.866-0.702c-0.084-0.064-0.189-0.134-0.285-0.203
						c-0.062-0.046-0.132-0.094-0.194-0.139c-0.209-0.148-0.417-0.298-0.596-0.425c-0.298-0.185-0.696-0.431-0.994-0.616l0,0
						l-0.001-0.001c0.001,0.001,0.002,0.001,0.002,0.001l-0.785-0.453l-1.3-0.75l-1.298-0.75l-1.294-0.747
						c-1.489-0.86-2.979-1.72-4.468-2.58l-0.644-0.372l-1.066-0.615c-1.105-0.638-2.21-1.276-3.315-1.914l-0.56-0.323l-0.294-0.169
						c-0.672-0.388-1.344-0.776-2.015-1.163l-0.069-0.04l-0.117-0.068c-1.028-0.593-2.057-1.187-3.085-1.781l-0.217-0.126
						l-0.329-0.19c-1.095-0.632-2.19-1.264-3.285-1.897c-0.225-0.13-0.447-0.25-0.665-0.362c-0.243-0.124-0.482-0.237-0.716-0.339
						c-0.091-0.039-0.179-0.069-0.269-0.106c-0.044-0.018-0.088-0.035-0.132-0.052c-0.086-0.033-0.174-0.072-0.259-0.102
						c-0.215-0.076-0.426-0.141-0.633-0.195c-0.209-0.055-0.414-0.099-0.614-0.132h-0.001c-0.003,0-0.004,0-0.007-0.001
						c-0.216-0.036-0.428-0.057-0.633-0.066c-0.244-0.01-0.479-0.001-0.705,0.028c-0.009,0.001-0.016,0.007-0.025,0.008
						c-0.108,0.015-0.198,0.069-0.302,0.092c-0.273,0.062-0.549,0.116-0.792,0.242c-0.045,0.023-0.09,0.047-0.134,0.073l-0.001,0
						l0,0l-2.07,1.203c-0.097,0.057-0.191,0.118-0.281,0.184c-0.182,0.133-0.311,0.341-0.465,0.513
						c-0.122,0.136-0.261,0.245-0.366,0.404c-0.022,0.033-0.055,0.05-0.076,0.085c-0.125,0.202-0.238,0.421-0.338,0.657
						c-0.085,0.2-0.161,0.413-0.228,0.636l-0.001,0.004c-0.001,0.003-0.002,0.008-0.003,0.011c-0.063,0.21-0.118,0.43-0.165,0.661
						c-0.047,0.229-0.086,0.468-0.118,0.716c-0.021,0.161-0.032,0.332-0.046,0.5c-0.003,0.04-0.008,0.079-0.011,0.12
						c-0.004,0.059-0.013,0.114-0.016,0.174c-0.017,0.275-0.024,0.561-0.025,0.854l-0.001-0.014l-0.001,0.216
						c-0.003,0.911-0.005,1.823-0.008,2.735l-0.002,0.533l-0.001,0.4c-0.007,2.291-0.013,4.583-0.02,6.875l-0.001,0.208
						l-0.002,0.558c-0.005,1.932-0.011,3.864-0.017,5.796c-0.003,1.129-0.006,2.258-0.009,3.387l-0.001,0.297l-0.002,0.57
						c-0.003,0.971-0.005,1.943-0.008,2.914c0,0,0.048-0.025,0.06-0.03c-0.011,0.005-0.059,0.031-0.059,0.031l0.405,0.234
						l1.044,0.603l1.07,0.618l0.659,0.38l0.539,0.311c0.481,0.278,0.962,0.555,1.443,0.833l0.259,0.15l1.153,0.666l0.426,0.246
						c0.84,0.486,1.681,0.971,2.522,1.456l0.623,0.36l1.223,0.706l1.206,0.697c1.956,1.129,3.912,2.259,5.869,3.388l0.512,0.296
						l0.29,0.167c1.632,0.943,3.265,1.885,4.897,2.828l0,0l0.137,0.078l1.046,0.548c0.218,0.102,0.479,0.207,0.739,0.315
						c0.102,0.043,0.203,0.09,0.303,0.13c0.094,0.038,0.19,0.085,0.283,0.121c0.016,0.007,0.036,0.016,0.052,0.022l1.1,0.365
						c0.051,0.014,0.117,0.026,0.172,0.04c0.152,0.043,0.28,0.069,0.424,0.105c0.248,0.061,0.491,0.119,0.73,0.164
						c0.064,0.014,0.137,0.033,0.196,0.046l0.12,0.016c0.26,0.043,0.461,0.066,0.677,0.089l0.328,0.043l0.188,0.014
						c0.142,0.009,0.274,0.008,0.412,0.013l0.79,0.016c0.126-0.006,0.277-0.028,0.418-0.04c0.149-0.011,0.298-0.017,0.441-0.033
						c0.133-0.013,0.259-0.029,0.387-0.046c0.12-0.014,0.251-0.022,0.358-0.034l1.076-0.236c0.466-0.14,1.073-0.371,1.527-0.546
						c0.293-0.15,0.684-0.351,0.978-0.501l2.07-1.203c1.132-0.713,1.199-0.776,2.302-1.814l0.724-0.836l0.338-0.455l0.468-0.735
						c0.025-0.04,0.059-0.086,0.083-0.123l0.023-0.044l0.026-0.04c-0.008,0.015-0.013,0.019-0.022,0.033l0.496-0.949
						c0.155-0.352,0.261-0.607,0.353-0.845c0.025-0.064,0.049-0.126,0.073-0.19c0.07-0.181,0.119-0.367,0.182-0.552
						c0.018-0.051,0.044-0.11,0.061-0.158l0.146-0.555c0.036-0.128,0.064-0.225,0.107-0.379l0.019-0.097l0.024-0.092
						c-0.005,0.021-0.014,0.044-0.019,0.065l0.002-0.012c0.055-0.24,0.096-0.466,0.138-0.7l0.062-0.316
						c0.021-0.141,0.035-0.31,0.053-0.472c0.007-0.056,0.018-0.115,0.025-0.171c0.066-0.525,0.103-1.045,0.118-1.584
						C478.896,816.588,478.829,815.677,478.753,815.117z M474.449,824.282L474.449,824.282c0.002-0.014,0.003-0.029,0.004-0.044
						C474.451,824.252,474.452,824.268,474.449,824.282z M474.427,818.897c0.001,0.005,0,0.011,0.001,0.016l0-0.003
						c-0.003-0.016-0.004-0.03-0.007-0.046l0,0c0.001,0.006,0.003,0.012,0.004,0.018
						C474.426,818.888,474.426,818.893,474.427,818.897z M474.416,818.843L474.416,818.843c-0.004-0.021-0.012-0.043-0.015-0.064
						l0-0.003C474.404,818.798,474.412,818.821,474.416,818.843z M473.716,815.821c0.001,0.003,0.001,0.006,0.001,0.006
						L473.716,815.821c-0.026-0.088-0.064-0.175-0.092-0.264l0-0.002c0.018,0.057,0.046,0.115,0.064,0.173
						C473.697,815.759,473.706,815.79,473.716,815.821z M473.689,826.92c0.007-0.016,0.011-0.035,0.017-0.052
						C473.699,826.884,473.697,826.905,473.689,826.92L473.689,826.92z M472.577,812.721c0.003,0.006,0.004,0.013,0.007,0.019
						c-0.016-0.037-0.032-0.075-0.047-0.112c0.003,0.006,0.006,0.012,0.009,0.017C472.556,812.671,472.566,812.696,472.577,812.721z
						 M455.283,812.203c-0.002,0.005-0.003,0.011-0.005,0.016c0.012-0.043,0.018-0.089,0.03-0.132
						c0.01-0.037,0.022-0.073,0.032-0.109C455.322,812.054,455.303,812.129,455.283,812.203z M454.597,815.199
						c-0.003,0.019-0.009,0.036-0.013,0.055v0c0.004-0.023,0.011-0.044,0.015-0.067
						C454.598,815.191,454.597,815.195,454.597,815.199z M454.566,815.348c0.003-0.016,0.004-0.033,0.007-0.048
						c0,0,0.002-0.009,0.003-0.013C454.572,815.307,454.569,815.328,454.566,815.348z M456.303,808.981
						c0.009-0.024,0.016-0.051,0.025-0.075c0.015-0.04,0.028-0.082,0.043-0.121c0.004-0.01,0.008-0.018,0.012-0.028
						C456.356,808.83,456.33,808.906,456.303,808.981z M457.485,806.235c0.025-0.05,0.045-0.108,0.069-0.158
						c0.024-0.047,0.048-0.095,0.072-0.142c0.018-0.035,0.038-0.061,0.056-0.096c-0.028,0.06-0.055,0.123-0.084,0.181
						C457.56,806.094,457.522,806.164,457.485,806.235z M466.406,798.502C466.405,798.502,466.405,798.502,466.406,798.502
						c0.041-0.002,0.081,0.013,0.123,0.013c-0.024-0.003-0.047-0.008-0.071-0.008C466.44,798.508,466.424,798.501,466.406,798.502z
						 M466.598,798.522c0.053,0.001,0.104,0.013,0.156,0.017h-0.001C466.701,798.536,466.65,798.527,466.598,798.522z
						 M470.202,808.397c0.3,0.457,0.619,0.901,0.891,1.376c0.025,0.043,0.042,0.089,0.067,0.132
						c-0.291-0.515-0.638-0.989-0.955-1.487C470.202,808.412,470.203,808.405,470.202,808.397z M471.951,811.47L471.951,811.47
						c-0.001-0.002-0.003-0.005-0.004-0.008C471.948,811.465,471.949,811.468,471.951,811.47z M467.418,798.622
						c0.11,0.03,0.213,0.093,0.32,0.132c-0.153-0.058-0.304-0.122-0.462-0.158c0.023,0.005,0.047,0.002,0.069,0.007
						C467.369,798.61,467.394,798.616,467.418,798.622z M466.399,798.501c0.001,0,0.002,0,0.003,0c0.001,0,0.001,0,0.002,0h0
						c-0.084,0.003-0.173,0.036-0.257,0.044h-0.001C466.23,798.536,466.317,798.504,466.399,798.501z M465.55,798.65L465.55,798.65
						c0.019-0.005,0.039-0.005,0.058-0.01C465.589,798.644,465.569,798.645,465.55,798.65z M465.138,798.785
						c0.083-0.031,0.169-0.082,0.252-0.107c0.024-0.007,0.046-0.005,0.069-0.012c-0.278,0.08-0.563,0.211-0.85,0.356
						C464.786,798.94,464.963,798.85,465.138,798.785z M464.547,799.049L464.547,799.049c-0.085,0.044-0.166,0.063-0.252,0.113
						C464.381,799.112,464.462,799.09,464.547,799.049z M460.637,801.621c-0.032,0.04-0.065,0.08-0.098,0.113
						c-0.035,0.036-0.071,0.07-0.107,0.103c0.028-0.029,0.053-0.07,0.08-0.098c0.03-0.03,0.059-0.06,0.089-0.089
						C460.612,801.638,460.625,801.632,460.637,801.621z M459.01,803.578c-0.038,0.055-0.073,0.118-0.108,0.179
						c0.032-0.047,0.059-0.108,0.091-0.155c0.003-0.005,0.007-0.01,0.01-0.015C459.005,803.584,459.008,803.582,459.01,803.578z
						 M473.671,826.958c-0.011,0.024-0.03,0.04-0.041,0.064l0-0.001c0.016-0.034,0.041-0.059,0.057-0.094v0
						C473.682,826.938,473.676,826.947,473.671,826.958z M474.403,824.697c-0.009,0.046-0.031,0.08-0.04,0.125
						c0.024-0.11,0.046-0.221,0.067-0.334c-0.008,0.042-0.005,0.094-0.013,0.135C474.412,824.648,474.408,824.673,474.403,824.697z"
						/>
					<g>
						<g style="enable-background:new    ;">
							<g>
								<path style="fill:#2B2F3E;" d="M461.512,802.493C461.511,802.676,461.511,802.773,461.512,802.493L461.512,802.493z"/>
								<path style="fill:#2B2F3E;" d="M460.733,804.779C458.744,803.63,459.061,803.814,460.733,804.779L460.733,804.779z"/>
								<path style="fill:#2B2F3E;" d="M461.504,805.224L461.504,805.224c-0.284-0.164-0.537-0.31-0.771-0.445
									C460.968,804.914,461.203,805.05,461.504,805.224z"/>
								<path style="fill:#2B2F3E;" d="M470.021,807.25c0.011-1.572,1.09-2.203,2.521-1.398c-4.765-2.751-9.514-5.493-11.793-6.809
									c0.235,0.135,0.47,0.272,0.771,0.445c-0.005,1.849-0.008,2.68-0.009,3.004c0-0.087,0.001-0.186,0.001-0.273
									c-0.001,0.325-0.004,1.155-0.009,3.004c2.479,1.431,6.746,3.895,11.022,6.364
									C471.103,810.746,470.034,808.894,470.021,807.25z"/>
								<path style="fill:#2B2F3E;" d="M460.448,798.869C459.121,798.103,458.89,797.97,460.448,798.869L460.448,798.869z"/>
								<path style="fill:#2B2F3E;" d="M460.749,799.043c-0.1-0.058-0.213-0.123-0.302-0.174
									C460.543,798.924,460.643,798.982,460.749,799.043z"/>
							</g>
							<path style="fill:#262B38;" d="M466.399,798.501c0.001,0,0.002,0,0.003,0c0.323-0.011,0.637,0.027,0.943,0.103
								c0.024,0.006,0.049,0.012,0.073,0.019c0.304,0.082,0.601,0.201,0.885,0.366l-0.003-0.002
								c0.001,0.001,0.002,0.001,0.002,0.001l-0.785-0.453l-1.3-0.75l-1.298-0.75l-1.294-0.747c-1.489-0.86-2.979-1.72-4.468-2.58
								l-0.644-0.372l-1.066-0.615c-1.105-0.638-2.21-1.276-3.315-1.914l-0.56-0.323l-0.294-0.169
								c-0.672-0.388-1.344-0.776-2.015-1.163l-0.069-0.04l-0.117-0.068c-1.028-0.593-2.057-1.187-3.085-1.781l-0.217-0.126
								l-0.329-0.19c-1.095-0.632-2.19-1.264-3.285-1.897c-0.225-0.13-0.447-0.25-0.665-0.362c-0.243-0.124-0.482-0.237-0.716-0.339
								c-0.091-0.039-0.179-0.069-0.269-0.106c-0.044-0.018-0.088-0.035-0.132-0.052c-0.086-0.033-0.174-0.072-0.259-0.102
								c-0.215-0.076-0.426-0.141-0.633-0.195c-0.209-0.055-0.414-0.099-0.614-0.132h-0.001c-0.003,0-0.004,0-0.007-0.001
								c-0.216-0.036-0.428-0.057-0.633-0.066c-0.244-0.01-0.479-0.001-0.705,0.028c-0.009,0.001-0.016,0.007-0.025,0.008
								c-0.108,0.015-0.198,0.069-0.302,0.092c-0.273,0.062-0.549,0.116-0.792,0.242c-0.045,0.023-0.09,0.047-0.134,0.073l-0.001,0
								l0,0l-2.07,1.203l26.022,15.024l2.07-1.203c0.286-0.166,0.565-0.274,0.843-0.377c0.083-0.031,0.169-0.082,0.252-0.107
								C465.733,798.573,466.07,798.513,466.399,798.501z"/>
							<path style="fill:#2F3344;" d="M436.203,785.341c-0.097,0.057-0.191,0.118-0.281,0.184c-0.182,0.133-0.311,0.341-0.465,0.513
								c-0.122,0.136-0.261,0.245-0.366,0.404c-0.022,0.033-0.055,0.05-0.076,0.085c-0.125,0.202-0.238,0.421-0.338,0.657
								c-0.085,0.2-0.161,0.413-0.228,0.636l-0.001,0.004c-0.001,0.003-0.002,0.008-0.003,0.011c-0.063,0.21-0.118,0.43-0.165,0.661
								c-0.047,0.229-0.086,0.468-0.118,0.716c-0.021,0.161-0.032,0.332-0.046,0.5c-0.003,0.04-0.008,0.079-0.011,0.12
								c-0.004,0.059-0.013,0.114-0.016,0.174c-0.017,0.275-0.024,0.561-0.025,0.854l-0.001-0.014l-0.001,0.216
								c-0.003,0.911-0.005,1.823-0.008,2.735l-0.002,0.533l-0.001,0.4c-0.007,2.291-0.013,4.583-0.02,6.875l-0.001,0.208
								l-0.002,0.558c-0.005,1.932-0.011,3.864-0.017,5.796c-0.003,1.129-0.006,2.258-0.009,3.387l-0.001,0.297l-0.002,0.57
								c-0.003,0.971-0.005,1.943-0.008,2.914c0,0,0.048-0.025,0.06-0.03c-0.011,0.005-0.059,0.031-0.059,0.031l0.405,0.234
								l1.044,0.603l1.07,0.618l0.659,0.38l0.539,0.311c0.481,0.278,0.962,0.555,1.443,0.833l0.259,0.15l1.153,0.666l0.426,0.246
								c0.84,0.486,1.681,0.971,2.522,1.456l0.623,0.36l1.223,0.706l1.206,0.697c1.956,1.129,3.912,2.259,5.869,3.388l0.512,0.296
								l0.29,0.167c1.633,0.943,3.266,1.886,4.899,2.829c-2.205-1.273-3.707-5.049-4.068-10.253c0.006-0.065,0.004-0.13,0.01-0.195
								c0.042-0.437,0.125-0.862,0.181-1.295c0.096-0.748,0.179-1.501,0.315-2.233c0.203-1.098,0.452-2.17,0.735-3.212
								c0.041-0.15,0.088-0.293,0.13-0.441c0.269-0.945,0.562-1.867,0.889-2.741c0.015-0.04,0.028-0.082,0.043-0.121
								c0.363-0.957,0.76-1.862,1.183-2.707c0.024-0.047,0.048-0.095,0.072-0.142c0.43-0.845,0.886-1.63,1.367-2.332
								c0.003-0.005,0.007-0.01,0.01-0.015c0.481-0.701,0.987-1.317,1.509-1.848c0.03-0.03,0.059-0.06,0.089-0.089
								c0.526-0.523,1.068-0.961,1.624-1.284c0.001,0,0.001-0.001,0.002-0.001L436.203,785.341z"/>
							<path style="fill:#2B303F;" d="M474.672,821.876c0-0.003,0.001-0.005,0.001-0.005l-0.001-0.003
								c0-0.197-0.003-0.395-0.01-0.594c-0.003,0.002-0.007,0.001-0.011,0.003c-0.007-0.2-0.006-0.399-0.02-0.601
								c-0.007,0.003-0.014,0.001-0.02,0.004c-0.014-0.203-0.01-0.401-0.03-0.606c-0.007,0.003-0.015,0.001-0.022,0.004
								c-0.018-0.181-0.021-0.357-0.044-0.539c-0.003-0.026-0.002-0.051-0.005-0.076c-0.001,0-0.002,0-0.002,0
								c-0.004-0.029-0.009-0.057-0.012-0.086c-0.009-0.064-0.024-0.129-0.033-0.193c-0.009-0.064-0.014-0.125-0.024-0.189
								c-0.004-0.028-0.006-0.055-0.01-0.083c-0.003-0.016-0.004-0.03-0.007-0.046c-0.001-0.008-0.001-0.015-0.002-0.022
								c-0.001,0-0.002,0-0.002,0c-0.005-0.021-0.013-0.043-0.016-0.064c-0.018-0.108-0.045-0.217-0.065-0.326
								c-0.014-0.076-0.014-0.148-0.028-0.223c-0.002-0.011-0.001-0.02-0.003-0.031c-0.002,0.001-0.003,0.001-0.005,0.002
								c-0.012-0.064-0.04-0.128-0.053-0.192c-0.023-0.117-0.039-0.229-0.065-0.346c-0.009-0.041-0.005-0.08-0.014-0.121
								c-0.004,0.001-0.008,0.003-0.012,0.004c-0.037-0.167-0.074-0.333-0.115-0.501c-0.016-0.065-0.021-0.129-0.038-0.194
								c-0.003,0.001-0.006,0.002-0.009,0.003c-0.041-0.16-0.088-0.32-0.133-0.48c-0.023-0.084-0.031-0.167-0.055-0.251
								c-0.005,0.002-0.011,0-0.016,0.002c-0.029-0.102-0.046-0.202-0.076-0.304c-0.026-0.089-0.064-0.176-0.092-0.264
								c-0.021-0.067-0.027-0.132-0.049-0.199c-0.006,0.002-0.013-0.002-0.019-0.001c-0.074-0.233-0.144-0.464-0.226-0.697
								c-0.016-0.045-0.021-0.091-0.037-0.137c-0.005,0.002-0.01-0.001-0.016,0.001c-0.014-0.038-0.031-0.076-0.044-0.115
								c-0.081-0.223-0.157-0.444-0.244-0.666c-0.019-0.05-0.026-0.1-0.046-0.15c-0.004,0.003-0.011,0.007-0.016,0.01
								c-0.029-0.074-0.066-0.146-0.096-0.22c-0.018-0.045-0.034-0.091-0.053-0.136c-0.069-0.168-0.121-0.338-0.193-0.505
								c-0.017-0.039-0.033-0.079-0.05-0.118c-0.01-0.023-0.017-0.046-0.027-0.069c-0.001,0.003-0.003,0.005-0.004,0.008
								c-0.066-0.15-0.154-0.292-0.223-0.441c-0.114-0.246-0.204-0.499-0.324-0.743c-0.001,0.03-0.005,0.06-0.006,0.09
								c-0.004-0.007-0.007-0.015-0.011-0.023c-0.264-0.536-0.502-1.081-0.799-1.602c0.011,0.023,0.008,0.037,0.019,0.061
								c-0.598-1.057-1.247-2.085-1.961-3.054c0,0,0.001,0.001,0.002,0.002c-0.001-0.002-0.003-0.003-0.004-0.005
								c-0.003-0.005-0.007-0.009-0.011-0.014c-0.399-0.541-0.825-1.054-1.256-1.559c0.007,0,0.016,0.001,0.023,0.001
								c-0.038-0.045-0.083-0.079-0.122-0.123c-0.176-0.204-0.355-0.397-0.536-0.594c-0.092-0.101-0.176-0.211-0.269-0.31
								c0.001-0.001,0.003-0.002,0.004-0.003c-0.123-0.131-0.262-0.233-0.387-0.36c-0.136-0.139-0.268-0.285-0.406-0.42
								c0.004-0.004,0.008-0.009,0.012-0.013c-0.048-0.047-0.102-0.084-0.151-0.131c-0.182-0.174-0.369-0.333-0.555-0.499
								c0.004-0.005,0.01-0.011,0.014-0.016c-0.051-0.046-0.109-0.073-0.16-0.118c-0.131-0.115-0.261-0.223-0.393-0.334
								c-0.029-0.025-0.056-0.055-0.086-0.08c0.003-0.004,0.008-0.008,0.011-0.012c-0.03-0.025-0.063-0.041-0.093-0.065
								c-0.038-0.031-0.073-0.069-0.11-0.1c-0.066-0.053-0.136-0.091-0.202-0.143c-0.062-0.049-0.119-0.109-0.181-0.157
								c0.001-0.001,0.002-0.002,0.002-0.002c-0.008-0.008-0.018-0.013-0.027-0.02c-0.035-0.027-0.071-0.05-0.105-0.076
								c-0.147-0.112-0.299-0.206-0.448-0.314c0.005-0.004,0.011-0.01,0.016-0.014c-0.184-0.133-0.375-0.239-0.562-0.364
								c0.005-0.005,0.012-0.01,0.017-0.014c-0.177-0.119-0.358-0.224-0.537-0.335c0.003-0.002,0.006-0.005,0.008-0.007
								c-0.16-0.1-0.321-0.196-0.483-0.289c-0.189,0.11-0.369,0.292-0.555,0.427c0.03-0.044,0.06-0.089,0.086-0.127
								c-0.189,0.132-0.368,0.331-0.554,0.487c-0.125,0.105-0.255,0.176-0.379,0.291c0-0.006,0-0.013,0.001-0.018
								c-0.018,0.016-0.034,0.04-0.052,0.057c-0.014,0.014-0.03,0.021-0.044,0.034c-0.065,0.063-0.125,0.153-0.189,0.218
								c-0.085,0.086-0.173,0.156-0.258,0.248l-0.001-0.006c-0.13,0.137-0.251,0.317-0.378,0.468
								c-0.021,0.024-0.042,0.044-0.062,0.069c-0.002-0.008-0.005-0.019-0.008-0.028c-0.03,0.036-0.055,0.092-0.084,0.129
								c-0.106,0.13-0.21,0.258-0.314,0.396c-0.004,0.005-0.008,0.008-0.011,0.013c-0.001-0.004-0.003-0.01-0.004-0.014
								c-0.014,0.018-0.024,0.044-0.038,0.063c-0.021,0.027-0.043,0.046-0.064,0.074c-0.03,0.041-0.056,0.094-0.087,0.136
								c-0.056,0.078-0.114,0.152-0.17,0.232c-0.013,0.019-0.027,0.032-0.04,0.051l0-0.001c-0.002,0.002-0.003,0.005-0.005,0.007
								c-0.099,0.145-0.188,0.322-0.286,0.473c-0.032,0.05-0.066,0.093-0.098,0.144c-0.003-0.007-0.006-0.016-0.009-0.023
								c-0.029,0.046-0.052,0.108-0.081,0.155c-0.106,0.171-0.209,0.347-0.313,0.527l0,0.001c-0.002-0.005-0.005-0.013-0.007-0.018
								c-0.024,0.04-0.042,0.093-0.065,0.133c-0.041,0.072-0.086,0.133-0.126,0.206c-0.044,0.08-0.083,0.174-0.127,0.255
								c-0.03,0.056-0.065,0.101-0.094,0.157l-0.001-0.003c-0.004,0.006-0.007,0.015-0.011,0.022
								c-0.011,0.021-0.022,0.043-0.033,0.065c-0.019,0.037-0.035,0.081-0.055,0.118c-0.039,0.075-0.072,0.162-0.111,0.238
								c-0.055,0.109-0.113,0.207-0.167,0.318c-0.019,0.04-0.041,0.074-0.061,0.114c-0.001-0.002-0.002-0.004-0.002-0.006
								c-0.007,0.014-0.012,0.031-0.019,0.045c-0.029,0.061-0.056,0.126-0.086,0.188c-0.032,0.068-0.061,0.14-0.092,0.209
								c-0.055,0.12-0.112,0.234-0.166,0.356c-0.024,0.056-0.047,0.113-0.072,0.169c-0.008,0.018-0.017,0.034-0.025,0.052
								c-0.001-0.002-0.002-0.004-0.002-0.004c-0.005,0.008-0.007,0.022-0.012,0.032c-0.043,0.1-0.083,0.204-0.125,0.306
								c-0.021,0.049-0.044,0.092-0.065,0.142c-0.051,0.124-0.093,0.259-0.143,0.385c-0.046,0.116-0.097,0.223-0.142,0.341
								c-0.005,0.012-0.01,0.023-0.015,0.035c-0.001-0.002-0.002-0.004-0.002-0.005c-0.004,0.011-0.006,0.024-0.01,0.034
								c-0.04,0.105-0.075,0.217-0.115,0.323c-0.033,0.088-0.071,0.167-0.103,0.256c-0.002,0.005-0.003,0.011-0.005,0.016
								c-0.033,0.092-0.059,0.192-0.091,0.284c-0.034,0.095-0.065,0.188-0.098,0.284c-0.07,0.206-0.143,0.406-0.21,0.615
								c-0.003,0.01-0.007,0.018-0.01,0.028c-0.005,0.015-0.01,0.027-0.015,0.042c-0.027,0.084-0.046,0.175-0.072,0.26
								c-0.027,0.089-0.057,0.173-0.084,0.263c-0.028,0.091-0.055,0.181-0.082,0.273c-0.016,0.053-0.031,0.106-0.047,0.159
								c-0.028,0.099-0.055,0.198-0.083,0.298c-0.034,0.122-0.062,0.248-0.095,0.371c-0.008,0.032-0.02,0.06-0.028,0.092
								c-0.002-0.004-0.003-0.01-0.005-0.014c-0.009,0.033-0.013,0.068-0.022,0.101c-0.024,0.091-0.045,0.184-0.069,0.276
								c-0.092,0.356-0.178,0.711-0.261,1.074c-0.002,0.007-0.003,0.014-0.005,0.021c-0.006,0.026-0.014,0.049-0.02,0.076
								c-0.013,0.058-0.023,0.117-0.035,0.174c-0.023,0.104-0.045,0.207-0.067,0.312c-0.014,0.063-0.024,0.127-0.037,0.19
								c-0.01,0.049-0.025,0.093-0.035,0.142c-0.007,0.035-0.01,0.072-0.017,0.107c-0.014,0.07-0.026,0.139-0.04,0.208
								c-0.015,0.079-0.03,0.157-0.045,0.236c-0.003,0.019-0.009,0.036-0.013,0.055l-0.002-0.007
								c-0.002,0.013-0.003,0.026-0.005,0.038c-0.009,0.049-0.015,0.098-0.023,0.148c-0.004,0.022-0.009,0.044-0.014,0.066
								c-0.007,0.037-0.016,0.073-0.022,0.111c-0.228,1.259-0.419,2.535-0.531,3.832c-0.005-0.003-0.01-0.006-0.015-0.011
								c0.04,0.04,0.05,0.091,0.056,0.144c0.42,4.961,1.968,8.465,4.107,9.701l0.137,0.078l1.046,0.548
								c0.218,0.102,0.479,0.207,0.739,0.315c0.102,0.043,0.203,0.09,0.303,0.13c0.094,0.038,0.19,0.085,0.283,0.121
								c0.016,0.007,0.036,0.016,0.052,0.022l1.1,0.365c0.051,0.014,0.117,0.026,0.172,0.04c0.152,0.043,0.28,0.069,0.424,0.105
								c0.248,0.061,0.491,0.119,0.73,0.164c0.064,0.014,0.137,0.033,0.196,0.046l0.12,0.016c0.26,0.043,0.461,0.066,0.677,0.089
								l0.328,0.043l0.188,0.014c0.142,0.009,0.274,0.008,0.412,0.013l0.79,0.016c0.126-0.006,0.277-0.028,0.418-0.04
								c0.149-0.011,0.298-0.017,0.441-0.033c0.133-0.013,0.259-0.029,0.387-0.046c0.12-0.014,0.251-0.022,0.358-0.034l1.076-0.236
								c0.466-0.14,1.073-0.371,1.527-0.546c0.293-0.15,0.684-0.351,0.978-0.501c0.443-0.258,0.853-0.572,1.226-0.942
								c0.014-0.014,0.024-0.034,0.038-0.048c0.026-0.027,0.052-0.054,0.078-0.081c0.025-0.026,0.049-0.052,0.073-0.078
								c0.023-0.025,0.045-0.049,0.068-0.074c0.011-0.013,0.026-0.02,0.038-0.033c0.043-0.048,0.069-0.119,0.111-0.169
								c0.069-0.083,0.134-0.166,0.199-0.253c0.058-0.077,0.113-0.154,0.169-0.234c0.041-0.059,0.086-0.108,0.125-0.168
								c0.031-0.047,0.071-0.08,0.101-0.128c0,0-0.001,0-0.002,0.001c0.024-0.038,0.039-0.087,0.062-0.126
								c0.041-0.069,0.081-0.139,0.12-0.211c0.037-0.068,0.073-0.136,0.109-0.206c0.033-0.065,0.065-0.128,0.097-0.194
								c0.016-0.034,0.041-0.059,0.057-0.094c0.001-0.003,0.004-0.005,0.005-0.008c0,0-0.002,0.001-0.003,0.002
								c0.043-0.093,0.059-0.215,0.1-0.31c0.056-0.131,0.129-0.24,0.179-0.377c0.006-0.017,0.018-0.027,0.024-0.044
								c-0.001,0.001-0.003,0.001-0.004,0.002c0.027-0.076,0.042-0.164,0.068-0.242c0.038-0.114,0.076-0.228,0.111-0.346
								c0.01-0.034,0.032-0.054,0.041-0.088c-0.004,0.002-0.011,0.001-0.015,0.003c0.03-0.107,0.055-0.22,0.083-0.331
								c0.023-0.089,0.052-0.171,0.072-0.262c0.004-0.018,0.015-0.028,0.019-0.046c-0.004,0.002-0.009,0.001-0.013,0.003
								c0.004-0.018,0.003-0.039,0.007-0.057c0.024-0.112,0.047-0.224,0.068-0.338c0.014-0.076,0.042-0.138,0.055-0.215
								c-0.011,0.006-0.025,0.005-0.036,0.011c0.003-0.019,0.003-0.041,0.006-0.06c0.032-0.193,0.092-0.357,0.116-0.557
								c-0.014,0.007-0.03,0.007-0.044,0.014c0.026-0.212,0.085-0.392,0.102-0.613c-0.014,0.007-0.03,0.006-0.044,0.013
								c0.017-0.211,0.069-0.388,0.077-0.607c-0.013,0.007-0.029,0.005-0.042,0.011c0.008-0.195,0.052-0.357,0.053-0.559
								C474.673,821.908,474.672,821.892,474.672,821.876z"/>
							<path style="fill:#1F222D;" d="M478.612,820.284l0.062-0.316c0.021-0.141,0.035-0.31,0.053-0.472
								c0.007-0.056,0.018-0.115,0.025-0.171c0.066-0.525,0.103-1.045,0.118-1.584c0.027-1.154-0.04-2.065-0.116-2.626
								c-0.059-0.5-0.13-0.988-0.23-1.49l-0.229-1.048l-0.211-0.79l-0.046-0.145c-0.012-0.044-0.026-0.095-0.038-0.136l-0.122-0.371
								l-0.113-0.359c0.006,0.02,0.007,0.037,0.014,0.057l-0.109-0.33c-0.007-0.021-0.019-0.048-0.027-0.07
								c-0.094-0.253-0.185-0.501-0.288-0.752c-0.02-0.051-0.042-0.109-0.06-0.156l-0.26-0.594c-0.054-0.125-0.104-0.24-0.161-0.367
								c-0.128-0.274-0.307-0.623-0.438-0.89l-0.486-0.887c-0.152-0.263-0.367-0.605-0.525-0.865l-0.564-0.842
								c-0.004-0.005-0.008-0.011-0.012-0.016l-0.01-0.015c0.002,0.003,0.004,0.007,0.006,0.009c-0.178-0.252-0.419-0.569-0.6-0.813
								l-0.65-0.802c-0.213-0.25-0.51-0.571-0.729-0.815l-0.716-0.724c0.037,0.036,0.075,0.072,0.107,0.103
								c-0.043-0.041-0.099-0.096-0.141-0.138c-0.01-0.01-0.025-0.022-0.035-0.032c-0.045-0.043-0.09-0.087-0.129-0.124v0
								c-0.03-0.028-0.057-0.045-0.088-0.073c-0.02-0.018-0.038-0.035-0.058-0.053c-0.076-0.07-0.152-0.14-0.228-0.208
								c-0.119-0.107-0.239-0.217-0.341-0.31l-0.866-0.702c-0.084-0.064-0.189-0.134-0.285-0.203
								c-0.062-0.046-0.132-0.094-0.194-0.139c-0.209-0.148-0.417-0.298-0.596-0.425c-0.298-0.185-0.696-0.431-0.994-0.616
								c-0.113-0.065-0.228-0.124-0.344-0.176c0.046,0.025,0.081,0.054,0.126,0.079c-0.169-0.084-0.337-0.172-0.512-0.228
								c0.053,0.027,0.112,0.064,0.166,0.092c-0.154-0.058-0.305-0.123-0.464-0.159c-0.029-0.006-0.055-0.026-0.083-0.032
								c0.005,0.002,0.008,0.005,0.012,0.007c-0.054-0.011-0.112-0.004-0.167-0.013c-0.058-0.009-0.114-0.024-0.173-0.03
								c-0.021-0.002-0.038-0.017-0.059-0.019c0.013,0.005,0.023,0.015,0.037,0.021c-0.029-0.003-0.06,0.01-0.089,0.008
								c-0.066-0.005-0.13-0.021-0.197-0.022c-0.034,0-0.065-0.011-0.099-0.011c-0.018,0-0.034-0.006-0.052-0.005
								c-0.001,0-0.001-0.001-0.001-0.001v0c-0.084,0.003-0.173,0.036-0.257,0.044c-0.062,0.007-0.12-0.013-0.182-0.003
								c0.02,0.006,0.036,0.019,0.055,0.025c-0.156,0.022-0.311,0.041-0.47,0.083c-0.038,0.01-0.072-0.001-0.11,0.01
								c0.006,0.001,0.013,0.005,0.019,0.006c-0.28,0.081-0.567,0.213-0.856,0.358c-0.042,0.021-0.08,0.012-0.122,0.034
								c0.019-0.006,0.046-0.004,0.066-0.009c-0.085,0.044-0.166,0.063-0.252,0.113l-2.07,1.203c0.849,0.49,1.677,1.07,2.478,1.719
								c0.021,0.017,0.042,0.034,0.063,0.051c0.794,0.649,1.562,1.368,2.293,2.146c0.019,0.02,0.036,0.042,0.055,0.062
								c0.721,0.771,1.407,1.598,2.05,2.469c0.012,0.016,0.025,0.031,0.037,0.046c0.091,0.124,0.165,0.263,0.254,0.389
								c0.58,0.815,1.136,1.653,1.636,2.527c0.535,0.935,1.024,1.895,1.453,2.873c0.011,0.025,0.021,0.05,0.032,0.075
								c0.431,0.992,0.804,1.998,1.111,3.007c0.009,0.031,0.019,0.062,0.028,0.093c0.307,1.024,0.548,2.049,0.71,3.062
								c0.001,0.005,0.001,0.009,0.002,0.014c0.163,1.027,0.248,2.04,0.246,3.027c-0.003,0.974-0.093,1.873-0.256,2.7
								c-0.005,0.024-0.009,0.049-0.014,0.073c-0.167,0.819-0.406,1.566-0.716,2.23c-0.005,0.011-0.011,0.02-0.016,0.03
								c-0.254,0.539-0.579,0.988-0.917,1.418c-0.118,0.151-0.228,0.314-0.356,0.451c-0.417,0.446-0.869,0.841-1.38,1.138
								l2.07-1.203c1.132-0.713,1.199-0.776,2.302-1.814l0.724-0.836l0.338-0.455l0.468-0.735c0.025-0.04,0.059-0.086,0.083-0.123
								l0.023-0.044l0.026-0.04c-0.008,0.015-0.013,0.019-0.022,0.033l0.496-0.949c0.155-0.352,0.261-0.607,0.353-0.845
								c0.025-0.064,0.049-0.126,0.073-0.19c0.07-0.181,0.119-0.367,0.182-0.552c0.018-0.051,0.044-0.11,0.061-0.158l0.146-0.555
								c0.036-0.128,0.064-0.225,0.107-0.379l0.019-0.097l0.024-0.092c-0.005,0.021-0.014,0.044-0.019,0.065l0.002-0.012
								C478.529,820.745,478.57,820.519,478.612,820.284z M476.586,825.415c0.042-0.062,0.079-0.116,0.12-0.177
								C476.663,825.296,476.62,825.37,476.586,825.415z"/>
						</g>
					</g>
				</g>
			</g>
			<path style="fill:#994141;" d="M656.81,693.124l0.241,110.785l199.64-108.045c7.363-15.989,19.351-30.549,32.915-38.38
				c14.48-8.36,27.203-7,34.446,1.924l77.8-42.106l-0.218-100.509L656.81,693.124z"/>
			<path style="fill:#994141;" d="M498.802,863.421c0,0-6.282,0.848-15.648,9.944c-9.366,9.096-0.039-15.918,0.154-15.879
				C483.501,857.524,498.802,863.421,498.802,863.421z"/>
			<polygon style="fill:#DDDDDD;" points="1001.084,264.41 656.284,451.016 656.783,702.164 1001.606,525.834 			"/>
			<g>
				<polygon style="fill:#EFEFEF;" points="656.591,452.378 405.445,305.817 750.447,120 1001.008,264.655 				"/>
			</g>
			<polygon style="opacity:0.31;fill:#B3B9CE;" points="211.449,683.435 393.324,597.146 266.539,523.177 			"/>
			<polygon style="opacity:0.19;fill:#EFEFEF;" points="237.029,609.244 329.715,560.614 266.539,523.177 			"/>
			<g style="opacity:0.32;">
				<polygon style="fill:#191A22;" points="369.01,577.55 308.78,752.82 303.188,749.76 363.418,574.49 				"/>
			</g>
			<g style="opacity:0.53;">
				<polygon style="fill:#191A22;" points="380.507,589.157 377.71,597.288 392.691,606.488 387.55,621.436 351.806,600.124 
					356.947,585.176 372.973,594.38 375.77,586.248 				"/>
			</g>
			<path style="fill:#C6C6C6;" d="M252.883,493.004l-63.925,196.999l231.039,134.265l63.925-196.999L252.883,493.004z
				 M406.74,796.308L211.449,682.37l54.753-159.192L462.548,637.73L406.74,796.308z"/>
		</g>
		<g>
			<polygon style="fill:#B65D5B;" points="479.245,388.328 479.165,416.477 422.005,383.476 422.085,355.327 			"/>
		</g>
		<g>
			<polygon style="fill:#B65D5B;" points="637.522,480.415 637.443,508.564 580.283,475.563 580.362,447.414 			"/>
		</g>
		<g>
			<g>
				<polygon style="fill:#994141;" points="734.053,437.134 734.133,465.283 676.973,498.284 676.893,470.135 				"/>
			</g>
			<g>
				<polygon style="fill:#A7BFD7;" points="822.753,389.548 822.833,417.697 765.673,450.698 765.594,422.549 				"/>
			</g>
			<g>
				<polygon style="fill:#A7BFD7;" points="907.238,344.118 907.318,372.267 850.15,405.273 850.07,377.124 				"/>
			</g>
			<g>
				<polygon style="fill:#994141;" points="986.473,301.571 986.553,329.72 929.393,362.721 929.313,334.572 				"/>
			</g>
		</g>
		<g>
			<g>
				<polygon style="fill:#A7BFD7;" points="892.984,423.703 851.372,447.728 851.625,540.523 892.984,516.644 				"/>
			</g>
			<g style="opacity:0.37;">
				<polygon style="fill:#EFEFEF;" points="892.984,423.703 851.372,447.728 851.467,482.208 892.984,458.091 				"/>
			</g>
		</g>
		<path style="fill:#783333;" d="M949.672,389.873c-22.704,13.108-41.052,44.888-40.978,70.977
			c0.074,26.08,18.542,36.605,41.246,23.497c22.697-13.104,41.045-44.884,40.971-70.964
			C990.837,387.293,972.369,376.769,949.672,389.873z M959.139,442.614l0.061,21.568l-18.77,10.837l-0.061-21.569l-18.77,10.837
			l-0.061-21.569l18.771-10.837l-0.062-21.751l18.771-10.837l0.062,21.75l18.929-10.928l0.061,21.568L959.139,442.614z"/>
		<g>
			<g>
				<g>
					<g>
						<polygon style="fill:#303030;" points="280.701,868.837 280.575,870.181 206.008,826.016 205.609,830.268 204.469,829.592 
							204.993,823.996 						"/>
					</g>
					<g style="enable-background:new    ;">
						<g>
							<polygon style="fill:#3F3F3F;" points="206.05,812.722 205.525,818.328 206.665,819.003 207.064,814.752 281.631,858.917 
								281.233,863.168 205.525,818.328 							"/>
						</g>
						<g>
							<polygon style="fill:#303030;" points="281.758,857.562 281.631,858.917 207.064,814.752 206.665,819.003 205.525,818.328 
								206.05,812.722 							"/>
						</g>
						<path style="fill:#C6C6C6;" d="M189.447,783.453l-3.979,45.317l112.368,63.666l3.979-43.392L189.447,783.453z
							 M280.575,870.181l-0.399,4.251l-75.708-44.841l0.525-5.596l75.708,44.841L280.575,870.181z M281.631,858.917l-0.399,4.251
							l-75.708-44.841l0.526-5.606l75.708,44.84L281.631,858.917z M282.688,847.643l-0.399,4.251l-75.708-44.841l0.525-5.596
							l75.708,44.841L282.688,847.643z"/>
						<g>
							<polygon style="fill:#3F3F3F;" points="204.993,823.996 204.469,829.592 205.609,830.268 206.008,826.016 280.575,870.181 
								280.176,874.432 204.469,829.592 							"/>
						</g>
						<g>
							<polygon style="fill:#303030;" points="282.814,846.298 282.688,847.643 208.121,803.478 207.723,807.729 206.582,807.053 
								207.107,801.457 							"/>
						</g>
					</g>
					<g>
						<polygon style="fill:#3F3F3F;" points="207.107,801.457 206.582,807.053 207.723,807.729 208.121,803.478 282.688,847.643 
							282.29,851.894 206.582,807.053 						"/>
					</g>
				</g>
				<g>
					<g>
						<polygon style="fill:#934742;" points="149.458,775.721 147.749,793.949 132.273,784.783 133.983,766.555 						"/>
					</g>
					<g>
						<polygon style="fill:#D9D9D9;" points="164.974,784.91 163.265,803.139 147.783,793.97 149.458,775.721 						"/>
					</g>
				</g>
				<g>
					<g>
						<polygon style="fill:#934742;" points="351.49,891.106 349.781,909.334 334.271,900.148 336.015,881.94 						"/>
					</g>
					<g>
						<polygon style="fill:#D9D9D9;" points="336.015,881.94 334.305,900.169 318.789,890.979 320.499,872.75 						"/>
					</g>
				</g>
			</g>
			<g>
				<g style="enable-background:new    ;">
					<g>
						<polygon style="fill:#BFBFBF;" points="354.737,955.938 354.686,973.728 112.456,833.876 112.506,816.086 						"/>
					</g>
					<g>
						<polygon style="fill:#C6C6C6;" points="354.737,955.938 364.453,950.291 364.402,968.082 354.686,973.728 						"/>
					</g>
					<g>
						<polygon style="fill:#E9E9E9;" points="112.506,816.086 122.222,810.439 364.453,950.291 354.737,955.938 						"/>
					</g>
				</g>
			</g>
			<g>
				<g style="enable-background:new    ;">
					<g>
						<polygon style="fill:#A8A8A8;" points="354.7,955.938 354.75,973.728 459.442,915.01 459.392,897.219 						"/>
					</g>
					<g>
						<polygon style="fill:#E9E9E9;" points="459.392,897.219 449.676,891.573 344.984,950.291 354.7,955.938 						"/>
					</g>
				</g>
			</g>
			<g>
				<g style="enable-background:new    ;">
					<g>
						<polygon style="fill:#D9D9D9;" points="265.731,912.659 265.664,936.259 193.612,894.66 193.679,871.059 						"/>
					</g>
				</g>
			</g>
		</g>
	</g>
</g>
</svg>
