<?xml version="1.0" encoding="utf-8"?>
<!-- Generator: Adobe Illustrator 27.5.0, SVG Export Plug-In . SVG Version: 6.00 Build 0)  -->
<svg version="1.1" xmlns="http://www.w3.org/2000/svg" xmlns:xlink="http://www.w3.org/1999/xlink" x="0px" y="0px"
	 viewBox="0 0 500 500" style="enable-background:new 0 0 500 500;" xml:space="preserve">
<g id="BACKGROUND">
	<radialGradient id="SVGID_1_" cx="250" cy="250" r="250" gradientUnits="userSpaceOnUse">
		<stop  offset="0" style="stop-color:#7BCCE6"/>
		<stop  offset="1" style="stop-color:#0092C7"/>
	</radialGradient>
	<rect style="fill:url(#SVGID_1_);" width="500" height="500"/>
</g>
<g id="OBJECTS">
	
		<text transform="matrix(1 0 0 1 212.3625 38.5483)" style="opacity:0.53;fill:#FFFFFF; font-family:'Raleway-Bold'; font-size:12px;">AMBULANCE</text>
	<g>
		<path style="fill:#087BA8;" d="M419.692,323.088c0,3.015-75.974,5.459-169.692,5.459s-169.692-2.444-169.692-5.459
			c0-3.015,75.974-5.459,169.692-5.459S419.692,320.073,419.692,323.088z"/>
		<rect x="276.636" y="177.414" style="fill:#9B9D9D;" width="2.802" height="2.962"/>
		<rect x="285.442" y="177.414" style="fill:#9B9D9D;" width="2.802" height="2.962"/>
		
			<linearGradient id="SVGID_00000053516523337619164090000015283895569689266859_" gradientUnits="userSpaceOnUse" x1="146.554" y1="322.8746" x2="217.854" y2="207.4716">
			<stop  offset="0" style="stop-color:#D6D6D6"/>
			<stop  offset="1" style="stop-color:#F4F4F4"/>
		</linearGradient>
		<path style="fill:url(#SVGID_00000053516523337619164090000015283895569689266859_);" d="M95.043,305.688h199.903V184.444
			c0-2.314-1.876-4.191-4.191-4.191H99.234c-2.314,0-4.191,1.876-4.191,4.191V305.688z"/>
		
			<linearGradient id="SVGID_00000095331929417920839980000009927416611056288682_" gradientUnits="userSpaceOnUse" x1="194.995" y1="304.2878" x2="194.995" y2="281.6565">
			<stop  offset="0" style="stop-color:#9B9D9D"/>
			<stop  offset="1" style="stop-color:#F4F4F4"/>
		</linearGradient>
		
			<rect x="95.043" y="270.341" style="opacity:0.6;fill:url(#SVGID_00000095331929417920839980000009927416611056288682_);" width="199.903" height="35.347"/>
		<g>
			
				<linearGradient id="SVGID_00000012462914968418668700000016144894522594471847_" gradientUnits="userSpaceOnUse" x1="112.2907" y1="299.0946" x2="137.9159" y2="252.4152">
				<stop  offset="0" style="stop-color:#D6D6D6"/>
				<stop  offset="1" style="stop-color:#F4F4F4"/>
			</linearGradient>
			<path style="fill:url(#SVGID_00000012462914968418668700000016144894522594471847_);" d="M139.562,253.883h-29.546
				c-0.466,0-0.844,0.378-0.844,0.844v43.202c0,0.466,0.378,0.844,0.844,0.844h29.546c0.466,0,0.844-0.378,0.844-0.844v-43.202
				C140.406,254.261,140.028,253.883,139.562,253.883z"/>
			<path style="fill:none;stroke:#9B9D9D;stroke-width:0.6407;stroke-miterlimit:10;" d="M139.562,253.883h-29.546
				c-0.466,0-0.844,0.378-0.844,0.844v43.202c0,0.466,0.378,0.844,0.844,0.844h29.546c0.466,0,0.844-0.378,0.844-0.844v-43.202
				C140.406,254.261,140.028,253.883,139.562,253.883z"/>
		</g>
		<path style="fill:#9B9D9D;" d="M115.963,285.47h-0.451c-1.745,0-3.16-1.415-3.16-3.16l0,0c0-1.745,1.415-3.16,3.16-3.16h0.451
			V285.47z"/>
		<rect x="95.043" y="302.492" style="fill:#8A8989;" width="199.903" height="3.196"/>
		
			<linearGradient id="SVGID_00000035520343239971548610000015253732515156689290_" gradientUnits="userSpaceOnUse" x1="174.2304" y1="303.0056" x2="174.2304" y2="280.0003">
			<stop  offset="0" style="stop-color:#D8D8D8"/>
			<stop  offset="1" style="stop-color:#FFFFFF"/>
		</linearGradient>
		<path style="fill:url(#SVGID_00000035520343239971548610000015253732515156689290_);" d="M177.551,274.892h-6.64
			c-14.524,0-26.298,12.768-26.298,28.519v2.277h59.236v-2.277C203.848,287.66,192.075,274.892,177.551,274.892z"/>
		<path style="fill:#1D1D1B;" d="M177.053,278.984h-5.644c-12.345,0-22.353,10.008-22.353,22.353v4.351h50.349v-4.351
			C199.405,288.992,189.398,278.984,177.053,278.984z"/>
		
			<linearGradient id="SVGID_00000062883539525870589850000004145356162475157181_" gradientUnits="userSpaceOnUse" x1="208.4468" y1="297.7941" x2="257.5784" y2="208.295">
			<stop  offset="0" style="stop-color:#D6D6D6"/>
			<stop  offset="1" style="stop-color:#F4F4F4"/>
		</linearGradient>
		<path style="fill:url(#SVGID_00000062883539525870589850000004145356162475157181_);" d="M255.469,208.176h-46.118
			c-0.727,0-1.317,0.59-1.317,1.317v89.298c0,0.727,0.59,1.317,1.317,1.317h46.118c0.727,0,1.317-0.59,1.317-1.317v-89.298
			C256.786,208.766,256.196,208.176,255.469,208.176z"/>
		<path style="fill:none;stroke:#9B9D9D;stroke-miterlimit:10;" d="M255.469,208.176h-46.118c-0.727,0-1.317,0.59-1.317,1.317
			v89.298c0,0.727,0.59,1.317,1.317,1.317h46.118c0.727,0,1.317-0.59,1.317-1.317v-89.298
			C256.786,208.766,256.196,208.176,255.469,208.176z"/>
		<g>
			
				<linearGradient id="SVGID_00000009552560786027478390000000076363682669049254_" gradientUnits="userSpaceOnUse" x1="262.9112" y1="285.5065" x2="288.5365" y2="238.827">
				<stop  offset="0" style="stop-color:#D6D6D6"/>
				<stop  offset="1" style="stop-color:#F4F4F4"/>
			</linearGradient>
			<path style="fill:url(#SVGID_00000009552560786027478390000000076363682669049254_);" d="M290.183,240.295h-29.546
				c-0.466,0-0.844,0.378-0.844,0.844v43.202c0,0.466,0.378,0.844,0.844,0.844h29.546c0.466,0,0.844-0.378,0.844-0.844v-43.202
				C291.026,240.673,290.649,240.295,290.183,240.295z"/>
			<path style="fill:none;stroke:#9B9D9D;stroke-width:0.6407;stroke-miterlimit:10;" d="M290.183,240.295h-29.546
				c-0.466,0-0.844,0.378-0.844,0.844v43.202c0,0.466,0.378,0.844,0.844,0.844h29.546c0.466,0,0.844-0.378,0.844-0.844v-43.202
				C291.026,240.673,290.649,240.295,290.183,240.295z"/>
		</g>
		<g>
			<path style="fill:#D6D6D6;" d="M290.183,289.01h-29.546c-0.466,0-0.844,0.378-0.844,0.844v9.18c0,0.466,0.378,0.844,0.844,0.844
				h29.546c0.466,0,0.844-0.378,0.844-0.844v-9.18C291.026,289.388,290.649,289.01,290.183,289.01z"/>
			<path style="fill:none;stroke:#9B9D9D;stroke-width:0.6407;stroke-miterlimit:10;" d="M290.183,289.01h-29.546
				c-0.466,0-0.844,0.378-0.844,0.844v9.18c0,0.466,0.378,0.844,0.844,0.844h29.546c0.466,0,0.844-0.378,0.844-0.844v-9.18
				C291.026,289.388,290.649,289.01,290.183,289.01z"/>
		</g>
		<text transform="matrix(1 0 0 1 108.3583 238.3205)" style="fill:#E30613; font-family:'Raleway-Black'; font-size:14.1046px;">AMBULANCE</text>
		
			<linearGradient id="SVGID_00000181803938906618480470000007845186726387569295_" gradientUnits="userSpaceOnUse" x1="289.8255" y1="261.6049" x2="308.4969" y2="261.6049">
			<stop  offset="0" style="stop-color:#D6D6D6"/>
			<stop  offset="1" style="stop-color:#F4F4F4"/>
		</linearGradient>
		<path style="fill:url(#SVGID_00000181803938906618480470000007845186726387569295_);" d="M411.78,305.688H294.947v-88.166h29.509
			c2.03,0,4.009,0.634,5.661,1.814l44.125,31.52c1.823,1.302,3.909,2.188,6.111,2.595l21.172,3.916
			c7.794,1.441,13.45,8.239,13.45,16.165v28.959C414.976,304.257,413.545,305.688,411.78,305.688z"/>
		<path style="fill:#9B9D9D;" d="M370.844,253.774c1.889,0.055,5.916-0.54,8.385-0.581c-1.432-0.493-3.219-0.931-4.458-1.816
			l-40.449-29.036l-0.701-0.475c7.969,7.761,26.616,27.013,29.069,29.043C365.767,253.454,367.098,253.664,370.844,253.774z"/>
		
			<linearGradient id="SVGID_00000146499415270418569920000010716242599128473763_" gradientUnits="userSpaceOnUse" x1="354.9612" y1="304.2878" x2="354.9612" y2="281.6565">
			<stop  offset="0" style="stop-color:#9B9D9D"/>
			<stop  offset="1" style="stop-color:#F4F4F4"/>
		</linearGradient>
		<path style="opacity:0.6;fill:url(#SVGID_00000146499415270418569920000010716242599128473763_);" d="M294.947,270.341v35.347
			H411.78c1.765,0,3.196-1.431,3.196-3.196v-28.959c0-1.09-0.117-2.156-0.322-3.192H294.947z"/>
		<path style="fill:#8A8989;" d="M294.947,302.492v3.196H411.78c1.765,0,3.196-1.431,3.196-3.196l0,0H294.947z"/>
		
			<linearGradient id="SVGID_00000042700607903284275480000004777310282890535605_" gradientUnits="userSpaceOnUse" x1="376.3027" y1="304.337" x2="376.3027" y2="276.5219">
			<stop  offset="0" style="stop-color:#D8D8D8"/>
			<stop  offset="1" style="stop-color:#FFFFFF"/>
		</linearGradient>
		<path style="fill:url(#SVGID_00000042700607903284275480000004777310282890535605_);" d="M377.27,275.104
			c-18.735,0-27.155,16.362-29.107,30.584h56.279C403.054,289.919,394.881,275.104,377.27,275.104z"/>
		<path style="fill:#3D3D3D;" d="M402.764,300.76h13.749c0,0,0.306,7.129-6.824,7.129c-2.852,0-6.925,0-6.925,0V300.76z"/>
		<path style="fill:#1D1D1B;" d="M377.193,278.1c-17.451,0-24.943,15.095-26.323,27.588h50.839
			C400.832,291.666,393.535,278.1,377.193,278.1z"/>
		<path style="fill:#3D3D3D;" d="M90.018,306.427h10.014c0.431,0,0.781-0.35,0.781-0.781v-3.748c0-0.431-0.35-0.781-0.781-0.781
			H90.018c-0.431,0-0.781,0.35-0.781,0.781v3.748C89.237,306.078,89.587,306.427,90.018,306.427z"/>
		<path style="fill:#F39000;" d="M94.055,200.995h1.015v-9.765h-1.015c-0.473,0-0.856,0.383-0.856,0.856v8.053
			C93.199,200.611,93.582,200.995,94.055,200.995z"/>
		<path style="fill:#F39000;" d="M93.998,297.507h1.073v-6.29h-1.073c-0.441,0-0.799,0.358-0.799,0.799v4.692
			C93.199,297.149,93.556,297.507,93.998,297.507z"/>
		
			<linearGradient id="SVGID_00000056397066111135968920000002376524232072020352_" gradientUnits="userSpaceOnUse" x1="309.8437" y1="261.1864" x2="333.6528" y2="233.095">
			<stop  offset="0" style="stop-color:#57C4F2"/>
			<stop  offset="1" style="stop-color:#BCE2F9"/>
		</linearGradient>
		<path style="fill:url(#SVGID_00000056397066111135968920000002376524232072020352_);" d="M348.493,254.261h-39.299
			c-1.982,0-3.589-1.607-3.589-3.589v-23.807c0-1.982,1.607-3.589,3.589-3.589h16.114c0.906,0,1.779,0.343,2.443,0.96l23.185,21.556
			c0.73,0.679,1.145,1.631,1.145,2.628v2.251C352.082,252.655,350.475,254.261,348.493,254.261z"/>
		<path style="fill:none;stroke:#9B9D9D;stroke-miterlimit:10;" d="M348.493,254.261h-39.299c-1.982,0-3.589-1.607-3.589-3.589
			v-23.807c0-1.982,1.607-3.589,3.589-3.589h16.114c0.906,0,1.779,0.343,2.443,0.96l23.185,21.556
			c0.73,0.679,1.145,1.631,1.145,2.628v2.251C352.082,252.655,350.475,254.261,348.493,254.261z"/>
		<path style="fill:#E30613;" d="M411.785,268.09H95.043v-11.582h285.175c6.314,0,15.748,0.723,22.127,4.27
			C408.723,264.324,411.785,268.09,411.785,268.09z"/>
		<path style="fill:none;stroke:#A6A7A7;stroke-miterlimit:10;" d="M397.666,257.503c0,0,12.215,0.945,15.371,10.511
			C406.525,268.198,400.388,262.299,397.666,257.503z"/>
		<rect x="95.043" y="270.2" style="fill:#009FE3;" width="313.12" height="2.869"/>
		
			<linearGradient id="SVGID_00000139265920802810955920000014802827313826953122_" gradientUnits="userSpaceOnUse" x1="354.2903" y1="253.407" x2="356.0031" y2="239.5326">
			<stop  offset="0" style="stop-color:#57C4F2"/>
			<stop  offset="1" style="stop-color:#BCE2F9"/>
		</linearGradient>
		<path style="fill:url(#SVGID_00000139265920802810955920000014802827313826953122_);" d="M371.056,252.865
			c1.835,0.054,4.707,0.028,7.106-0.011c-1.391-0.479-2.716-1.137-3.92-1.997l-39.919-28.516
			c7.738,7.536,26.433,25.771,28.815,27.742C366.125,252.555,367.418,252.758,371.056,252.865z"/>
		<rect x="294.951" y="191.269" style="fill:#5F6160;" width="2.355" height="8.029"/>
		<path style="fill:#F39000;" d="M297.306,199.298h0.805c0.952,0,1.723-0.771,1.723-1.723v-4.583c0-0.952-0.772-1.723-1.723-1.723
			h-0.805V199.298z"/>
		<g>
			
				<linearGradient id="SVGID_00000145044061657611863560000010790847884506386327_" gradientUnits="userSpaceOnUse" x1="161.3668" y1="317.4952" x2="185.6328" y2="290.9468">
				<stop  offset="0" style="stop-color:#5C5C5B"/>
				<stop  offset="1" style="stop-color:#6F6F6E"/>
			</linearGradient>
			<circle style="fill:url(#SVGID_00000145044061657611863560000010790847884506386327_);" cx="173.803" cy="303.889" r="20.393"/>
			<circle style="fill:#444543;" cx="173.803" cy="303.889" r="13.914"/>
			
				<linearGradient id="SVGID_00000034795390684698937000000000491376270707951264_" gradientUnits="userSpaceOnUse" x1="168.1781" y1="314.4854" x2="179.6629" y2="292.8513">
				<stop  offset="0" style="stop-color:#7A7979"/>
				<stop  offset="1" style="stop-color:#CCCCCC"/>
			</linearGradient>
			<circle style="fill:url(#SVGID_00000034795390684698937000000000491376270707951264_);" cx="173.803" cy="303.889" r="12.46"/>
			
				<linearGradient id="SVGID_00000016035755431193390640000016499899346741624223_" gradientUnits="userSpaceOnUse" x1="168.1738" y1="314.4831" x2="179.6585" y2="292.8491">
				<stop  offset="0" style="stop-color:#7A7979"/>
				<stop  offset="1" style="stop-color:#A1A1A1"/>
			</linearGradient>
			<path style="fill:url(#SVGID_00000016035755431193390640000016499899346741624223_);" d="M165.908,297.882
				c0-1.469,0.267-2.872,0.734-4.18c-3.202,2.255-5.299,5.973-5.299,10.186c0,6.882,5.579,12.46,12.46,12.46
				c5.413,0,10.006-3.458,11.726-8.28c-2.027,1.428-4.493,2.273-7.161,2.273C171.487,310.342,165.908,304.764,165.908,297.882z"/>
			<path style="fill:#363635;" d="M177.094,303.889c0,1.817-1.473,3.29-3.291,3.29c-1.817,0-3.291-1.473-3.291-3.29
				c0-1.817,1.473-3.291,3.291-3.291C175.621,300.598,177.094,302.071,177.094,303.889z"/>
			<circle style="fill:#5C5C5B;" cx="173.803" cy="303.889" r="2.411"/>
			<circle style="fill:#363635;" cx="173.803" cy="296.147" r="1.822"/>
			<path style="fill:#363635;" d="M175.626,311.631c0,1.006-0.816,1.822-1.822,1.822c-1.006,0-1.822-0.816-1.822-1.822
				c0-1.006,0.816-1.822,1.822-1.822C174.81,309.809,175.626,310.624,175.626,311.631z"/>
			<path style="fill:#363635;" d="M181.545,305.711c-1.006,0-1.822-0.816-1.822-1.822s0.816-1.822,1.822-1.822
				c1.006,0,1.822,0.816,1.822,1.822S182.552,305.711,181.545,305.711z"/>
			<path style="fill:#363635;" d="M166.061,305.711c-1.006,0-1.822-0.816-1.822-1.822s0.816-1.822,1.822-1.822
				c1.006,0,1.822,0.816,1.822,1.822S167.068,305.711,166.061,305.711z"/>
		</g>
		<g>
			
				<linearGradient id="SVGID_00000183928021133141339560000017678548402420328323_" gradientUnits="userSpaceOnUse" x1="364.0689" y1="317.4953" x2="388.335" y2="290.9468">
				<stop  offset="0" style="stop-color:#5C5C5B"/>
				<stop  offset="1" style="stop-color:#6F6F6E"/>
			</linearGradient>
			<circle style="fill:url(#SVGID_00000183928021133141339560000017678548402420328323_);" cx="376.506" cy="303.889" r="20.393"/>
			<circle style="fill:#444543;" cx="376.506" cy="303.889" r="13.914"/>
			
				<linearGradient id="SVGID_00000080206298680366334430000014317484145131251122_" gradientUnits="userSpaceOnUse" x1="370.8803" y1="314.4854" x2="382.365" y2="292.8513">
				<stop  offset="0" style="stop-color:#7A7979"/>
				<stop  offset="1" style="stop-color:#CCCCCC"/>
			</linearGradient>
			<circle style="fill:url(#SVGID_00000080206298680366334430000014317484145131251122_);" cx="376.506" cy="303.889" r="12.46"/>
			
				<linearGradient id="SVGID_00000120531162184465563660000016456879045569872530_" gradientUnits="userSpaceOnUse" x1="370.8759" y1="314.4831" x2="382.3606" y2="292.8492">
				<stop  offset="0" style="stop-color:#7A7979"/>
				<stop  offset="1" style="stop-color:#A1A1A1"/>
			</linearGradient>
			<path style="fill:url(#SVGID_00000120531162184465563660000016456879045569872530_);" d="M368.611,297.882
				c0-1.469,0.267-2.872,0.734-4.18c-3.202,2.255-5.299,5.973-5.299,10.186c0,6.882,5.579,12.46,12.46,12.46
				c5.413,0,10.006-3.458,11.726-8.28c-2.027,1.428-4.493,2.273-7.161,2.273C374.189,310.342,368.611,304.764,368.611,297.882z"/>
			<path style="fill:#363635;" d="M379.796,303.889c0,1.817-1.473,3.29-3.291,3.29c-1.817,0-3.291-1.473-3.291-3.29
				c0-1.817,1.473-3.291,3.291-3.291C378.323,300.598,379.796,302.071,379.796,303.889z"/>
			<path style="fill:#5C5C5B;" d="M378.917,303.889c0,1.332-1.079,2.411-2.411,2.411c-1.332,0-2.411-1.08-2.411-2.411
				c0-1.332,1.079-2.411,2.411-2.411C377.837,301.478,378.917,302.557,378.917,303.889z"/>
			<path style="fill:#363635;" d="M378.328,296.147c0,1.006-0.816,1.822-1.822,1.822c-1.006,0-1.822-0.816-1.822-1.822
				c0-1.006,0.816-1.822,1.822-1.822C377.512,294.325,378.328,295.14,378.328,296.147z"/>
			<path style="fill:#363635;" d="M378.328,311.631c0,1.006-0.816,1.822-1.822,1.822c-1.006,0-1.822-0.816-1.822-1.822
				c0-1.006,0.816-1.822,1.822-1.822C377.512,309.809,378.328,310.624,378.328,311.631z"/>
			<path style="fill:#363635;" d="M384.248,305.711c-1.006,0-1.822-0.816-1.822-1.822s0.816-1.822,1.822-1.822
				s1.822,0.816,1.822,1.822S385.254,305.711,384.248,305.711z"/>
			<path style="fill:#363635;" d="M368.764,305.711c-1.006,0-1.822-0.816-1.822-1.822s0.816-1.822,1.822-1.822
				c1.006,0,1.822,0.816,1.822,1.822S369.77,305.711,368.764,305.711z"/>
		</g>
		<path style="opacity:0.22;fill:none;stroke:#5F5E5E;stroke-miterlimit:10;" d="M344.692,305.647
			c3.775-19.319,12.399-29.701,12.399-29.701v-25.133c0-1.336-0.54-2.615-1.497-3.546L331.4,223.714
			c-2.774-2.663-5.165-3.062-11.74-3.062c-4.934,0-24.743,0-24.743,0"/>
		
			<line style="opacity:0.22;fill:none;stroke:#5F5E5E;stroke-miterlimit:10;" x1="301.251" y1="305.711" x2="301.251" y2="221.191"/>
		<path style="fill:#FFFFFF;" d="M290.358,189.079H101.052c-0.87,0-1.575-0.705-1.575-1.575l0,0c0-0.87,0.705-1.575,1.575-1.575
			h189.306c0.87,0,1.575,0.705,1.575,1.575l0,0C291.934,188.373,291.228,189.079,290.358,189.079z"/>
		<path style="fill:#BBBABA;" d="M290.358,188.359H101.052c-0.746,0-1.367-0.52-1.53-1.215c-0.027,0.116-0.045,0.235-0.045,0.36
			c0,0.87,0.705,1.575,1.575,1.575h189.306c0.87,0,1.575-0.705,1.575-1.575c0-0.124-0.018-0.244-0.045-0.36
			C291.725,187.84,291.104,188.359,290.358,188.359z"/>
		<path style="fill:#FFFFFF;" d="M257.749,205.667h-51.248c-0.291,0-0.526,0.324-0.526,0.724s0.236,0.724,0.526,0.724h51.248
			c0.291,0,0.526-0.324,0.526-0.724S258.04,205.667,257.749,205.667z"/>
		<path style="fill:#DCDCDC;" d="M257.749,206.576h-51.248c-0.221,0-0.409-0.189-0.487-0.454c-0.025,0.083-0.04,0.174-0.04,0.27
			c0,0.4,0.236,0.724,0.526,0.724h51.248c0.291,0,0.526-0.324,0.526-0.724c0-0.096-0.015-0.186-0.04-0.27
			C258.158,206.387,257.97,206.576,257.749,206.576z"/>
		<path style="fill:#9B9D9D;" d="M241.077,214.733h-16.475c-2.737,0-4.957,2.219-4.957,4.956v20.115
			c0,2.737,2.219,4.957,4.957,4.957h16.475c2.738,0,4.957-2.219,4.957-4.957v-20.115
			C246.034,216.952,243.815,214.733,241.077,214.733z"/>
		
			<linearGradient id="SVGID_00000050633850271864436660000013418336143720280990_" gradientUnits="userSpaceOnUse" x1="218.5428" y1="244.9157" x2="246.6341" y2="215.1116">
			<stop  offset="0" style="stop-color:#57C4F2"/>
			<stop  offset="1" style="stop-color:#BCE2F9"/>
		</linearGradient>
		<path style="fill:url(#SVGID_00000050633850271864436660000013418336143720280990_);" d="M240.542,215.709h-15.404
			c-2.559,0-4.634,2.075-4.634,4.634v18.807c0,2.559,2.075,4.634,4.634,4.634h15.404c2.559,0,4.634-2.075,4.634-4.634v-18.807
			C245.176,217.784,243.101,215.709,240.542,215.709z"/>
		<path style="opacity:0.4;fill:#FFFFFF;" d="M240.51,215.709h-1.38l-18.595,24.071c0.22,1.604,1.245,2.944,2.669,3.587
			l20.42-26.434C242.801,216.18,241.715,215.709,240.51,215.709z"/>
		<polygon style="opacity:0.4;fill:#FFFFFF;" points="227.688,243.785 229.633,243.785 245.145,223.705 245.145,221.187 		"/>
		<path style="opacity:0.4;fill:#FFFFFF;" d="M330.11,226.459l-21.439,27.753c0.162,0.022,0.323,0.049,0.491,0.049h4.91
			l19.203-24.858L330.11,226.459z"/>
		<polygon style="opacity:0.4;fill:#FFFFFF;" points="336.073,232.003 318.878,254.261 320.824,254.261 337.205,233.056 		"/>
		<g>
			<path style="fill:#E30613;" d="M287.952,171.453h-12.424c-1.667,0-3.018,1.351-3.018,3.018l0,0c0,1.667,1.351,3.018,3.018,3.018
				h12.424c1.667,0,3.018-1.351,3.018-3.018l0,0C290.969,172.804,289.618,171.453,287.952,171.453z"/>
			<path style="fill:#B00F0A;" d="M272.865,173.052c-0.226,0.423-0.355,0.906-0.355,1.419l0,0c0,1.667,1.351,3.018,3.018,3.018
				h12.424c1.667,0,3.018-1.351,3.018-3.018l0,0c0-0.026-0.003-0.052-0.004-0.078C286.328,176.337,275.217,175.277,272.865,173.052z
				"/>
			<path style="fill:#ED7010;" d="M289.437,172.575c0,0.304-3.656,0.55-5.696,0.55c-2.041,0-6.697-0.246-6.697-0.55
				c0-0.304,4.656-0.55,6.697-0.55C285.781,172.025,289.437,172.271,289.437,172.575z"/>
		</g>
		<g>
			<path style="fill:#E30613;" d="M286.951,191.839h-9.422c-1.667,0-3.018,1.351-3.018,3.018l0,0c0,1.667,1.351,3.018,3.018,3.018
				h9.422c1.667,0,3.018-1.351,3.018-3.018l0,0C289.969,193.191,288.617,191.839,286.951,191.839z"/>
			<path style="fill:#B00F0A;" d="M274.866,193.438c-0.226,0.423-0.355,0.906-0.355,1.419l0,0c0,1.667,1.351,3.018,3.018,3.018
				h9.422c1.667,0,3.018-1.351,3.018-3.018l0,0c0-0.026-0.003-0.052-0.004-0.078C285.327,196.724,277.219,195.663,274.866,193.438z"
				/>
			<ellipse style="fill:#ED7010;" cx="283.741" cy="192.961" rx="4.695" ry="0.55"/>
		</g>
		<g>
			<path style="fill:#00B5EC;" d="M268.306,191.839h-9.422c-1.667,0-3.018,1.351-3.018,3.018l0,0c0,1.667,1.351,3.018,3.018,3.018
				h9.422c1.667,0,3.018-1.351,3.018-3.018l0,0C271.324,193.191,269.973,191.839,268.306,191.839z"/>
			<path style="fill:#0092CF;" d="M256.221,193.438c-0.226,0.423-0.355,0.906-0.355,1.419l0,0c0,1.667,1.351,3.018,3.018,3.018
				h9.422c1.667,0,3.018-1.351,3.018-3.018l0,0c0-0.026-0.003-0.052-0.004-0.078C266.682,196.724,258.574,195.663,256.221,193.438z"
				/>
			<ellipse style="fill:#96D6F7;" cx="265.096" cy="192.961" rx="4.695" ry="0.55"/>
		</g>
		<g>
			<path style="fill:#E30613;" d="M132.126,191.839h-9.422c-1.667,0-3.018,1.351-3.018,3.018l0,0c0,1.667,1.351,3.018,3.018,3.018
				h9.422c1.667,0,3.018-1.351,3.018-3.018l0,0C135.143,193.191,133.792,191.839,132.126,191.839z"/>
			<path style="fill:#B00F0A;" d="M120.041,193.438c-0.226,0.423-0.355,0.906-0.355,1.419l0,0c0,1.667,1.351,3.018,3.018,3.018
				h9.422c1.667,0,3.018-1.351,3.018-3.018l0,0c0-0.026-0.003-0.052-0.004-0.078C130.502,196.724,122.394,195.663,120.041,193.438z"
				/>
			<ellipse style="fill:#ED7010;" cx="128.916" cy="192.961" rx="4.695" ry="0.55"/>
		</g>
		<g>
			<path style="fill:#00B5EC;" d="M113.481,191.839h-9.422c-1.667,0-3.018,1.351-3.018,3.018l0,0c0,1.667,1.351,3.018,3.018,3.018
				h9.422c1.667,0,3.018-1.351,3.018-3.018l0,0C116.499,193.191,115.148,191.839,113.481,191.839z"/>
			<path style="fill:#0092CF;" d="M101.396,193.438c-0.226,0.423-0.355,0.906-0.355,1.419l0,0c0,1.667,1.351,3.018,3.018,3.018
				h9.422c1.667,0,3.018-1.351,3.018-3.018l0,0c0-0.026-0.003-0.052-0.004-0.078C111.857,196.724,103.749,195.663,101.396,193.438z"
				/>
			<path style="fill:#96D6F7;" d="M114.967,192.961c0,0.304-2.655,0.55-4.696,0.55c-2.041,0-4.696-0.246-4.696-0.55
				c0-0.304,2.655-0.55,4.696-0.55C112.312,192.411,114.967,192.658,114.967,192.961z"/>
		</g>
		<path style="fill:#9B9D9D;" d="M214.66,254.867h-0.451c-1.745,0-3.16-1.415-3.16-3.16v0c0-1.745,1.415-3.16,3.16-3.16h0.451
			V254.867z"/>
		<path style="fill:#9B9D9D;" d="M266.584,271.882h-0.451c-1.745,0-3.16-1.415-3.16-3.16l0,0c0-1.745,1.415-3.16,3.16-3.16h0.451
			V271.882z"/>
		<path style="fill:#9B9D9D;" d="M263.821,292.8c-1.172,0-2.123,0.95-2.123,2.123c0,1.172,0.95,2.123,2.123,2.123h0.303V292.8
			H263.821z"/>
		
			<linearGradient id="SVGID_00000050626347479193286690000015392100879212698291_" gradientUnits="userSpaceOnUse" x1="406.1298" y1="261.8695" x2="403.5369" y2="264.8328">
			<stop  offset="0" style="stop-color:#B5E1EC"/>
			<stop  offset="1" style="stop-color:#7BCCE6"/>
		</linearGradient>
		<path style="fill:url(#SVGID_00000050626347479193286690000015392100879212698291_);" d="M397.666,257.503
			c0,0,12.215,0.945,15.371,10.511C406.525,268.198,400.388,262.299,397.666,257.503z"/>
		<path style="fill:#F6A200;" d="M397.666,257.503c0.868,1.529,2.085,3.169,3.548,4.689c0.218-1.433,0.703-2.656,1.297-3.632
			C399.8,257.671,397.666,257.503,397.666,257.503z"/>
	</g>
</g>
<g id="DESIGNED_BY_FREEPIK">
	<g>
		<g id="XMLID_319_">
			<g id="XMLID_338_">
				<path id="XMLID_346_" style="fill:#FFFFFF;" d="M260.104,465.465c-0.432,0.443-0.803,0.931-1.108,1.453l-0.465-0.241
					c-0.067-0.298-0.349-0.503-0.659-0.466c-0.331,0.039-0.568,0.339-0.529,0.67s0.339,0.568,0.67,0.529
					c0.065-0.008,0.127-0.026,0.184-0.052l0.451,0.234c-0.251,0.554-0.433,1.139-0.539,1.744l0.746,0.132
					c0.23-1.306,0.85-2.507,1.792-3.473L260.104,465.465z"/>
				<path id="XMLID_345_" style="fill:#FFFFFF;" d="M265.592,463.163c-0.171,0-0.341,0.006-0.51,0.017l-0.074-0.626
					c0.188-0.149,0.296-0.389,0.266-0.645c-0.046-0.393-0.402-0.674-0.795-0.628s-0.674,0.402-0.628,0.795
					c0.03,0.254,0.189,0.461,0.405,0.564l0.073,0.624c-0.714,0.116-1.403,0.332-2.06,0.646l0.327,0.684
					c0.934-0.447,1.942-0.673,2.995-0.673c0.496,0,0.993,0.053,1.475,0.158l0.161-0.741
					C266.693,463.222,266.142,463.163,265.592,463.163z"/>
				<path id="XMLID_344_" style="fill:#FFFFFF;" d="M272.194,465.711c0.331-0.04,0.566-0.341,0.525-0.672
					c-0.04-0.331-0.341-0.566-0.672-0.526c-0.309,0.038-0.535,0.304-0.53,0.609l-0.416,0.363c-0.418-0.43-0.89-0.813-1.408-1.139
					l-0.404,0.641c1.134,0.715,2.021,1.726,2.563,2.925l0.691-0.313c-0.251-0.554-0.568-1.072-0.942-1.545l0.402-0.351
					C272.065,465.716,272.129,465.719,272.194,465.711z"/>
				<path id="XMLID_343_" style="fill:#FFFFFF;" d="M265.044,473.372c-0.386,0.023-0.775,0.035-1.157,0.035
					c-0.88,0-1.733-0.061-2.478-0.179c-0.39-0.062-0.846-0.155-1.27-0.292c1.046,1.861,3.069,3.125,5.388,3.125
					c2.855,0,5.262-1.916,5.95-4.504c-0.682,0.449-1.505,0.825-2.459,1.123C267.839,473.047,266.464,473.286,265.044,473.372z"/>
				<path id="XMLID_339_" style="fill:#FFFFFF;" d="M265.592,464.68c-3.352,0-6.08,2.666-6.08,5.943
					c0,0.426,0.046,0.849,0.137,1.261c0.674,0.483,2.706,0.89,5.348,0.731c2.879-0.173,5.297-0.957,6.672-2.159
					c-0.005-0.195-0.021-0.39-0.045-0.582C271.244,466.913,268.65,464.68,265.592,464.68z M263.432,471.194
					c-1.02,0-1.85-0.83-1.85-1.85c0-1.02,0.83-1.85,1.85-1.85c1.02,0,1.85,0.83,1.85,1.85
					C265.282,470.365,264.452,471.194,263.432,471.194z M268.17,470.286c-0.75,0-1.36-0.61-1.36-1.36s0.61-1.361,1.36-1.361
					c0.75,0,1.361,0.61,1.361,1.361S268.92,470.286,268.17,470.286z"/>
			</g>
			<path id="XMLID_336_" style="fill:#FFFFFF;" d="M281.595,466.547c-0.295-0.116-0.806-0.309-1.382-0.237
				c-0.551,0.069-0.844,0.341-0.844,1.007v0.866h2.228v1.717h-2.228v5.455h-1.932v-5.455h-1.34v-1.717h1.34v-0.888
				c0-1.68,0.896-2.783,2.568-2.783c0.642,0,1.157,0.122,1.59,0.308L281.595,466.547z"/>
			<path id="XMLID_334_" style="fill:#FFFFFF;" d="M286.298,469.879c-0.177-0.03-0.358-0.046-0.526-0.046
				c-0.896,0-1.51,0.548-1.51,1.614v3.908h-1.932v-7.172h1.873v0.785c0.451-0.673,1.14-0.977,2.021-0.977
				c0.414,0,0.848,0.128,1.094,0.337L286.298,469.879z"/>
			<path id="XMLID_331_" style="fill:#FFFFFF;" d="M293.965,471.757c0,0.222-0.015,0.489-0.037,0.651h-5.085
				c0.207,1.036,0.933,1.488,1.843,1.488c0.622,0,1.295-0.252,1.813-0.688l1.132,1.243c-0.814,0.748-1.85,1.088-3.057,1.088
				c-2.198,0-3.723-1.495-3.723-3.753c0-2.258,1.48-3.797,3.627-3.797C292.544,467.99,293.958,469.522,293.965,471.757z
				 M288.851,471.091h3.175c-0.177-0.918-0.733-1.436-1.562-1.436C289.554,469.655,289.021,470.203,288.851,471.091z"/>
			<path id="XMLID_328_" style="fill:#FFFFFF;" d="M301.618,471.757c0,0.222-0.015,0.489-0.037,0.651h-5.085
				c0.207,1.036,0.932,1.488,1.843,1.488c0.622,0,1.295-0.252,1.813-0.688l1.132,1.243c-0.814,0.748-1.85,1.088-3.057,1.088
				c-2.198,0-3.723-1.495-3.723-3.753c0-2.258,1.48-3.797,3.627-3.797C300.197,467.99,301.611,469.522,301.618,471.757z
				 M296.504,471.091h3.175c-0.178-0.918-0.733-1.436-1.562-1.436C297.207,469.655,296.674,470.203,296.504,471.091z"/>
			<path id="XMLID_325_" style="fill:#FFFFFF;" d="M309.964,471.764c0,2.154-1.495,3.775-3.471,3.775
				c-0.962,0-1.643-0.378-2.109-0.933v3.708h-1.924v-10.133h1.887v0.792c0.466-0.585,1.155-0.984,2.139-0.984
				C308.469,467.99,309.964,469.61,309.964,471.764z M304.287,471.764c0,1.132,0.747,1.976,1.843,1.976
				c1.14,0,1.85-0.881,1.85-1.976c0-1.095-0.71-1.976-1.85-1.976C305.035,469.788,304.287,470.632,304.287,471.764z"/>
			<path id="XMLID_322_" style="fill:#FFFFFF;" d="M313.068,465.836c0,0.696-0.54,1.229-1.236,1.229
				c-0.696,0-1.229-0.533-1.229-1.229c0-0.696,0.533-1.243,1.229-1.243C312.527,464.592,313.068,465.14,313.068,465.836z
				 M312.809,475.354h-1.932v-7.172h1.932V475.354z"/>
			<path id="XMLID_320_" style="fill:#FFFFFF;" d="M316.032,470.736l2.702-2.554h2.368l-3.479,3.375l3.501,3.797h-2.376
				l-2.716-2.901v2.901H314.1v-10.658h1.932V470.736z"/>
		</g>
		<g>
			<path style="fill:#FFFFFF;" d="M184.412,475.289v-1.055c-0.527,0.718-1.391,1.23-2.387,1.23c-1.846,0-3.149-1.406-3.149-3.706
				c0-2.256,1.289-3.721,3.149-3.721c0.952,0,1.816,0.469,2.387,1.245v-3.765h1.099v9.77H184.412z M184.412,473.37v-3.208
				c-0.395-0.615-1.245-1.143-2.124-1.143c-1.421,0-2.27,1.172-2.27,2.739c0,1.567,0.85,2.724,2.27,2.724
				C183.168,474.483,184.017,473.986,184.412,473.37z"/>
			<path style="fill:#FFFFFF;" d="M186.932,471.744c0-2.051,1.465-3.706,3.486-3.706c2.139,0,3.398,1.67,3.398,3.794v0.279h-5.727
				c0.088,1.333,1.025,2.446,2.549,2.446c0.805,0,1.626-0.322,2.182-0.894l0.527,0.718c-0.703,0.703-1.655,1.084-2.812,1.084
				C188.44,475.465,186.932,473.956,186.932,471.744z M190.403,468.947c-1.509,0-2.256,1.274-2.314,2.358h4.643
				C192.718,470.25,192.015,468.947,190.403,468.947z"/>
			<path style="fill:#FFFFFF;" d="M194.607,474.351l0.571-0.791c0.469,0.542,1.362,1.011,2.329,1.011c1.084,0,1.67-0.513,1.67-1.216
				c0-1.714-4.38-0.659-4.38-3.281c0-1.098,0.952-2.036,2.636-2.036c1.201,0,2.051,0.454,2.622,1.026l-0.513,0.762
				c-0.424-0.513-1.201-0.894-2.109-0.894c-0.967,0-1.567,0.483-1.567,1.113c0,1.552,4.38,0.527,4.38,3.281
				c0,1.187-0.952,2.138-2.783,2.138C196.306,475.465,195.325,475.113,194.607,474.351z"/>
			<path style="fill:#FFFFFF;" d="M201.477,466.471c0-0.41,0.337-0.747,0.732-0.747c0.41,0,0.747,0.337,0.747,0.747
				c0,0.41-0.337,0.732-0.747,0.732C201.814,467.203,201.477,466.881,201.477,466.471z M201.667,475.289v-7.075h1.099v7.075H201.667
				z"/>
			<path style="fill:#FFFFFF;" d="M204.582,477.105l0.556-0.82c0.586,0.703,1.289,0.967,2.3,0.967c1.172,0,2.27-0.571,2.27-2.124
				v-1.011c-0.513,0.718-1.377,1.26-2.373,1.26c-1.845,0-3.149-1.377-3.149-3.662c0-2.27,1.289-3.677,3.149-3.677
				c0.952,0,1.802,0.469,2.373,1.245v-1.069h1.098v6.87c0,2.344-1.641,3.076-3.369,3.076
				C206.237,478.16,205.417,477.926,204.582,477.105z M209.709,473.253v-3.091c-0.381-0.615-1.23-1.143-2.109-1.143
				c-1.421,0-2.27,1.128-2.27,2.695c0,1.553,0.849,2.695,2.27,2.695C208.478,474.41,209.328,473.868,209.709,473.253z"/>
			<path style="fill:#FFFFFF;" d="M217.413,475.289v-4.629c0-1.245-0.63-1.641-1.582-1.641c-0.865,0-1.685,0.527-2.095,1.099v5.17
				h-1.099v-7.075h1.099v1.025c0.498-0.586,1.464-1.201,2.519-1.201c1.48,0,2.256,0.747,2.256,2.285v4.966H217.413z"/>
			<path style="fill:#FFFFFF;" d="M219.932,471.744c0-2.051,1.465-3.706,3.486-3.706c2.139,0,3.398,1.67,3.398,3.794v0.279h-5.727
				c0.088,1.333,1.025,2.446,2.549,2.446c0.806,0,1.626-0.322,2.183-0.894l0.527,0.718c-0.703,0.703-1.655,1.084-2.812,1.084
				C221.441,475.465,219.932,473.956,219.932,471.744z M223.404,468.947c-1.509,0-2.256,1.274-2.314,2.358h4.643
				C225.718,470.25,225.015,468.947,223.404,468.947z"/>
			<path style="fill:#FFFFFF;" d="M233.35,475.289v-1.055c-0.527,0.718-1.392,1.23-2.388,1.23c-1.846,0-3.149-1.406-3.149-3.706
				c0-2.256,1.289-3.721,3.149-3.721c0.952,0,1.817,0.469,2.388,1.245v-3.765h1.098v9.77H233.35z M233.35,473.37v-3.208
				c-0.396-0.615-1.245-1.143-2.124-1.143c-1.421,0-2.27,1.172-2.27,2.739c0,1.567,0.849,2.724,2.27,2.724
				C232.105,474.483,232.954,473.986,233.35,473.37z"/>
			<path style="fill:#FFFFFF;" d="M239.692,475.289v-9.77h1.098v3.765c0.572-0.776,1.421-1.245,2.388-1.245
				c1.845,0,3.149,1.465,3.149,3.721c0,2.299-1.304,3.706-3.149,3.706c-0.996,0-1.86-0.513-2.388-1.23v1.055H239.692z
				 M242.9,474.483c1.436,0,2.285-1.157,2.285-2.724c0-1.568-0.85-2.739-2.285-2.739c-0.864,0-1.728,0.527-2.109,1.143v3.208
				C241.171,473.986,242.036,474.483,242.9,474.483z"/>
			<path style="fill:#FFFFFF;" d="M247.528,477.061c0.161,0.073,0.425,0.117,0.601,0.117c0.483,0,0.805-0.161,1.055-0.747
				l0.469-1.069l-2.959-7.148h1.187l2.358,5.8l2.344-5.8h1.201l-3.545,8.51c-0.425,1.025-1.143,1.421-2.08,1.435
				c-0.234,0-0.601-0.044-0.805-0.103L247.528,477.061z"/>
		</g>
	</g>
</g>
</svg>
